<?xml version="1.0" encoding="UTF-8"?>
<!DOCTYPE svg PUBLIC "-//W3C//DTD SVG 1.1//EN" "http://www.w3.org/Graphics/SVG/1.1/DTD/svg11.dtd">
<!-- Creator: CorelDRAW X6 -->
<svg xmlns="http://www.w3.org/2000/svg" xml:space="preserve" width="70mm" height="150mm" version="1.1" style="shape-rendering:geometricPrecision; text-rendering:geometricPrecision; image-rendering:optimizeQuality; fill-rule:evenodd; clip-rule:evenodd"
viewBox="0 0 7000 15000"
 xmlns:xlink="http://www.w3.org/1999/xlink">
 <defs>
  <style type="text/css">
   <![CDATA[
    .fil2 {fill:none}
    .fil0 {fill:#676F74}
    .fil1 {fill:#FEFEFE;fill-opacity:0.200000}
   ]]>
  </style>
   <clipPath id="id0">
    <path d="M0 0l7000 0 0 15000 -7000 0 0 -15000z"/>
   </clipPath>
 </defs>
 <g id="Layer_x0020_1">
  <metadata id="CorelCorpID_0Corel-Layer"/>
  <polygon class="fil0" points="0,0 7000,0 7000,15000 0,15000 "/>
  <g style="clip-path:url(#id0)">
   <g id="_429520336">
    <g>
     <polygon id="1" class="fil1" points="3500,-119 3477,-137 3028,-486 2579,-137 2555,-119 2532,-137 2083,-486 1634,-137 1611,-119 1588,-137 1139,-486 689,-137 666,-119 643,-137 194,-486 -255,-137 -278,-119 -301,-137 -750,-486 -1181,-152 -1200,-137 -1223,-214 -773,-563 -750,-581 -727,-563 -278,-214 171,-563 194,-581 217,-563 666,-214 1116,-563 1139,-581 1162,-563 1611,-214 2060,-563 2083,-581 2106,-563 2555,-214 3005,-563 3028,-581 3051,-563 3500,-214 3949,-563 3972,-581 3995,-563 4445,-214 4894,-563 4917,-581 4940,-563 5389,-214 5838,-563 5861,-581 5884,-563 6334,-214 6783,-563 6806,-581 6829,-563 7278,-214 7727,-563 7750,-581 7773,-563 8223,-214 8200,-137 8181,-152 7750,-486 7301,-137 7278,-119 7255,-137 6806,-486 6357,-137 6334,-119 6311,-137 5861,-486 5412,-137 5389,-119 5366,-137 4917,-486 4468,-137 4445,-119 4421,-137 3972,-486 3523,-137 "/>
     <polygon class="fil1" points="3500,91 3477,73 3028,-276 2579,73 2555,91 2532,73 2083,-276 1634,73 1611,91 1588,73 1139,-276 689,73 666,91 643,73 194,-276 -255,73 -278,91 -301,73 -750,-276 -1181,58 -1200,73 -1223,-4 -773,-353 -750,-371 -727,-353 -278,-4 171,-353 194,-371 217,-353 666,-4 1116,-353 1139,-371 1162,-353 1611,-4 2060,-353 2083,-371 2106,-353 2555,-4 3005,-353 3028,-371 3051,-353 3500,-4 3949,-353 3972,-371 3995,-353 4445,-4 4894,-353 4917,-371 4940,-353 5389,-4 5838,-353 5861,-371 5884,-353 6334,-4 6783,-353 6806,-371 6829,-353 7278,-4 7727,-353 7750,-371 7773,-353 8223,-4 8200,73 8181,58 7750,-276 7301,73 7278,91 7255,73 6806,-276 6357,73 6334,91 6311,73 5861,-276 5412,73 5389,91 5366,73 4917,-276 4468,73 4445,91 4421,73 3972,-276 3523,73 "/>
     <polygon class="fil1" points="3500,301 3477,283 3028,-66 2579,283 2555,301 2532,283 2083,-66 1634,283 1611,301 1588,283 1139,-66 689,283 666,301 643,283 194,-66 -255,283 -278,301 -301,283 -750,-66 -1181,268 -1200,283 -1223,206 -773,-143 -750,-161 -727,-143 -278,206 171,-143 194,-161 217,-143 666,206 1116,-143 1139,-161 1162,-143 1611,206 2060,-143 2083,-161 2106,-143 2555,206 3005,-143 3028,-161 3051,-143 3500,206 3949,-143 3972,-161 3995,-143 4445,206 4894,-143 4917,-161 4940,-143 5389,206 5838,-143 5861,-161 5884,-143 6334,206 6783,-143 6806,-161 6829,-143 7278,206 7727,-143 7750,-161 7773,-143 8223,206 8200,283 8181,268 7750,-66 7301,283 7278,301 7255,283 6806,-66 6357,283 6334,301 6311,283 5861,-66 5412,283 5389,301 5366,283 4917,-66 4468,283 4445,301 4421,283 3972,-66 3523,283 "/>
     <polygon class="fil1" points="3500,511 3477,493 3028,144 2579,493 2555,511 2532,493 2083,144 1634,493 1611,511 1588,493 1139,144 689,493 666,511 643,493 194,144 -255,493 -278,511 -301,493 -750,144 -1181,478 -1200,493 -1223,415 -773,67 -750,49 -727,67 -278,415 171,67 194,49 217,67 666,415 1116,67 1139,49 1162,67 1611,415 2060,67 2083,49 2106,67 2555,415 3005,67 3028,49 3051,67 3500,415 3949,67 3972,49 3995,67 4445,415 4894,67 4917,49 4940,67 5389,415 5838,67 5861,49 5884,67 6334,415 6783,67 6806,49 6829,67 7278,415 7727,67 7750,49 7773,67 8223,415 8200,493 8181,478 7750,144 7301,493 7278,511 7255,493 6806,144 6357,493 6334,511 6311,493 5861,144 5412,493 5389,511 5366,493 4917,144 4468,493 4445,511 4421,493 3972,144 3523,493 "/>
     <polygon class="fil1" points="3500,721 3477,703 3028,354 2579,703 2555,721 2532,703 2083,354 1634,703 1611,721 1588,703 1139,354 689,703 666,721 643,703 194,354 -255,703 -278,721 -301,703 -750,354 -1181,688 -1200,703 -1223,625 -773,277 -750,259 -727,277 -278,625 171,277 194,259 217,277 666,625 1116,277 1139,259 1162,277 1611,625 2060,277 2083,259 2106,277 2555,625 3005,277 3028,259 3051,277 3500,625 3949,277 3972,259 3995,277 4445,625 4894,277 4917,259 4940,277 5389,625 5838,277 5861,259 5884,277 6334,625 6783,277 6806,259 6829,277 7278,625 7727,277 7750,259 7773,277 8223,625 8200,703 8181,688 7750,354 7301,703 7278,721 7255,703 6806,354 6357,703 6334,721 6311,703 5861,354 5412,703 5389,721 5366,703 4917,354 4468,703 4445,721 4421,703 3972,354 3523,703 "/>
     <polygon class="fil1" points="3500,931 3477,913 3028,564 2579,913 2555,931 2532,913 2083,564 1634,913 1611,931 1588,913 1139,564 689,913 666,931 643,913 194,564 -255,913 -278,931 -301,913 -750,564 -1181,898 -1200,913 -1223,835 -773,487 -750,469 -727,487 -278,835 171,487 194,469 217,487 666,835 1116,487 1139,469 1162,487 1611,835 2060,487 2083,469 2106,487 2555,835 3005,487 3028,469 3051,487 3500,835 3949,487 3972,469 3995,487 4445,835 4894,487 4917,469 4940,487 5389,835 5838,487 5861,469 5884,487 6334,835 6783,487 6806,469 6829,487 7278,835 7727,487 7750,469 7773,487 8223,835 8200,913 8181,898 7750,564 7301,913 7278,931 7255,913 6806,564 6357,913 6334,931 6311,913 5861,564 5412,913 5389,931 5366,913 4917,564 4468,913 4445,931 4421,913 3972,564 3523,913 "/>
     <polygon class="fil1" points="3500,1141 3477,1123 3028,774 2579,1123 2555,1141 2532,1123 2083,774 1634,1123 1611,1141 1588,1123 1139,774 689,1123 666,1141 643,1123 194,774 -255,1123 -278,1141 -301,1123 -750,774 -1181,1108 -1200,1123 -1223,1045 -773,697 -750,679 -727,697 -278,1045 171,697 194,679 217,697 666,1045 1116,697 1139,679 1162,697 1611,1045 2060,697 2083,679 2106,697 2555,1045 3005,697 3028,679 3051,697 3500,1045 3949,697 3972,679 3995,697 4445,1045 4894,697 4917,679 4940,697 5389,1045 5838,697 5861,679 5884,697 6334,1045 6783,697 6806,679 6829,697 7278,1045 7727,697 7750,679 7773,697 8223,1045 8200,1123 8181,1108 7750,774 7301,1123 7278,1141 7255,1123 6806,774 6357,1123 6334,1141 6311,1123 5861,774 5412,1123 5389,1141 5366,1123 4917,774 4468,1123 4445,1141 4421,1123 3972,774 3523,1123 "/>
     <polygon class="fil1" points="3500,1351 3477,1333 3028,984 2579,1333 2555,1351 2532,1333 2083,984 1634,1333 1611,1351 1588,1333 1139,984 689,1333 666,1351 643,1333 194,984 -255,1333 -278,1351 -301,1333 -750,984 -1181,1318 -1200,1333 -1223,1255 -773,907 -750,889 -727,907 -278,1255 171,907 194,889 217,907 666,1255 1116,907 1139,889 1162,907 1611,1255 2060,907 2083,889 2106,907 2555,1255 3005,907 3028,889 3051,907 3500,1255 3949,907 3972,889 3995,907 4445,1255 4894,907 4917,889 4940,907 5389,1255 5838,907 5861,889 5884,907 6334,1255 6783,907 6806,889 6829,907 7278,1255 7727,907 7750,889 7773,907 8223,1255 8200,1333 8181,1318 7750,984 7301,1333 7278,1351 7255,1333 6806,984 6357,1333 6334,1351 6311,1333 5861,984 5412,1333 5389,1351 5366,1333 4917,984 4468,1333 4445,1351 4421,1333 3972,984 3523,1333 "/>
     <polygon class="fil1" points="3500,1561 3477,1543 3028,1194 2579,1543 2555,1561 2532,1543 2083,1194 1634,1543 1611,1561 1588,1543 1139,1194 689,1543 666,1561 643,1543 194,1194 -255,1543 -278,1561 -301,1543 -750,1194 -1181,1528 -1200,1543 -1223,1465 -773,1117 -750,1099 -727,1117 -278,1465 171,1117 194,1099 217,1117 666,1465 1116,1117 1139,1099 1162,1117 1611,1465 2060,1117 2083,1099 2106,1117 2555,1465 3005,1117 3028,1099 3051,1117 3500,1465 3949,1117 3972,1099 3995,1117 4445,1465 4894,1117 4917,1099 4940,1117 5389,1465 5838,1117 5861,1099 5884,1117 6334,1465 6783,1117 6806,1099 6829,1117 7278,1465 7727,1117 7750,1099 7773,1117 8223,1465 8200,1543 8181,1528 7750,1194 7301,1543 7278,1561 7255,1543 6806,1194 6357,1543 6334,1561 6311,1543 5861,1194 5412,1543 5389,1561 5366,1543 4917,1194 4468,1543 4445,1561 4421,1543 3972,1194 3523,1543 "/>
     <polygon class="fil1" points="3500,1771 3477,1753 3028,1404 2579,1753 2555,1771 2532,1753 2083,1404 1634,1753 1611,1771 1588,1753 1139,1404 689,1753 666,1771 643,1753 194,1404 -255,1753 -278,1771 -301,1753 -750,1404 -1181,1738 -1200,1753 -1223,1675 -773,1327 -750,1309 -727,1327 -278,1675 171,1327 194,1309 217,1327 666,1675 1116,1327 1139,1309 1162,1327 1611,1675 2060,1327 2083,1309 2106,1327 2555,1675 3005,1327 3028,1309 3051,1327 3500,1675 3949,1327 3972,1309 3995,1327 4445,1675 4894,1327 4917,1309 4940,1327 5389,1675 5838,1327 5861,1309 5884,1327 6334,1675 6783,1327 6806,1309 6829,1327 7278,1675 7727,1327 7750,1309 7773,1327 8223,1675 8200,1753 8181,1738 7750,1404 7301,1753 7278,1771 7255,1753 6806,1404 6357,1753 6334,1771 6311,1753 5861,1404 5412,1753 5389,1771 5366,1753 4917,1404 4468,1753 4445,1771 4421,1753 3972,1404 3523,1753 "/>
     <polygon class="fil1" points="3500,1981 3477,1963 3028,1614 2579,1963 2555,1981 2532,1963 2083,1614 1634,1963 1611,1981 1588,1963 1139,1614 689,1963 666,1981 643,1963 194,1614 -255,1963 -278,1981 -301,1963 -750,1614 -1181,1948 -1200,1963 -1223,1885 -773,1537 -750,1519 -727,1537 -278,1885 171,1537 194,1519 217,1537 666,1885 1116,1537 1139,1519 1162,1537 1611,1885 2060,1537 2083,1519 2106,1537 2555,1885 3005,1537 3028,1519 3051,1537 3500,1885 3949,1537 3972,1519 3995,1537 4445,1885 4894,1537 4917,1519 4940,1537 5389,1885 5838,1537 5861,1519 5884,1537 6334,1885 6783,1537 6806,1519 6829,1537 7278,1885 7727,1537 7750,1519 7773,1537 8223,1885 8200,1963 8181,1948 7750,1614 7301,1963 7278,1981 7255,1963 6806,1614 6357,1963 6334,1981 6311,1963 5861,1614 5412,1963 5389,1981 5366,1963 4917,1614 4468,1963 4445,1981 4421,1963 3972,1614 3523,1963 "/>
     <polygon class="fil1" points="3500,2191 3477,2173 3028,1824 2579,2173 2555,2191 2532,2173 2083,1824 1634,2173 1611,2191 1588,2173 1139,1824 689,2173 666,2191 643,2173 194,1824 -255,2173 -278,2191 -301,2173 -750,1824 -1181,2158 -1200,2173 -1223,2095 -773,1747 -750,1729 -727,1747 -278,2095 171,1747 194,1729 217,1747 666,2095 1116,1747 1139,1729 1162,1747 1611,2095 2060,1747 2083,1729 2106,1747 2555,2095 3005,1747 3028,1729 3051,1747 3500,2095 3949,1747 3972,1729 3995,1747 4445,2095 4894,1747 4917,1729 4940,1747 5389,2095 5838,1747 5861,1729 5884,1747 6334,2095 6783,1747 6806,1729 6829,1747 7278,2095 7727,1747 7750,1729 7773,1747 8223,2095 8200,2173 8181,2158 7750,1824 7301,2173 7278,2191 7255,2173 6806,1824 6357,2173 6334,2191 6311,2173 5861,1824 5412,2173 5389,2191 5366,2173 4917,1824 4468,2173 4445,2191 4421,2173 3972,1824 3523,2173 "/>
     <polygon class="fil1" points="3500,2400 3477,2383 3028,2034 2579,2383 2555,2400 2532,2383 2083,2034 1634,2383 1611,2400 1588,2383 1139,2034 689,2383 666,2400 643,2383 194,2034 -255,2383 -278,2400 -301,2383 -750,2034 -1181,2368 -1200,2383 -1223,2305 -773,1957 -750,1939 -727,1957 -278,2305 171,1957 194,1939 217,1957 666,2305 1116,1957 1139,1939 1162,1957 1611,2305 2060,1957 2083,1939 2106,1957 2555,2305 3005,1957 3028,1939 3051,1957 3500,2305 3949,1957 3972,1939 3995,1957 4445,2305 4894,1957 4917,1939 4940,1957 5389,2305 5838,1957 5861,1939 5884,1957 6334,2305 6783,1957 6806,1939 6829,1957 7278,2305 7727,1957 7750,1939 7773,1957 8223,2305 8200,2383 8181,2368 7750,2034 7301,2383 7278,2400 7255,2383 6806,2034 6357,2383 6334,2400 6311,2383 5861,2034 5412,2383 5389,2400 5366,2383 4917,2034 4468,2383 4445,2400 4421,2383 3972,2034 3523,2383 "/>
     <polygon class="fil1" points="3500,2610 3477,2593 3028,2244 2579,2593 2555,2610 2532,2593 2083,2244 1634,2593 1611,2610 1588,2593 1139,2244 689,2593 666,2610 643,2593 194,2244 -255,2593 -278,2610 -301,2593 -750,2244 -1181,2578 -1200,2593 -1223,2515 -773,2167 -750,2149 -727,2167 -278,2515 171,2167 194,2149 217,2167 666,2515 1116,2167 1139,2149 1162,2167 1611,2515 2060,2167 2083,2149 2106,2167 2555,2515 3005,2167 3028,2149 3051,2167 3500,2515 3949,2167 3972,2149 3995,2167 4445,2515 4894,2167 4917,2149 4940,2167 5389,2515 5838,2167 5861,2149 5884,2167 6334,2515 6783,2167 6806,2149 6829,2167 7278,2515 7727,2167 7750,2149 7773,2167 8223,2515 8200,2593 8181,2578 7750,2244 7301,2593 7278,2610 7255,2593 6806,2244 6357,2593 6334,2610 6311,2593 5861,2244 5412,2593 5389,2610 5366,2593 4917,2244 4468,2593 4445,2610 4421,2593 3972,2244 3523,2593 "/>
     <polygon class="fil1" points="3500,2820 3477,2803 3028,2454 2579,2803 2555,2820 2532,2803 2083,2454 1634,2803 1611,2820 1588,2803 1139,2454 689,2803 666,2820 643,2803 194,2454 -255,2803 -278,2820 -301,2803 -750,2454 -1181,2788 -1200,2803 -1223,2725 -773,2377 -750,2359 -727,2377 -278,2725 171,2377 194,2359 217,2377 666,2725 1116,2377 1139,2359 1162,2377 1611,2725 2060,2377 2083,2359 2106,2377 2555,2725 3005,2377 3028,2359 3051,2377 3500,2725 3949,2377 3972,2359 3995,2377 4445,2725 4894,2377 4917,2359 4940,2377 5389,2725 5838,2377 5861,2359 5884,2377 6334,2725 6783,2377 6806,2359 6829,2377 7278,2725 7727,2377 7750,2359 7773,2377 8223,2725 8200,2803 8181,2788 7750,2454 7301,2803 7278,2820 7255,2803 6806,2454 6357,2803 6334,2820 6311,2803 5861,2454 5412,2803 5389,2820 5366,2803 4917,2454 4468,2803 4445,2820 4421,2803 3972,2454 3523,2803 "/>
     <polygon class="fil1" points="3500,3030 3477,3013 3028,2664 2579,3013 2555,3030 2532,3013 2083,2664 1634,3013 1611,3030 1588,3013 1139,2664 689,3013 666,3030 643,3013 194,2664 -255,3013 -278,3030 -301,3013 -750,2664 -1181,2998 -1200,3013 -1223,2935 -773,2587 -750,2569 -727,2587 -278,2935 171,2587 194,2569 217,2587 666,2935 1116,2587 1139,2569 1162,2587 1611,2935 2060,2587 2083,2569 2106,2587 2555,2935 3005,2587 3028,2569 3051,2587 3500,2935 3949,2587 3972,2569 3995,2587 4445,2935 4894,2587 4917,2569 4940,2587 5389,2935 5838,2587 5861,2569 5884,2587 6334,2935 6783,2587 6806,2569 6829,2587 7278,2935 7727,2587 7750,2569 7773,2587 8223,2935 8200,3013 8181,2998 7750,2664 7301,3013 7278,3030 7255,3013 6806,2664 6357,3013 6334,3030 6311,3013 5861,2664 5412,3013 5389,3030 5366,3013 4917,2664 4468,3013 4445,3030 4421,3013 3972,2664 3523,3013 "/>
     <polygon class="fil1" points="3500,3240 3477,3223 3028,2874 2579,3223 2555,3240 2532,3223 2083,2874 1634,3223 1611,3240 1588,3223 1139,2874 689,3223 666,3240 643,3223 194,2874 -255,3223 -278,3240 -301,3223 -750,2874 -1181,3208 -1200,3223 -1223,3145 -773,2797 -750,2779 -727,2797 -278,3145 171,2797 194,2779 217,2797 666,3145 1116,2797 1139,2779 1162,2797 1611,3145 2060,2797 2083,2779 2106,2797 2555,3145 3005,2797 3028,2779 3051,2797 3500,3145 3949,2797 3972,2779 3995,2797 4445,3145 4894,2797 4917,2779 4940,2797 5389,3145 5838,2797 5861,2779 5884,2797 6334,3145 6783,2797 6806,2779 6829,2797 7278,3145 7727,2797 7750,2779 7773,2797 8223,3145 8200,3223 8181,3208 7750,2874 7301,3223 7278,3240 7255,3223 6806,2874 6357,3223 6334,3240 6311,3223 5861,2874 5412,3223 5389,3240 5366,3223 4917,2874 4468,3223 4445,3240 4421,3223 3972,2874 3523,3223 "/>
     <polygon class="fil1" points="3500,3450 3477,3433 3028,3084 2579,3433 2555,3450 2532,3433 2083,3084 1634,3433 1611,3450 1588,3433 1139,3084 689,3433 666,3450 643,3433 194,3084 -255,3433 -278,3450 -301,3433 -750,3084 -1181,3418 -1200,3433 -1223,3355 -773,3007 -750,2989 -727,3007 -278,3355 171,3007 194,2989 217,3007 666,3355 1116,3007 1139,2989 1162,3007 1611,3355 2060,3007 2083,2989 2106,3007 2555,3355 3005,3007 3028,2989 3051,3007 3500,3355 3949,3007 3972,2989 3995,3007 4445,3355 4894,3007 4917,2989 4940,3007 5389,3355 5838,3007 5861,2989 5884,3007 6334,3355 6783,3007 6806,2989 6829,3007 7278,3355 7727,3007 7750,2989 7773,3007 8223,3355 8200,3433 8181,3418 7750,3084 7301,3433 7278,3450 7255,3433 6806,3084 6357,3433 6334,3450 6311,3433 5861,3084 5412,3433 5389,3450 5366,3433 4917,3084 4468,3433 4445,3450 4421,3433 3972,3084 3523,3433 "/>
     <polygon class="fil1" points="3500,3660 3477,3642 3028,3294 2579,3642 2555,3660 2532,3642 2083,3294 1634,3642 1611,3660 1588,3642 1139,3294 689,3642 666,3660 643,3642 194,3294 -255,3642 -278,3660 -301,3642 -750,3294 -1181,3628 -1200,3642 -1223,3565 -773,3217 -750,3199 -727,3217 -278,3565 171,3217 194,3199 217,3217 666,3565 1116,3217 1139,3199 1162,3217 1611,3565 2060,3217 2083,3199 2106,3217 2555,3565 3005,3217 3028,3199 3051,3217 3500,3565 3949,3217 3972,3199 3995,3217 4445,3565 4894,3217 4917,3199 4940,3217 5389,3565 5838,3217 5861,3199 5884,3217 6334,3565 6783,3217 6806,3199 6829,3217 7278,3565 7727,3217 7750,3199 7773,3217 8223,3565 8200,3642 8181,3628 7750,3294 7301,3642 7278,3660 7255,3642 6806,3294 6357,3642 6334,3660 6311,3642 5861,3294 5412,3642 5389,3660 5366,3642 4917,3294 4468,3642 4445,3660 4421,3642 3972,3294 3523,3642 "/>
     <polygon class="fil1" points="3500,3870 3477,3852 3028,3504 2579,3852 2555,3870 2532,3852 2083,3504 1634,3852 1611,3870 1588,3852 1139,3504 689,3852 666,3870 643,3852 194,3504 -255,3852 -278,3870 -301,3852 -750,3504 -1181,3838 -1200,3852 -1223,3775 -773,3427 -750,3409 -727,3427 -278,3775 171,3427 194,3409 217,3427 666,3775 1116,3427 1139,3409 1162,3427 1611,3775 2060,3427 2083,3409 2106,3427 2555,3775 3005,3427 3028,3409 3051,3427 3500,3775 3949,3427 3972,3409 3995,3427 4445,3775 4894,3427 4917,3409 4940,3427 5389,3775 5838,3427 5861,3409 5884,3427 6334,3775 6783,3427 6806,3409 6829,3427 7278,3775 7727,3427 7750,3409 7773,3427 8223,3775 8200,3852 8181,3838 7750,3504 7301,3852 7278,3870 7255,3852 6806,3504 6357,3852 6334,3870 6311,3852 5861,3504 5412,3852 5389,3870 5366,3852 4917,3504 4468,3852 4445,3870 4421,3852 3972,3504 3523,3852 "/>
     <polygon class="fil1" points="3500,4080 3477,4062 3028,3714 2579,4062 2555,4080 2532,4062 2083,3714 1634,4062 1611,4080 1588,4062 1139,3714 689,4062 666,4080 643,4062 194,3714 -255,4062 -278,4080 -301,4062 -750,3714 -1181,4048 -1200,4062 -1223,3985 -773,3637 -750,3619 -727,3637 -278,3985 171,3637 194,3619 217,3637 666,3985 1116,3637 1139,3619 1162,3637 1611,3985 2060,3637 2083,3619 2106,3637 2555,3985 3005,3637 3028,3619 3051,3637 3500,3985 3949,3637 3972,3619 3995,3637 4445,3985 4894,3637 4917,3619 4940,3637 5389,3985 5838,3637 5861,3619 5884,3637 6334,3985 6783,3637 6806,3619 6829,3637 7278,3985 7727,3637 7750,3619 7773,3637 8223,3985 8200,4062 8181,4048 7750,3714 7301,4062 7278,4080 7255,4062 6806,3714 6357,4062 6334,4080 6311,4062 5861,3714 5412,4062 5389,4080 5366,4062 4917,3714 4468,4062 4445,4080 4421,4062 3972,3714 3523,4062 "/>
     <polygon class="fil1" points="3500,4290 3477,4272 3028,3924 2579,4272 2555,4290 2532,4272 2083,3924 1634,4272 1611,4290 1588,4272 1139,3924 689,4272 666,4290 643,4272 194,3924 -255,4272 -278,4290 -301,4272 -750,3924 -1181,4258 -1200,4272 -1223,4195 -773,3846 -750,3829 -727,3846 -278,4195 171,3846 194,3829 217,3846 666,4195 1116,3846 1139,3829 1162,3846 1611,4195 2060,3846 2083,3829 2106,3846 2555,4195 3005,3846 3028,3829 3051,3846 3500,4195 3949,3846 3972,3829 3995,3846 4445,4195 4894,3846 4917,3829 4940,3846 5389,4195 5838,3846 5861,3829 5884,3846 6334,4195 6783,3846 6806,3829 6829,3846 7278,4195 7727,3846 7750,3829 7773,3846 8223,4195 8200,4272 8181,4258 7750,3924 7301,4272 7278,4290 7255,4272 6806,3924 6357,4272 6334,4290 6311,4272 5861,3924 5412,4272 5389,4290 5366,4272 4917,3924 4468,4272 4445,4290 4421,4272 3972,3924 3523,4272 "/>
     <polygon class="fil1" points="3500,4500 3477,4482 3028,4134 2579,4482 2555,4500 2532,4482 2083,4134 1634,4482 1611,4500 1588,4482 1139,4134 689,4482 666,4500 643,4482 194,4134 -255,4482 -278,4500 -301,4482 -750,4134 -1181,4468 -1200,4482 -1223,4405 -773,4056 -750,4039 -727,4056 -278,4405 171,4056 194,4039 217,4056 666,4405 1116,4056 1139,4039 1162,4056 1611,4405 2060,4056 2083,4039 2106,4056 2555,4405 3005,4056 3028,4039 3051,4056 3500,4405 3949,4056 3972,4039 3995,4056 4445,4405 4894,4056 4917,4039 4940,4056 5389,4405 5838,4056 5861,4039 5884,4056 6334,4405 6783,4056 6806,4039 6829,4056 7278,4405 7727,4056 7750,4039 7773,4056 8223,4405 8200,4482 8181,4468 7750,4134 7301,4482 7278,4500 7255,4482 6806,4134 6357,4482 6334,4500 6311,4482 5861,4134 5412,4482 5389,4500 5366,4482 4917,4134 4468,4482 4445,4500 4421,4482 3972,4134 3523,4482 "/>
     <polygon class="fil1" points="3500,4710 3477,4692 3028,4344 2579,4692 2555,4710 2532,4692 2083,4344 1634,4692 1611,4710 1588,4692 1139,4344 689,4692 666,4710 643,4692 194,4344 -255,4692 -278,4710 -301,4692 -750,4344 -1181,4678 -1200,4692 -1223,4615 -773,4266 -750,4249 -727,4266 -278,4615 171,4266 194,4249 217,4266 666,4615 1116,4266 1139,4249 1162,4266 1611,4615 2060,4266 2083,4249 2106,4266 2555,4615 3005,4266 3028,4249 3051,4266 3500,4615 3949,4266 3972,4249 3995,4266 4445,4615 4894,4266 4917,4249 4940,4266 5389,4615 5838,4266 5861,4249 5884,4266 6334,4615 6783,4266 6806,4249 6829,4266 7278,4615 7727,4266 7750,4249 7773,4266 8223,4615 8200,4692 8181,4678 7750,4344 7301,4692 7278,4710 7255,4692 6806,4344 6357,4692 6334,4710 6311,4692 5861,4344 5412,4692 5389,4710 5366,4692 4917,4344 4468,4692 4445,4710 4421,4692 3972,4344 3523,4692 "/>
     <polygon class="fil1" points="3500,4920 3477,4902 3028,4554 2579,4902 2555,4920 2532,4902 2083,4554 1634,4902 1611,4920 1588,4902 1139,4554 689,4902 666,4920 643,4902 194,4554 -255,4902 -278,4920 -301,4902 -750,4554 -1181,4888 -1200,4902 -1223,4825 -773,4476 -750,4459 -727,4476 -278,4825 171,4476 194,4459 217,4476 666,4825 1116,4476 1139,4459 1162,4476 1611,4825 2060,4476 2083,4459 2106,4476 2555,4825 3005,4476 3028,4459 3051,4476 3500,4825 3949,4476 3972,4459 3995,4476 4445,4825 4894,4476 4917,4459 4940,4476 5389,4825 5838,4476 5861,4459 5884,4476 6334,4825 6783,4476 6806,4459 6829,4476 7278,4825 7727,4476 7750,4459 7773,4476 8223,4825 8200,4902 8181,4888 7750,4554 7301,4902 7278,4920 7255,4902 6806,4554 6357,4902 6334,4920 6311,4902 5861,4554 5412,4902 5389,4920 5366,4902 4917,4554 4468,4902 4445,4920 4421,4902 3972,4554 3523,4902 "/>
     <polygon class="fil1" points="3500,5130 3477,5112 3028,4764 2579,5112 2555,5130 2532,5112 2083,4764 1634,5112 1611,5130 1588,5112 1139,4764 689,5112 666,5130 643,5112 194,4764 -255,5112 -278,5130 -301,5112 -750,4764 -1181,5098 -1200,5112 -1223,5035 -773,4686 -750,4669 -727,4686 -278,5035 171,4686 194,4669 217,4686 666,5035 1116,4686 1139,4669 1162,4686 1611,5035 2060,4686 2083,4669 2106,4686 2555,5035 3005,4686 3028,4669 3051,4686 3500,5035 3949,4686 3972,4669 3995,4686 4445,5035 4894,4686 4917,4669 4940,4686 5389,5035 5838,4686 5861,4669 5884,4686 6334,5035 6783,4686 6806,4669 6829,4686 7278,5035 7727,4686 7750,4669 7773,4686 8223,5035 8200,5112 8181,5098 7750,4764 7301,5112 7278,5130 7255,5112 6806,4764 6357,5112 6334,5130 6311,5112 5861,4764 5412,5112 5389,5130 5366,5112 4917,4764 4468,5112 4445,5130 4421,5112 3972,4764 3523,5112 "/>
     <polygon class="fil1" points="3500,5340 3477,5322 3028,4974 2579,5322 2555,5340 2532,5322 2083,4974 1634,5322 1611,5340 1588,5322 1139,4974 689,5322 666,5340 643,5322 194,4974 -255,5322 -278,5340 -301,5322 -750,4974 -1181,5308 -1200,5322 -1223,5245 -773,4896 -750,4879 -727,4896 -278,5245 171,4896 194,4879 217,4896 666,5245 1116,4896 1139,4879 1162,4896 1611,5245 2060,4896 2083,4879 2106,4896 2555,5245 3005,4896 3028,4879 3051,4896 3500,5245 3949,4896 3972,4879 3995,4896 4445,5245 4894,4896 4917,4879 4940,4896 5389,5245 5838,4896 5861,4879 5884,4896 6334,5245 6783,4896 6806,4879 6829,4896 7278,5245 7727,4896 7750,4879 7773,4896 8223,5245 8200,5322 8181,5308 7750,4974 7301,5322 7278,5340 7255,5322 6806,4974 6357,5322 6334,5340 6311,5322 5861,4974 5412,5322 5389,5340 5366,5322 4917,4974 4468,5322 4445,5340 4421,5322 3972,4974 3523,5322 "/>
     <polygon class="fil1" points="3500,5550 3477,5532 3028,5184 2579,5532 2555,5550 2532,5532 2083,5184 1634,5532 1611,5550 1588,5532 1139,5184 689,5532 666,5550 643,5532 194,5184 -255,5532 -278,5550 -301,5532 -750,5184 -1181,5518 -1200,5532 -1223,5455 -773,5106 -750,5088 -727,5106 -278,5455 171,5106 194,5088 217,5106 666,5455 1116,5106 1139,5088 1162,5106 1611,5455 2060,5106 2083,5088 2106,5106 2555,5455 3005,5106 3028,5088 3051,5106 3500,5455 3949,5106 3972,5088 3995,5106 4445,5455 4894,5106 4917,5088 4940,5106 5389,5455 5838,5106 5861,5088 5884,5106 6334,5455 6783,5106 6806,5088 6829,5106 7278,5455 7727,5106 7750,5088 7773,5106 8223,5455 8200,5532 8181,5518 7750,5184 7301,5532 7278,5550 7255,5532 6806,5184 6357,5532 6334,5550 6311,5532 5861,5184 5412,5532 5389,5550 5366,5532 4917,5184 4468,5532 4445,5550 4421,5532 3972,5184 3523,5532 "/>
     <polygon class="fil1" points="3500,5760 3477,5742 3028,5394 2579,5742 2555,5760 2532,5742 2083,5394 1634,5742 1611,5760 1588,5742 1139,5394 689,5742 666,5760 643,5742 194,5394 -255,5742 -278,5760 -301,5742 -750,5394 -1181,5728 -1200,5742 -1223,5665 -773,5316 -750,5298 -727,5316 -278,5665 171,5316 194,5298 217,5316 666,5665 1116,5316 1139,5298 1162,5316 1611,5665 2060,5316 2083,5298 2106,5316 2555,5665 3005,5316 3028,5298 3051,5316 3500,5665 3949,5316 3972,5298 3995,5316 4445,5665 4894,5316 4917,5298 4940,5316 5389,5665 5838,5316 5861,5298 5884,5316 6334,5665 6783,5316 6806,5298 6829,5316 7278,5665 7727,5316 7750,5298 7773,5316 8223,5665 8200,5742 8181,5728 7750,5394 7301,5742 7278,5760 7255,5742 6806,5394 6357,5742 6334,5760 6311,5742 5861,5394 5412,5742 5389,5760 5366,5742 4917,5394 4468,5742 4445,5760 4421,5742 3972,5394 3523,5742 "/>
     <polygon class="fil1" points="3500,5970 3477,5952 3028,5604 2579,5952 2555,5970 2532,5952 2083,5604 1634,5952 1611,5970 1588,5952 1139,5604 689,5952 666,5970 643,5952 194,5604 -255,5952 -278,5970 -301,5952 -750,5604 -1181,5938 -1200,5952 -1223,5875 -773,5526 -750,5508 -727,5526 -278,5875 171,5526 194,5508 217,5526 666,5875 1116,5526 1139,5508 1162,5526 1611,5875 2060,5526 2083,5508 2106,5526 2555,5875 3005,5526 3028,5508 3051,5526 3500,5875 3949,5526 3972,5508 3995,5526 4445,5875 4894,5526 4917,5508 4940,5526 5389,5875 5838,5526 5861,5508 5884,5526 6334,5875 6783,5526 6806,5508 6829,5526 7278,5875 7727,5526 7750,5508 7773,5526 8223,5875 8200,5952 8181,5938 7750,5604 7301,5952 7278,5970 7255,5952 6806,5604 6357,5952 6334,5970 6311,5952 5861,5604 5412,5952 5389,5970 5366,5952 4917,5604 4468,5952 4445,5970 4421,5952 3972,5604 3523,5952 "/>
     <polygon class="fil1" points="3500,6180 3477,6162 3028,5814 2579,6162 2555,6180 2532,6162 2083,5814 1634,6162 1611,6180 1588,6162 1139,5814 689,6162 666,6180 643,6162 194,5814 -255,6162 -278,6180 -301,6162 -750,5814 -1181,6148 -1200,6162 -1223,6085 -773,5736 -750,5718 -727,5736 -278,6085 171,5736 194,5718 217,5736 666,6085 1116,5736 1139,5718 1162,5736 1611,6085 2060,5736 2083,5718 2106,5736 2555,6085 3005,5736 3028,5718 3051,5736 3500,6085 3949,5736 3972,5718 3995,5736 4445,6085 4894,5736 4917,5718 4940,5736 5389,6085 5838,5736 5861,5718 5884,5736 6334,6085 6783,5736 6806,5718 6829,5736 7278,6085 7727,5736 7750,5718 7773,5736 8223,6085 8200,6162 8181,6148 7750,5814 7301,6162 7278,6180 7255,6162 6806,5814 6357,6162 6334,6180 6311,6162 5861,5814 5412,6162 5389,6180 5366,6162 4917,5814 4468,6162 4445,6180 4421,6162 3972,5814 3523,6162 "/>
     <polygon class="fil1" points="3500,6390 3477,6372 3028,6024 2579,6372 2555,6390 2532,6372 2083,6024 1634,6372 1611,6390 1588,6372 1139,6024 689,6372 666,6390 643,6372 194,6024 -255,6372 -278,6390 -301,6372 -750,6024 -1181,6358 -1200,6372 -1223,6295 -773,5946 -750,5928 -727,5946 -278,6295 171,5946 194,5928 217,5946 666,6295 1116,5946 1139,5928 1162,5946 1611,6295 2060,5946 2083,5928 2106,5946 2555,6295 3005,5946 3028,5928 3051,5946 3500,6295 3949,5946 3972,5928 3995,5946 4445,6295 4894,5946 4917,5928 4940,5946 5389,6295 5838,5946 5861,5928 5884,5946 6334,6295 6783,5946 6806,5928 6829,5946 7278,6295 7727,5946 7750,5928 7773,5946 8223,6295 8200,6372 8181,6358 7750,6024 7301,6372 7278,6390 7255,6372 6806,6024 6357,6372 6334,6390 6311,6372 5861,6024 5412,6372 5389,6390 5366,6372 4917,6024 4468,6372 4445,6390 4421,6372 3972,6024 3523,6372 "/>
     <polygon class="fil1" points="3500,6600 3477,6582 3028,6234 2579,6582 2555,6600 2532,6582 2083,6234 1634,6582 1611,6600 1588,6582 1139,6234 689,6582 666,6600 643,6582 194,6234 -255,6582 -278,6600 -301,6582 -750,6234 -1181,6568 -1200,6582 -1223,6505 -773,6156 -750,6138 -727,6156 -278,6505 171,6156 194,6138 217,6156 666,6505 1116,6156 1139,6138 1162,6156 1611,6505 2060,6156 2083,6138 2106,6156 2555,6505 3005,6156 3028,6138 3051,6156 3500,6505 3949,6156 3972,6138 3995,6156 4445,6505 4894,6156 4917,6138 4940,6156 5389,6505 5838,6156 5861,6138 5884,6156 6334,6505 6783,6156 6806,6138 6829,6156 7278,6505 7727,6156 7750,6138 7773,6156 8223,6505 8200,6582 8181,6568 7750,6234 7301,6582 7278,6600 7255,6582 6806,6234 6357,6582 6334,6600 6311,6582 5861,6234 5412,6582 5389,6600 5366,6582 4917,6234 4468,6582 4445,6600 4421,6582 3972,6234 3523,6582 "/>
     <polygon class="fil1" points="3500,6810 3477,6792 3028,6444 2579,6792 2555,6810 2532,6792 2083,6444 1634,6792 1611,6810 1588,6792 1139,6444 689,6792 666,6810 643,6792 194,6444 -255,6792 -278,6810 -301,6792 -750,6444 -1181,6778 -1200,6792 -1223,6715 -773,6366 -750,6348 -727,6366 -278,6715 171,6366 194,6348 217,6366 666,6715 1116,6366 1139,6348 1162,6366 1611,6715 2060,6366 2083,6348 2106,6366 2555,6715 3005,6366 3028,6348 3051,6366 3500,6715 3949,6366 3972,6348 3995,6366 4445,6715 4894,6366 4917,6348 4940,6366 5389,6715 5838,6366 5861,6348 5884,6366 6334,6715 6783,6366 6806,6348 6829,6366 7278,6715 7727,6366 7750,6348 7773,6366 8223,6715 8200,6792 8181,6778 7750,6444 7301,6792 7278,6810 7255,6792 6806,6444 6357,6792 6334,6810 6311,6792 5861,6444 5412,6792 5389,6810 5366,6792 4917,6444 4468,6792 4445,6810 4421,6792 3972,6444 3523,6792 "/>
     <polygon class="fil1" points="3500,7020 3477,7002 3028,6654 2579,7002 2555,7020 2532,7002 2083,6654 1634,7002 1611,7020 1588,7002 1139,6654 689,7002 666,7020 643,7002 194,6654 -255,7002 -278,7020 -301,7002 -750,6654 -1181,6988 -1200,7002 -1223,6925 -773,6576 -750,6558 -727,6576 -278,6925 171,6576 194,6558 217,6576 666,6925 1116,6576 1139,6558 1162,6576 1611,6925 2060,6576 2083,6558 2106,6576 2555,6925 3005,6576 3028,6558 3051,6576 3500,6925 3949,6576 3972,6558 3995,6576 4445,6925 4894,6576 4917,6558 4940,6576 5389,6925 5838,6576 5861,6558 5884,6576 6334,6925 6783,6576 6806,6558 6829,6576 7278,6925 7727,6576 7750,6558 7773,6576 8223,6925 8200,7002 8181,6988 7750,6654 7301,7002 7278,7020 7255,7002 6806,6654 6357,7002 6334,7020 6311,7002 5861,6654 5412,7002 5389,7020 5366,7002 4917,6654 4468,7002 4445,7020 4421,7002 3972,6654 3523,7002 "/>
     <polygon class="fil1" points="3500,7230 3477,7212 3028,6863 2579,7212 2555,7230 2532,7212 2083,6863 1634,7212 1611,7230 1588,7212 1139,6863 689,7212 666,7230 643,7212 194,6863 -255,7212 -278,7230 -301,7212 -750,6863 -1181,7198 -1200,7212 -1223,7135 -773,6786 -750,6768 -727,6786 -278,7135 171,6786 194,6768 217,6786 666,7135 1116,6786 1139,6768 1162,6786 1611,7135 2060,6786 2083,6768 2106,6786 2555,7135 3005,6786 3028,6768 3051,6786 3500,7135 3949,6786 3972,6768 3995,6786 4445,7135 4894,6786 4917,6768 4940,6786 5389,7135 5838,6786 5861,6768 5884,6786 6334,7135 6783,6786 6806,6768 6829,6786 7278,7135 7727,6786 7750,6768 7773,6786 8223,7135 8200,7212 8181,7198 7750,6863 7301,7212 7278,7230 7255,7212 6806,6863 6357,7212 6334,7230 6311,7212 5861,6863 5412,7212 5389,7230 5366,7212 4917,6863 4468,7212 4445,7230 4421,7212 3972,6863 3523,7212 "/>
     <polygon class="fil1" points="3500,7440 3477,7422 3028,7073 2579,7422 2555,7440 2532,7422 2083,7073 1634,7422 1611,7440 1588,7422 1139,7073 689,7422 666,7440 643,7422 194,7073 -255,7422 -278,7440 -301,7422 -750,7073 -1181,7408 -1200,7422 -1223,7345 -773,6996 -750,6978 -727,6996 -278,7345 171,6996 194,6978 217,6996 666,7345 1116,6996 1139,6978 1162,6996 1611,7345 2060,6996 2083,6978 2106,6996 2555,7345 3005,6996 3028,6978 3051,6996 3500,7345 3949,6996 3972,6978 3995,6996 4445,7345 4894,6996 4917,6978 4940,6996 5389,7345 5838,6996 5861,6978 5884,6996 6334,7345 6783,6996 6806,6978 6829,6996 7278,7345 7727,6996 7750,6978 7773,6996 8223,7345 8200,7422 8181,7408 7750,7073 7301,7422 7278,7440 7255,7422 6806,7073 6357,7422 6334,7440 6311,7422 5861,7073 5412,7422 5389,7440 5366,7422 4917,7073 4468,7422 4445,7440 4421,7422 3972,7073 3523,7422 "/>
     <polygon class="fil1" points="3500,7650 3477,7632 3028,7283 2579,7632 2555,7650 2532,7632 2083,7283 1634,7632 1611,7650 1588,7632 1139,7283 689,7632 666,7650 643,7632 194,7283 -255,7632 -278,7650 -301,7632 -750,7283 -1181,7618 -1200,7632 -1223,7555 -773,7206 -750,7188 -727,7206 -278,7555 171,7206 194,7188 217,7206 666,7555 1116,7206 1139,7188 1162,7206 1611,7555 2060,7206 2083,7188 2106,7206 2555,7555 3005,7206 3028,7188 3051,7206 3500,7555 3949,7206 3972,7188 3995,7206 4445,7555 4894,7206 4917,7188 4940,7206 5389,7555 5838,7206 5861,7188 5884,7206 6334,7555 6783,7206 6806,7188 6829,7206 7278,7555 7727,7206 7750,7188 7773,7206 8223,7555 8200,7632 8181,7618 7750,7283 7301,7632 7278,7650 7255,7632 6806,7283 6357,7632 6334,7650 6311,7632 5861,7283 5412,7632 5389,7650 5366,7632 4917,7283 4468,7632 4445,7650 4421,7632 3972,7283 3523,7632 "/>
     <polygon class="fil1" points="3500,7860 3477,7842 3028,7493 2579,7842 2555,7860 2532,7842 2083,7493 1634,7842 1611,7860 1588,7842 1139,7493 689,7842 666,7860 643,7842 194,7493 -255,7842 -278,7860 -301,7842 -750,7493 -1181,7828 -1200,7842 -1223,7765 -773,7416 -750,7398 -727,7416 -278,7765 171,7416 194,7398 217,7416 666,7765 1116,7416 1139,7398 1162,7416 1611,7765 2060,7416 2083,7398 2106,7416 2555,7765 3005,7416 3028,7398 3051,7416 3500,7765 3949,7416 3972,7398 3995,7416 4445,7765 4894,7416 4917,7398 4940,7416 5389,7765 5838,7416 5861,7398 5884,7416 6334,7765 6783,7416 6806,7398 6829,7416 7278,7765 7727,7416 7750,7398 7773,7416 8223,7765 8200,7842 8181,7828 7750,7493 7301,7842 7278,7860 7255,7842 6806,7493 6357,7842 6334,7860 6311,7842 5861,7493 5412,7842 5389,7860 5366,7842 4917,7493 4468,7842 4445,7860 4421,7842 3972,7493 3523,7842 "/>
     <polygon class="fil1" points="3500,8070 3477,8052 3028,7703 2579,8052 2555,8070 2532,8052 2083,7703 1634,8052 1611,8070 1588,8052 1139,7703 689,8052 666,8070 643,8052 194,7703 -255,8052 -278,8070 -301,8052 -750,7703 -1181,8038 -1200,8052 -1223,7975 -773,7626 -750,7608 -727,7626 -278,7975 171,7626 194,7608 217,7626 666,7975 1116,7626 1139,7608 1162,7626 1611,7975 2060,7626 2083,7608 2106,7626 2555,7975 3005,7626 3028,7608 3051,7626 3500,7975 3949,7626 3972,7608 3995,7626 4445,7975 4894,7626 4917,7608 4940,7626 5389,7975 5838,7626 5861,7608 5884,7626 6334,7975 6783,7626 6806,7608 6829,7626 7278,7975 7727,7626 7750,7608 7773,7626 8223,7975 8200,8052 8181,8038 7750,7703 7301,8052 7278,8070 7255,8052 6806,7703 6357,8052 6334,8070 6311,8052 5861,7703 5412,8052 5389,8070 5366,8052 4917,7703 4468,8052 4445,8070 4421,8052 3972,7703 3523,8052 "/>
     <polygon class="fil1" points="3500,8280 3477,8262 3028,7913 2579,8262 2555,8280 2532,8262 2083,7913 1634,8262 1611,8280 1588,8262 1139,7913 689,8262 666,8280 643,8262 194,7913 -255,8262 -278,8280 -301,8262 -750,7913 -1181,8248 -1200,8262 -1223,8185 -773,7836 -750,7818 -727,7836 -278,8185 171,7836 194,7818 217,7836 666,8185 1116,7836 1139,7818 1162,7836 1611,8185 2060,7836 2083,7818 2106,7836 2555,8185 3005,7836 3028,7818 3051,7836 3500,8185 3949,7836 3972,7818 3995,7836 4445,8185 4894,7836 4917,7818 4940,7836 5389,8185 5838,7836 5861,7818 5884,7836 6334,8185 6783,7836 6806,7818 6829,7836 7278,8185 7727,7836 7750,7818 7773,7836 8223,8185 8200,8262 8181,8248 7750,7913 7301,8262 7278,8280 7255,8262 6806,7913 6357,8262 6334,8280 6311,8262 5861,7913 5412,8262 5389,8280 5366,8262 4917,7913 4468,8262 4445,8280 4421,8262 3972,7913 3523,8262 "/>
     <polygon class="fil1" points="3500,8490 3477,8472 3028,8123 2579,8472 2555,8490 2532,8472 2083,8123 1634,8472 1611,8490 1588,8472 1139,8123 689,8472 666,8490 643,8472 194,8123 -255,8472 -278,8490 -301,8472 -750,8123 -1181,8458 -1200,8472 -1223,8395 -773,8046 -750,8028 -727,8046 -278,8395 171,8046 194,8028 217,8046 666,8395 1116,8046 1139,8028 1162,8046 1611,8395 2060,8046 2083,8028 2106,8046 2555,8395 3005,8046 3028,8028 3051,8046 3500,8395 3949,8046 3972,8028 3995,8046 4445,8395 4894,8046 4917,8028 4940,8046 5389,8395 5838,8046 5861,8028 5884,8046 6334,8395 6783,8046 6806,8028 6829,8046 7278,8395 7727,8046 7750,8028 7773,8046 8223,8395 8200,8472 8181,8458 7750,8123 7301,8472 7278,8490 7255,8472 6806,8123 6357,8472 6334,8490 6311,8472 5861,8123 5412,8472 5389,8490 5366,8472 4917,8123 4468,8472 4445,8490 4421,8472 3972,8123 3523,8472 "/>
     <polygon class="fil1" points="3500,8700 3477,8682 3028,8333 2579,8682 2555,8700 2532,8682 2083,8333 1634,8682 1611,8700 1588,8682 1139,8333 689,8682 666,8700 643,8682 194,8333 -255,8682 -278,8700 -301,8682 -750,8333 -1181,8668 -1200,8682 -1223,8605 -773,8256 -750,8238 -727,8256 -278,8605 171,8256 194,8238 217,8256 666,8605 1116,8256 1139,8238 1162,8256 1611,8605 2060,8256 2083,8238 2106,8256 2555,8605 3005,8256 3028,8238 3051,8256 3500,8605 3949,8256 3972,8238 3995,8256 4445,8605 4894,8256 4917,8238 4940,8256 5389,8605 5838,8256 5861,8238 5884,8256 6334,8605 6783,8256 6806,8238 6829,8256 7278,8605 7727,8256 7750,8238 7773,8256 8223,8605 8200,8682 8181,8668 7750,8333 7301,8682 7278,8700 7255,8682 6806,8333 6357,8682 6334,8700 6311,8682 5861,8333 5412,8682 5389,8700 5366,8682 4917,8333 4468,8682 4445,8700 4421,8682 3972,8333 3523,8682 "/>
     <polygon class="fil1" points="3500,8910 3477,8892 3028,8543 2579,8892 2555,8910 2532,8892 2083,8543 1634,8892 1611,8910 1588,8892 1139,8543 689,8892 666,8910 643,8892 194,8543 -255,8892 -278,8910 -301,8892 -750,8543 -1181,8878 -1200,8892 -1223,8815 -773,8466 -750,8448 -727,8466 -278,8815 171,8466 194,8448 217,8466 666,8815 1116,8466 1139,8448 1162,8466 1611,8815 2060,8466 2083,8448 2106,8466 2555,8815 3005,8466 3028,8448 3051,8466 3500,8815 3949,8466 3972,8448 3995,8466 4445,8815 4894,8466 4917,8448 4940,8466 5389,8815 5838,8466 5861,8448 5884,8466 6334,8815 6783,8466 6806,8448 6829,8466 7278,8815 7727,8466 7750,8448 7773,8466 8223,8815 8200,8892 8181,8878 7750,8543 7301,8892 7278,8910 7255,8892 6806,8543 6357,8892 6334,8910 6311,8892 5861,8543 5412,8892 5389,8910 5366,8892 4917,8543 4468,8892 4445,8910 4421,8892 3972,8543 3523,8892 "/>
     <polygon class="fil1" points="3500,9120 3477,9102 3028,8753 2579,9102 2555,9120 2532,9102 2083,8753 1634,9102 1611,9120 1588,9102 1139,8753 689,9102 666,9120 643,9102 194,8753 -255,9102 -278,9120 -301,9102 -750,8753 -1181,9088 -1200,9102 -1223,9025 -773,8676 -750,8658 -727,8676 -278,9025 171,8676 194,8658 217,8676 666,9025 1116,8676 1139,8658 1162,8676 1611,9025 2060,8676 2083,8658 2106,8676 2555,9025 3005,8676 3028,8658 3051,8676 3500,9025 3949,8676 3972,8658 3995,8676 4445,9025 4894,8676 4917,8658 4940,8676 5389,9025 5838,8676 5861,8658 5884,8676 6334,9025 6783,8676 6806,8658 6829,8676 7278,9025 7727,8676 7750,8658 7773,8676 8223,9025 8200,9102 8181,9088 7750,8753 7301,9102 7278,9120 7255,9102 6806,8753 6357,9102 6334,9120 6311,9102 5861,8753 5412,9102 5389,9120 5366,9102 4917,8753 4468,9102 4445,9120 4421,9102 3972,8753 3523,9102 "/>
     <polygon class="fil1" points="3500,9330 3477,9312 3028,8963 2579,9312 2555,9330 2532,9312 2083,8963 1634,9312 1611,9330 1588,9312 1139,8963 689,9312 666,9330 643,9312 194,8963 -255,9312 -278,9330 -301,9312 -750,8963 -1181,9298 -1200,9312 -1223,9235 -773,8886 -750,8868 -727,8886 -278,9235 171,8886 194,8868 217,8886 666,9235 1116,8886 1139,8868 1162,8886 1611,9235 2060,8886 2083,8868 2106,8886 2555,9235 3005,8886 3028,8868 3051,8886 3500,9235 3949,8886 3972,8868 3995,8886 4445,9235 4894,8886 4917,8868 4940,8886 5389,9235 5838,8886 5861,8868 5884,8886 6334,9235 6783,8886 6806,8868 6829,8886 7278,9235 7727,8886 7750,8868 7773,8886 8223,9235 8200,9312 8181,9298 7750,8963 7301,9312 7278,9330 7255,9312 6806,8963 6357,9312 6334,9330 6311,9312 5861,8963 5412,9312 5389,9330 5366,9312 4917,8963 4468,9312 4445,9330 4421,9312 3972,8963 3523,9312 "/>
     <polygon class="fil1" points="3500,9540 3477,9522 3028,9173 2579,9522 2555,9540 2532,9522 2083,9173 1634,9522 1611,9540 1588,9522 1139,9173 689,9522 666,9540 643,9522 194,9173 -255,9522 -278,9540 -301,9522 -750,9173 -1181,9508 -1200,9522 -1223,9445 -773,9096 -750,9078 -727,9096 -278,9445 171,9096 194,9078 217,9096 666,9445 1116,9096 1139,9078 1162,9096 1611,9445 2060,9096 2083,9078 2106,9096 2555,9445 3005,9096 3028,9078 3051,9096 3500,9445 3949,9096 3972,9078 3995,9096 4445,9445 4894,9096 4917,9078 4940,9096 5389,9445 5838,9096 5861,9078 5884,9096 6334,9445 6783,9096 6806,9078 6829,9096 7278,9445 7727,9096 7750,9078 7773,9096 8223,9445 8200,9522 8181,9508 7750,9173 7301,9522 7278,9540 7255,9522 6806,9173 6357,9522 6334,9540 6311,9522 5861,9173 5412,9522 5389,9540 5366,9522 4917,9173 4468,9522 4445,9540 4421,9522 3972,9173 3523,9522 "/>
     <polygon class="fil1" points="3500,9750 3477,9732 3028,9383 2579,9732 2555,9750 2532,9732 2083,9383 1634,9732 1611,9750 1588,9732 1139,9383 689,9732 666,9750 643,9732 194,9383 -255,9732 -278,9750 -301,9732 -750,9383 -1181,9717 -1200,9732 -1223,9655 -773,9306 -750,9288 -727,9306 -278,9655 171,9306 194,9288 217,9306 666,9655 1116,9306 1139,9288 1162,9306 1611,9655 2060,9306 2083,9288 2106,9306 2555,9655 3005,9306 3028,9288 3051,9306 3500,9655 3949,9306 3972,9288 3995,9306 4445,9655 4894,9306 4917,9288 4940,9306 5389,9655 5838,9306 5861,9288 5884,9306 6334,9655 6783,9306 6806,9288 6829,9306 7278,9655 7727,9306 7750,9288 7773,9306 8223,9655 8200,9732 8181,9717 7750,9383 7301,9732 7278,9750 7255,9732 6806,9383 6357,9732 6334,9750 6311,9732 5861,9383 5412,9732 5389,9750 5366,9732 4917,9383 4468,9732 4445,9750 4421,9732 3972,9383 3523,9732 "/>
     <polygon class="fil1" points="3500,9960 3477,9942 3028,9593 2579,9942 2555,9960 2532,9942 2083,9593 1634,9942 1611,9960 1588,9942 1139,9593 689,9942 666,9960 643,9942 194,9593 -255,9942 -278,9960 -301,9942 -750,9593 -1181,9927 -1200,9942 -1223,9865 -773,9516 -750,9498 -727,9516 -278,9865 171,9516 194,9498 217,9516 666,9865 1116,9516 1139,9498 1162,9516 1611,9865 2060,9516 2083,9498 2106,9516 2555,9865 3005,9516 3028,9498 3051,9516 3500,9865 3949,9516 3972,9498 3995,9516 4445,9865 4894,9516 4917,9498 4940,9516 5389,9865 5838,9516 5861,9498 5884,9516 6334,9865 6783,9516 6806,9498 6829,9516 7278,9865 7727,9516 7750,9498 7773,9516 8223,9865 8200,9942 8181,9927 7750,9593 7301,9942 7278,9960 7255,9942 6806,9593 6357,9942 6334,9960 6311,9942 5861,9593 5412,9942 5389,9960 5366,9942 4917,9593 4468,9942 4445,9960 4421,9942 3972,9593 3523,9942 "/>
     <polygon class="fil1" points="3500,10170 3477,10152 3028,9803 2579,10152 2555,10170 2532,10152 2083,9803 1634,10152 1611,10170 1588,10152 1139,9803 689,10152 666,10170 643,10152 194,9803 -255,10152 -278,10170 -301,10152 -750,9803 -1181,10137 -1200,10152 -1223,10075 -773,9726 -750,9708 -727,9726 -278,10075 171,9726 194,9708 217,9726 666,10075 1116,9726 1139,9708 1162,9726 1611,10075 2060,9726 2083,9708 2106,9726 2555,10075 3005,9726 3028,9708 3051,9726 3500,10075 3949,9726 3972,9708 3995,9726 4445,10075 4894,9726 4917,9708 4940,9726 5389,10075 5838,9726 5861,9708 5884,9726 6334,10075 6783,9726 6806,9708 6829,9726 7278,10075 7727,9726 7750,9708 7773,9726 8223,10075 8200,10152 8181,10137 7750,9803 7301,10152 7278,10170 7255,10152 6806,9803 6357,10152 6334,10170 6311,10152 5861,9803 5412,10152 5389,10170 5366,10152 4917,9803 4468,10152 4445,10170 4421,10152 3972,9803 3523,10152 "/>
     <polygon class="fil1" points="3500,10380 3477,10362 3028,10013 2579,10362 2555,10380 2532,10362 2083,10013 1634,10362 1611,10380 1588,10362 1139,10013 689,10362 666,10380 643,10362 194,10013 -255,10362 -278,10380 -301,10362 -750,10013 -1181,10347 -1200,10362 -1223,10285 -773,9936 -750,9918 -727,9936 -278,10285 171,9936 194,9918 217,9936 666,10285 1116,9936 1139,9918 1162,9936 1611,10285 2060,9936 2083,9918 2106,9936 2555,10285 3005,9936 3028,9918 3051,9936 3500,10285 3949,9936 3972,9918 3995,9936 4445,10285 4894,9936 4917,9918 4940,9936 5389,10285 5838,9936 5861,9918 5884,9936 6334,10285 6783,9936 6806,9918 6829,9936 7278,10285 7727,9936 7750,9918 7773,9936 8223,10285 8200,10362 8181,10347 7750,10013 7301,10362 7278,10380 7255,10362 6806,10013 6357,10362 6334,10380 6311,10362 5861,10013 5412,10362 5389,10380 5366,10362 4917,10013 4468,10362 4445,10380 4421,10362 3972,10013 3523,10362 "/>
     <polygon class="fil1" points="3500,10590 3477,10572 3028,10223 2579,10572 2555,10590 2532,10572 2083,10223 1634,10572 1611,10590 1588,10572 1139,10223 689,10572 666,10590 643,10572 194,10223 -255,10572 -278,10590 -301,10572 -750,10223 -1181,10557 -1200,10572 -1223,10495 -773,10146 -750,10128 -727,10146 -278,10495 171,10146 194,10128 217,10146 666,10495 1116,10146 1139,10128 1162,10146 1611,10495 2060,10146 2083,10128 2106,10146 2555,10495 3005,10146 3028,10128 3051,10146 3500,10495 3949,10146 3972,10128 3995,10146 4445,10495 4894,10146 4917,10128 4940,10146 5389,10495 5838,10146 5861,10128 5884,10146 6334,10495 6783,10146 6806,10128 6829,10146 7278,10495 7727,10146 7750,10128 7773,10146 8223,10495 8200,10572 8181,10557 7750,10223 7301,10572 7278,10590 7255,10572 6806,10223 6357,10572 6334,10590 6311,10572 5861,10223 5412,10572 5389,10590 5366,10572 4917,10223 4468,10572 4445,10590 4421,10572 3972,10223 3523,10572 "/>
     <polygon class="fil1" points="3500,10800 3477,10782 3028,10433 2579,10782 2555,10800 2532,10782 2083,10433 1634,10782 1611,10800 1588,10782 1139,10433 689,10782 666,10800 643,10782 194,10433 -255,10782 -278,10800 -301,10782 -750,10433 -1181,10767 -1200,10782 -1223,10705 -773,10356 -750,10338 -727,10356 -278,10705 171,10356 194,10338 217,10356 666,10705 1116,10356 1139,10338 1162,10356 1611,10705 2060,10356 2083,10338 2106,10356 2555,10705 3005,10356 3028,10338 3051,10356 3500,10705 3949,10356 3972,10338 3995,10356 4445,10705 4894,10356 4917,10338 4940,10356 5389,10705 5838,10356 5861,10338 5884,10356 6334,10705 6783,10356 6806,10338 6829,10356 7278,10705 7727,10356 7750,10338 7773,10356 8223,10705 8200,10782 8181,10767 7750,10433 7301,10782 7278,10800 7255,10782 6806,10433 6357,10782 6334,10800 6311,10782 5861,10433 5412,10782 5389,10800 5366,10782 4917,10433 4468,10782 4445,10800 4421,10782 3972,10433 3523,10782 "/>
     <polygon class="fil1" points="3500,11010 3477,10992 3028,10643 2579,10992 2555,11010 2532,10992 2083,10643 1634,10992 1611,11010 1588,10992 1139,10643 689,10992 666,11010 643,10992 194,10643 -255,10992 -278,11010 -301,10992 -750,10643 -1181,10977 -1200,10992 -1223,10914 -773,10566 -750,10548 -727,10566 -278,10914 171,10566 194,10548 217,10566 666,10914 1116,10566 1139,10548 1162,10566 1611,10914 2060,10566 2083,10548 2106,10566 2555,10914 3005,10566 3028,10548 3051,10566 3500,10914 3949,10566 3972,10548 3995,10566 4445,10914 4894,10566 4917,10548 4940,10566 5389,10914 5838,10566 5861,10548 5884,10566 6334,10914 6783,10566 6806,10548 6829,10566 7278,10914 7727,10566 7750,10548 7773,10566 8223,10914 8200,10992 8181,10977 7750,10643 7301,10992 7278,11010 7255,10992 6806,10643 6357,10992 6334,11010 6311,10992 5861,10643 5412,10992 5389,11010 5366,10992 4917,10643 4468,10992 4445,11010 4421,10992 3972,10643 3523,10992 "/>
     <polygon class="fil1" points="3500,11220 3477,11202 3028,10853 2579,11202 2555,11220 2532,11202 2083,10853 1634,11202 1611,11220 1588,11202 1139,10853 689,11202 666,11220 643,11202 194,10853 -255,11202 -278,11220 -301,11202 -750,10853 -1181,11187 -1200,11202 -1223,11124 -773,10776 -750,10758 -727,10776 -278,11124 171,10776 194,10758 217,10776 666,11124 1116,10776 1139,10758 1162,10776 1611,11124 2060,10776 2083,10758 2106,10776 2555,11124 3005,10776 3028,10758 3051,10776 3500,11124 3949,10776 3972,10758 3995,10776 4445,11124 4894,10776 4917,10758 4940,10776 5389,11124 5838,10776 5861,10758 5884,10776 6334,11124 6783,10776 6806,10758 6829,10776 7278,11124 7727,10776 7750,10758 7773,10776 8223,11124 8200,11202 8181,11187 7750,10853 7301,11202 7278,11220 7255,11202 6806,10853 6357,11202 6334,11220 6311,11202 5861,10853 5412,11202 5389,11220 5366,11202 4917,10853 4468,11202 4445,11220 4421,11202 3972,10853 3523,11202 "/>
     <polygon class="fil1" points="3500,11430 3477,11412 3028,11063 2579,11412 2555,11430 2532,11412 2083,11063 1634,11412 1611,11430 1588,11412 1139,11063 689,11412 666,11430 643,11412 194,11063 -255,11412 -278,11430 -301,11412 -750,11063 -1181,11397 -1200,11412 -1223,11334 -773,10986 -750,10968 -727,10986 -278,11334 171,10986 194,10968 217,10986 666,11334 1116,10986 1139,10968 1162,10986 1611,11334 2060,10986 2083,10968 2106,10986 2555,11334 3005,10986 3028,10968 3051,10986 3500,11334 3949,10986 3972,10968 3995,10986 4445,11334 4894,10986 4917,10968 4940,10986 5389,11334 5838,10986 5861,10968 5884,10986 6334,11334 6783,10986 6806,10968 6829,10986 7278,11334 7727,10986 7750,10968 7773,10986 8223,11334 8200,11412 8181,11397 7750,11063 7301,11412 7278,11430 7255,11412 6806,11063 6357,11412 6334,11430 6311,11412 5861,11063 5412,11412 5389,11430 5366,11412 4917,11063 4468,11412 4445,11430 4421,11412 3972,11063 3523,11412 "/>
     <polygon class="fil1" points="3500,11640 3477,11622 3028,11273 2579,11622 2555,11640 2532,11622 2083,11273 1634,11622 1611,11640 1588,11622 1139,11273 689,11622 666,11640 643,11622 194,11273 -255,11622 -278,11640 -301,11622 -750,11273 -1181,11607 -1200,11622 -1223,11544 -773,11196 -750,11178 -727,11196 -278,11544 171,11196 194,11178 217,11196 666,11544 1116,11196 1139,11178 1162,11196 1611,11544 2060,11196 2083,11178 2106,11196 2555,11544 3005,11196 3028,11178 3051,11196 3500,11544 3949,11196 3972,11178 3995,11196 4445,11544 4894,11196 4917,11178 4940,11196 5389,11544 5838,11196 5861,11178 5884,11196 6334,11544 6783,11196 6806,11178 6829,11196 7278,11544 7727,11196 7750,11178 7773,11196 8223,11544 8200,11622 8181,11607 7750,11273 7301,11622 7278,11640 7255,11622 6806,11273 6357,11622 6334,11640 6311,11622 5861,11273 5412,11622 5389,11640 5366,11622 4917,11273 4468,11622 4445,11640 4421,11622 3972,11273 3523,11622 "/>
     <polygon class="fil1" points="3500,11850 3477,11832 3028,11483 2579,11832 2555,11850 2532,11832 2083,11483 1634,11832 1611,11850 1588,11832 1139,11483 689,11832 666,11850 643,11832 194,11483 -255,11832 -278,11850 -301,11832 -750,11483 -1181,11817 -1200,11832 -1223,11754 -773,11406 -750,11388 -727,11406 -278,11754 171,11406 194,11388 217,11406 666,11754 1116,11406 1139,11388 1162,11406 1611,11754 2060,11406 2083,11388 2106,11406 2555,11754 3005,11406 3028,11388 3051,11406 3500,11754 3949,11406 3972,11388 3995,11406 4445,11754 4894,11406 4917,11388 4940,11406 5389,11754 5838,11406 5861,11388 5884,11406 6334,11754 6783,11406 6806,11388 6829,11406 7278,11754 7727,11406 7750,11388 7773,11406 8223,11754 8200,11832 8181,11817 7750,11483 7301,11832 7278,11850 7255,11832 6806,11483 6357,11832 6334,11850 6311,11832 5861,11483 5412,11832 5389,11850 5366,11832 4917,11483 4468,11832 4445,11850 4421,11832 3972,11483 3523,11832 "/>
     <polygon class="fil1" points="3500,12060 3477,12042 3028,11693 2579,12042 2555,12060 2532,12042 2083,11693 1634,12042 1611,12060 1588,12042 1139,11693 689,12042 666,12060 643,12042 194,11693 -255,12042 -278,12060 -301,12042 -750,11693 -1181,12027 -1200,12042 -1223,11964 -773,11616 -750,11598 -727,11616 -278,11964 171,11616 194,11598 217,11616 666,11964 1116,11616 1139,11598 1162,11616 1611,11964 2060,11616 2083,11598 2106,11616 2555,11964 3005,11616 3028,11598 3051,11616 3500,11964 3949,11616 3972,11598 3995,11616 4445,11964 4894,11616 4917,11598 4940,11616 5389,11964 5838,11616 5861,11598 5884,11616 6334,11964 6783,11616 6806,11598 6829,11616 7278,11964 7727,11616 7750,11598 7773,11616 8223,11964 8200,12042 8181,12027 7750,11693 7301,12042 7278,12060 7255,12042 6806,11693 6357,12042 6334,12060 6311,12042 5861,11693 5412,12042 5389,12060 5366,12042 4917,11693 4468,12042 4445,12060 4421,12042 3972,11693 3523,12042 "/>
     <polygon class="fil1" points="3500,12270 3477,12252 3028,11903 2579,12252 2555,12270 2532,12252 2083,11903 1634,12252 1611,12270 1588,12252 1139,11903 689,12252 666,12270 643,12252 194,11903 -255,12252 -278,12270 -301,12252 -750,11903 -1181,12237 -1200,12252 -1223,12174 -773,11826 -750,11808 -727,11826 -278,12174 171,11826 194,11808 217,11826 666,12174 1116,11826 1139,11808 1162,11826 1611,12174 2060,11826 2083,11808 2106,11826 2555,12174 3005,11826 3028,11808 3051,11826 3500,12174 3949,11826 3972,11808 3995,11826 4445,12174 4894,11826 4917,11808 4940,11826 5389,12174 5838,11826 5861,11808 5884,11826 6334,12174 6783,11826 6806,11808 6829,11826 7278,12174 7727,11826 7750,11808 7773,11826 8223,12174 8200,12252 8181,12237 7750,11903 7301,12252 7278,12270 7255,12252 6806,11903 6357,12252 6334,12270 6311,12252 5861,11903 5412,12252 5389,12270 5366,12252 4917,11903 4468,12252 4445,12270 4421,12252 3972,11903 3523,12252 "/>
     <polygon class="fil1" points="3500,12480 3477,12462 3028,12113 2579,12462 2555,12480 2532,12462 2083,12113 1634,12462 1611,12480 1588,12462 1139,12113 689,12462 666,12480 643,12462 194,12113 -255,12462 -278,12480 -301,12462 -750,12113 -1181,12447 -1200,12462 -1223,12384 -773,12036 -750,12018 -727,12036 -278,12384 171,12036 194,12018 217,12036 666,12384 1116,12036 1139,12018 1162,12036 1611,12384 2060,12036 2083,12018 2106,12036 2555,12384 3005,12036 3028,12018 3051,12036 3500,12384 3949,12036 3972,12018 3995,12036 4445,12384 4894,12036 4917,12018 4940,12036 5389,12384 5838,12036 5861,12018 5884,12036 6334,12384 6783,12036 6806,12018 6829,12036 7278,12384 7727,12036 7750,12018 7773,12036 8223,12384 8200,12462 8181,12447 7750,12113 7301,12462 7278,12480 7255,12462 6806,12113 6357,12462 6334,12480 6311,12462 5861,12113 5412,12462 5389,12480 5366,12462 4917,12113 4468,12462 4445,12480 4421,12462 3972,12113 3523,12462 "/>
     <polygon class="fil1" points="3500,12690 3477,12672 3028,12323 2579,12672 2555,12690 2532,12672 2083,12323 1634,12672 1611,12690 1588,12672 1139,12323 689,12672 666,12690 643,12672 194,12323 -255,12672 -278,12690 -301,12672 -750,12323 -1181,12657 -1200,12672 -1223,12594 -773,12246 -750,12228 -727,12246 -278,12594 171,12246 194,12228 217,12246 666,12594 1116,12246 1139,12228 1162,12246 1611,12594 2060,12246 2083,12228 2106,12246 2555,12594 3005,12246 3028,12228 3051,12246 3500,12594 3949,12246 3972,12228 3995,12246 4445,12594 4894,12246 4917,12228 4940,12246 5389,12594 5838,12246 5861,12228 5884,12246 6334,12594 6783,12246 6806,12228 6829,12246 7278,12594 7727,12246 7750,12228 7773,12246 8223,12594 8200,12672 8181,12657 7750,12323 7301,12672 7278,12690 7255,12672 6806,12323 6357,12672 6334,12690 6311,12672 5861,12323 5412,12672 5389,12690 5366,12672 4917,12323 4468,12672 4445,12690 4421,12672 3972,12323 3523,12672 "/>
     <polygon class="fil1" points="3500,12899 3477,12882 3028,12533 2579,12882 2555,12899 2532,12882 2083,12533 1634,12882 1611,12899 1588,12882 1139,12533 689,12882 666,12899 643,12882 194,12533 -255,12882 -278,12899 -301,12882 -750,12533 -1181,12867 -1200,12882 -1223,12804 -773,12456 -750,12438 -727,12456 -278,12804 171,12456 194,12438 217,12456 666,12804 1116,12456 1139,12438 1162,12456 1611,12804 2060,12456 2083,12438 2106,12456 2555,12804 3005,12456 3028,12438 3051,12456 3500,12804 3949,12456 3972,12438 3995,12456 4445,12804 4894,12456 4917,12438 4940,12456 5389,12804 5838,12456 5861,12438 5884,12456 6334,12804 6783,12456 6806,12438 6829,12456 7278,12804 7727,12456 7750,12438 7773,12456 8223,12804 8200,12882 8181,12867 7750,12533 7301,12882 7278,12899 7255,12882 6806,12533 6357,12882 6334,12899 6311,12882 5861,12533 5412,12882 5389,12899 5366,12882 4917,12533 4468,12882 4445,12899 4421,12882 3972,12533 3523,12882 "/>
     <polygon class="fil1" points="3500,13109 3477,13092 3028,12743 2579,13092 2555,13109 2532,13092 2083,12743 1634,13092 1611,13109 1588,13092 1139,12743 689,13092 666,13109 643,13092 194,12743 -255,13092 -278,13109 -301,13092 -750,12743 -1181,13077 -1200,13092 -1223,13014 -773,12666 -750,12648 -727,12666 -278,13014 171,12666 194,12648 217,12666 666,13014 1116,12666 1139,12648 1162,12666 1611,13014 2060,12666 2083,12648 2106,12666 2555,13014 3005,12666 3028,12648 3051,12666 3500,13014 3949,12666 3972,12648 3995,12666 4445,13014 4894,12666 4917,12648 4940,12666 5389,13014 5838,12666 5861,12648 5884,12666 6334,13014 6783,12666 6806,12648 6829,12666 7278,13014 7727,12666 7750,12648 7773,12666 8223,13014 8200,13092 8181,13077 7750,12743 7301,13092 7278,13109 7255,13092 6806,12743 6357,13092 6334,13109 6311,13092 5861,12743 5412,13092 5389,13109 5366,13092 4917,12743 4468,13092 4445,13109 4421,13092 3972,12743 3523,13092 "/>
     <polygon class="fil1" points="3500,13319 3477,13302 3028,12953 2579,13302 2555,13319 2532,13302 2083,12953 1634,13302 1611,13319 1588,13302 1139,12953 689,13302 666,13319 643,13302 194,12953 -255,13302 -278,13319 -301,13302 -750,12953 -1181,13287 -1200,13302 -1223,13224 -773,12876 -750,12858 -727,12876 -278,13224 171,12876 194,12858 217,12876 666,13224 1116,12876 1139,12858 1162,12876 1611,13224 2060,12876 2083,12858 2106,12876 2555,13224 3005,12876 3028,12858 3051,12876 3500,13224 3949,12876 3972,12858 3995,12876 4445,13224 4894,12876 4917,12858 4940,12876 5389,13224 5838,12876 5861,12858 5884,12876 6334,13224 6783,12876 6806,12858 6829,12876 7278,13224 7727,12876 7750,12858 7773,12876 8223,13224 8200,13302 8181,13287 7750,12953 7301,13302 7278,13319 7255,13302 6806,12953 6357,13302 6334,13319 6311,13302 5861,12953 5412,13302 5389,13319 5366,13302 4917,12953 4468,13302 4445,13319 4421,13302 3972,12953 3523,13302 "/>
     <polygon class="fil1" points="3500,13529 3477,13512 3028,13163 2579,13512 2555,13529 2532,13512 2083,13163 1634,13512 1611,13529 1588,13512 1139,13163 689,13512 666,13529 643,13512 194,13163 -255,13512 -278,13529 -301,13512 -750,13163 -1181,13497 -1200,13512 -1223,13434 -773,13086 -750,13068 -727,13086 -278,13434 171,13086 194,13068 217,13086 666,13434 1116,13086 1139,13068 1162,13086 1611,13434 2060,13086 2083,13068 2106,13086 2555,13434 3005,13086 3028,13068 3051,13086 3500,13434 3949,13086 3972,13068 3995,13086 4445,13434 4894,13086 4917,13068 4940,13086 5389,13434 5838,13086 5861,13068 5884,13086 6334,13434 6783,13086 6806,13068 6829,13086 7278,13434 7727,13086 7750,13068 7773,13086 8223,13434 8200,13512 8181,13497 7750,13163 7301,13512 7278,13529 7255,13512 6806,13163 6357,13512 6334,13529 6311,13512 5861,13163 5412,13512 5389,13529 5366,13512 4917,13163 4468,13512 4445,13529 4421,13512 3972,13163 3523,13512 "/>
     <polygon class="fil1" points="3500,13739 3477,13722 3028,13373 2579,13722 2555,13739 2532,13722 2083,13373 1634,13722 1611,13739 1588,13722 1139,13373 689,13722 666,13739 643,13722 194,13373 -255,13722 -278,13739 -301,13722 -750,13373 -1181,13707 -1200,13722 -1223,13644 -773,13296 -750,13278 -727,13296 -278,13644 171,13296 194,13278 217,13296 666,13644 1116,13296 1139,13278 1162,13296 1611,13644 2060,13296 2083,13278 2106,13296 2555,13644 3005,13296 3028,13278 3051,13296 3500,13644 3949,13296 3972,13278 3995,13296 4445,13644 4894,13296 4917,13278 4940,13296 5389,13644 5838,13296 5861,13278 5884,13296 6334,13644 6783,13296 6806,13278 6829,13296 7278,13644 7727,13296 7750,13278 7773,13296 8223,13644 8200,13722 8181,13707 7750,13373 7301,13722 7278,13739 7255,13722 6806,13373 6357,13722 6334,13739 6311,13722 5861,13373 5412,13722 5389,13739 5366,13722 4917,13373 4468,13722 4445,13739 4421,13722 3972,13373 3523,13722 "/>
     <polygon class="fil1" points="3500,13949 3477,13932 3028,13583 2579,13932 2555,13949 2532,13932 2083,13583 1634,13932 1611,13949 1588,13932 1139,13583 689,13932 666,13949 643,13932 194,13583 -255,13932 -278,13949 -301,13932 -750,13583 -1181,13917 -1200,13932 -1223,13854 -773,13506 -750,13488 -727,13506 -278,13854 171,13506 194,13488 217,13506 666,13854 1116,13506 1139,13488 1162,13506 1611,13854 2060,13506 2083,13488 2106,13506 2555,13854 3005,13506 3028,13488 3051,13506 3500,13854 3949,13506 3972,13488 3995,13506 4445,13854 4894,13506 4917,13488 4940,13506 5389,13854 5838,13506 5861,13488 5884,13506 6334,13854 6783,13506 6806,13488 6829,13506 7278,13854 7727,13506 7750,13488 7773,13506 8223,13854 8200,13932 8181,13917 7750,13583 7301,13932 7278,13949 7255,13932 6806,13583 6357,13932 6334,13949 6311,13932 5861,13583 5412,13932 5389,13949 5366,13932 4917,13583 4468,13932 4445,13949 4421,13932 3972,13583 3523,13932 "/>
     <polygon class="fil1" points="3500,14159 3477,14141 3028,13793 2579,14141 2555,14159 2532,14141 2083,13793 1634,14141 1611,14159 1588,14141 1139,13793 689,14141 666,14159 643,14141 194,13793 -255,14141 -278,14159 -301,14141 -750,13793 -1181,14127 -1200,14141 -1223,14064 -773,13716 -750,13698 -727,13716 -278,14064 171,13716 194,13698 217,13716 666,14064 1116,13716 1139,13698 1162,13716 1611,14064 2060,13716 2083,13698 2106,13716 2555,14064 3005,13716 3028,13698 3051,13716 3500,14064 3949,13716 3972,13698 3995,13716 4445,14064 4894,13716 4917,13698 4940,13716 5389,14064 5838,13716 5861,13698 5884,13716 6334,14064 6783,13716 6806,13698 6829,13716 7278,14064 7727,13716 7750,13698 7773,13716 8223,14064 8200,14141 8181,14127 7750,13793 7301,14141 7278,14159 7255,14141 6806,13793 6357,14141 6334,14159 6311,14141 5861,13793 5412,14141 5389,14159 5366,14141 4917,13793 4468,14141 4445,14159 4421,14141 3972,13793 3523,14141 "/>
     <polygon class="fil1" points="3500,14369 3477,14351 3028,14003 2579,14351 2555,14369 2532,14351 2083,14003 1634,14351 1611,14369 1588,14351 1139,14003 689,14351 666,14369 643,14351 194,14003 -255,14351 -278,14369 -301,14351 -750,14003 -1181,14337 -1200,14351 -1223,14274 -773,13926 -750,13908 -727,13926 -278,14274 171,13926 194,13908 217,13926 666,14274 1116,13926 1139,13908 1162,13926 1611,14274 2060,13926 2083,13908 2106,13926 2555,14274 3005,13926 3028,13908 3051,13926 3500,14274 3949,13926 3972,13908 3995,13926 4445,14274 4894,13926 4917,13908 4940,13926 5389,14274 5838,13926 5861,13908 5884,13926 6334,14274 6783,13926 6806,13908 6829,13926 7278,14274 7727,13926 7750,13908 7773,13926 8223,14274 8200,14351 8181,14337 7750,14003 7301,14351 7278,14369 7255,14351 6806,14003 6357,14351 6334,14369 6311,14351 5861,14003 5412,14351 5389,14369 5366,14351 4917,14003 4468,14351 4445,14369 4421,14351 3972,14003 3523,14351 "/>
     <polygon class="fil1" points="3500,14579 3477,14561 3028,14213 2579,14561 2555,14579 2532,14561 2083,14213 1634,14561 1611,14579 1588,14561 1139,14213 689,14561 666,14579 643,14561 194,14213 -255,14561 -278,14579 -301,14561 -750,14213 -1181,14547 -1200,14561 -1223,14484 -773,14136 -750,14118 -727,14136 -278,14484 171,14136 194,14118 217,14136 666,14484 1116,14136 1139,14118 1162,14136 1611,14484 2060,14136 2083,14118 2106,14136 2555,14484 3005,14136 3028,14118 3051,14136 3500,14484 3949,14136 3972,14118 3995,14136 4445,14484 4894,14136 4917,14118 4940,14136 5389,14484 5838,14136 5861,14118 5884,14136 6334,14484 6783,14136 6806,14118 6829,14136 7278,14484 7727,14136 7750,14118 7773,14136 8223,14484 8200,14561 8181,14547 7750,14213 7301,14561 7278,14579 7255,14561 6806,14213 6357,14561 6334,14579 6311,14561 5861,14213 5412,14561 5389,14579 5366,14561 4917,14213 4468,14561 4445,14579 4421,14561 3972,14213 3523,14561 "/>
     <polygon class="fil1" points="3500,14789 3477,14771 3028,14423 2579,14771 2555,14789 2532,14771 2083,14423 1634,14771 1611,14789 1588,14771 1139,14423 689,14771 666,14789 643,14771 194,14423 -255,14771 -278,14789 -301,14771 -750,14423 -1181,14757 -1200,14771 -1223,14694 -773,14345 -750,14328 -727,14345 -278,14694 171,14345 194,14328 217,14345 666,14694 1116,14345 1139,14328 1162,14345 1611,14694 2060,14345 2083,14328 2106,14345 2555,14694 3005,14345 3028,14328 3051,14345 3500,14694 3949,14345 3972,14328 3995,14345 4445,14694 4894,14345 4917,14328 4940,14345 5389,14694 5838,14345 5861,14328 5884,14345 6334,14694 6783,14345 6806,14328 6829,14345 7278,14694 7727,14345 7750,14328 7773,14345 8223,14694 8200,14771 8181,14757 7750,14423 7301,14771 7278,14789 7255,14771 6806,14423 6357,14771 6334,14789 6311,14771 5861,14423 5412,14771 5389,14789 5366,14771 4917,14423 4468,14771 4445,14789 4421,14771 3972,14423 3523,14771 "/>
     <polygon class="fil1" points="3500,14999 3477,14981 3028,14633 2579,14981 2555,14999 2532,14981 2083,14633 1634,14981 1611,14999 1588,14981 1139,14633 689,14981 666,14999 643,14981 194,14633 -255,14981 -278,14999 -301,14981 -750,14633 -1181,14967 -1200,14981 -1223,14904 -773,14555 -750,14538 -727,14555 -278,14904 171,14555 194,14538 217,14555 666,14904 1116,14555 1139,14538 1162,14555 1611,14904 2060,14555 2083,14538 2106,14555 2555,14904 3005,14555 3028,14538 3051,14555 3500,14904 3949,14555 3972,14538 3995,14555 4445,14904 4894,14555 4917,14538 4940,14555 5389,14904 5838,14555 5861,14538 5884,14555 6334,14904 6783,14555 6806,14538 6829,14555 7278,14904 7727,14555 7750,14538 7773,14555 8223,14904 8200,14981 8181,14967 7750,14633 7301,14981 7278,14999 7255,14981 6806,14633 6357,14981 6334,14999 6311,14981 5861,14633 5412,14981 5389,14999 5366,14981 4917,14633 4468,14981 4445,14999 4421,14981 3972,14633 3523,14981 "/>
     <polygon class="fil1" points="3500,15209 3477,15191 3028,14843 2579,15191 2555,15209 2532,15191 2083,14843 1634,15191 1611,15209 1588,15191 1139,14843 689,15191 666,15209 643,15191 194,14843 -255,15191 -278,15209 -301,15191 -750,14843 -1181,15177 -1200,15191 -1223,15114 -773,14765 -750,14748 -727,14765 -278,15114 171,14765 194,14748 217,14765 666,15114 1116,14765 1139,14748 1162,14765 1611,15114 2060,14765 2083,14748 2106,14765 2555,15114 3005,14765 3028,14748 3051,14765 3500,15114 3949,14765 3972,14748 3995,14765 4445,15114 4894,14765 4917,14748 4940,14765 5389,15114 5838,14765 5861,14748 5884,14765 6334,15114 6783,14765 6806,14748 6829,14765 7278,15114 7727,14765 7750,14748 7773,14765 8223,15114 8200,15191 8181,15177 7750,14843 7301,15191 7278,15209 7255,15191 6806,14843 6357,15191 6334,15209 6311,15191 5861,14843 5412,15191 5389,15209 5366,15191 4917,14843 4468,15191 4445,15209 4421,15191 3972,14843 3523,15191 "/>
     <polygon class="fil1" points="3500,15419 3477,15401 3028,15053 2579,15401 2555,15419 2532,15401 2083,15053 1634,15401 1611,15419 1588,15401 1139,15053 689,15401 666,15419 643,15401 194,15053 -255,15401 -278,15419 -301,15401 -750,15053 -1181,15387 -1200,15401 -1223,15324 -773,14975 -750,14958 -727,14975 -278,15324 171,14975 194,14958 217,14975 666,15324 1116,14975 1139,14958 1162,14975 1611,15324 2060,14975 2083,14958 2106,14975 2555,15324 3005,14975 3028,14958 3051,14975 3500,15324 3949,14975 3972,14958 3995,14975 4445,15324 4894,14975 4917,14958 4940,14975 5389,15324 5838,14975 5861,14958 5884,14975 6334,15324 6783,14975 6806,14958 6829,14975 7278,15324 7727,14975 7750,14958 7773,14975 8223,15324 8200,15401 8181,15387 7750,15053 7301,15401 7278,15419 7255,15401 6806,15053 6357,15401 6334,15419 6311,15401 5861,15053 5412,15401 5389,15419 5366,15401 4917,15053 4468,15401 4445,15419 4421,15401 3972,15053 3523,15401 "/>
     <polygon class="fil1" points="3500,15629 3477,15611 3028,15263 2579,15611 2555,15629 2532,15611 2083,15263 1634,15611 1611,15629 1588,15611 1139,15263 689,15611 666,15629 643,15611 194,15263 -255,15611 -278,15629 -301,15611 -750,15263 -1181,15597 -1200,15611 -1223,15534 -773,15185 -750,15168 -727,15185 -278,15534 171,15185 194,15168 217,15185 666,15534 1116,15185 1139,15168 1162,15185 1611,15534 2060,15185 2083,15168 2106,15185 2555,15534 3005,15185 3028,15168 3051,15185 3500,15534 3949,15185 3972,15168 3995,15185 4445,15534 4894,15185 4917,15168 4940,15185 5389,15534 5838,15185 5861,15168 5884,15185 6334,15534 6783,15185 6806,15168 6829,15185 7278,15534 7727,15185 7750,15168 7773,15185 8223,15534 8200,15611 8181,15597 7750,15263 7301,15611 7278,15629 7255,15611 6806,15263 6357,15611 6334,15629 6311,15611 5861,15263 5412,15611 5389,15629 5366,15611 4917,15263 4468,15611 4445,15629 4421,15611 3972,15263 3523,15611 "/>
    </g>
   </g>
  </g>
  <polygon class="fil2" points="0,0 7000,0 7000,15000 0,15000 "/>
 </g>
</svg>
