<?xml version="1.0" encoding="UTF-8"?>
<!DOCTYPE svg PUBLIC "-//W3C//DTD SVG 1.1//EN" "http://www.w3.org/Graphics/SVG/1.1/DTD/svg11.dtd">
<!-- Creator: CorelDRAW X6 -->
<svg xmlns="http://www.w3.org/2000/svg" xml:space="preserve" width="70mm" height="150mm" version="1.1" style="shape-rendering:geometricPrecision; text-rendering:geometricPrecision; image-rendering:optimizeQuality; fill-rule:evenodd; clip-rule:evenodd"
viewBox="0 0 5747 12315"
 xmlns:xlink="http://www.w3.org/1999/xlink">
 <defs>
  <style type="text/css">
   <![CDATA[
    .fil1 {fill:none}
    .fil0 {fill:#E3C6C6}
   ]]>
  </style>
   <clipPath id="id0">
    <path d="M0 0l5747 0 0 12315 -5747 0 0 -12315z"/>
   </clipPath>
 </defs>
 <g id="Layer_x0020_1">
  <metadata id="CorelCorpID_0Corel-Layer"/>
  <g>
  </g>
  <g style="clip-path:url(#id0)">
   <g>
    <g id="_429170960">
     <polygon class="fil0" points="2873,-98 2854,-113 2486,-399 2117,-113 2098,-98 2079,-113 1710,-399 1341,-113 1323,-98 1304,-113 935,-399 566,-113 547,-98 528,-113 159,-399 -209,-113 -228,-98 -247,-113 -616,-399 -970,-124 -985,-113 -1004,-176 -635,-462 -616,-477 -597,-462 -228,-176 140,-462 159,-477 178,-462 547,-176 916,-462 935,-477 954,-462 1323,-176 1691,-462 1710,-477 1729,-462 2098,-176 2467,-462 2486,-477 2505,-462 2873,-176 3242,-462 3261,-477 3280,-462 3649,-176 4018,-462 4037,-477 4055,-462 4424,-176 4793,-462 4812,-477 4831,-462 5200,-176 5568,-462 5587,-477 5606,-462 5975,-176 6344,-462 6363,-477 6382,-462 6751,-176 6732,-113 6716,-124 6363,-399 5994,-113 5975,-98 5956,-113 5587,-399 5219,-113 5200,-98 5181,-113 4812,-399 4443,-113 4424,-98 4405,-113 4037,-399 3668,-113 3649,-98 3630,-113 3261,-399 2892,-113 "/>
     <polygon class="fil0" points="2873,74 2854,60 2486,-226 2117,60 2098,74 2079,60 1710,-226 1341,60 1323,74 1304,60 935,-226 566,60 547,74 528,60 159,-226 -209,60 -228,74 -247,60 -616,-226 -970,48 -985,60 -1004,-4 -635,-290 -616,-305 -597,-290 -228,-4 140,-290 159,-305 178,-290 547,-4 916,-290 935,-305 954,-290 1323,-4 1691,-290 1710,-305 1729,-290 2098,-4 2467,-290 2486,-305 2505,-290 2873,-4 3242,-290 3261,-305 3280,-290 3649,-4 4018,-290 4037,-305 4055,-290 4424,-4 4793,-290 4812,-305 4831,-290 5200,-4 5568,-290 5587,-305 5606,-290 5975,-4 6344,-290 6363,-305 6382,-290 6751,-4 6732,60 6716,48 6363,-226 5994,60 5975,74 5956,60 5587,-226 5219,60 5200,74 5181,60 4812,-226 4443,60 4424,74 4405,60 4037,-226 3668,60 3649,74 3630,60 3261,-226 2892,60 "/>
     <polygon class="fil0" points="2873,247 2854,232 2486,-54 2117,232 2098,247 2079,232 1710,-54 1341,232 1323,247 1304,232 935,-54 566,232 547,247 528,232 159,-54 -209,232 -228,247 -247,232 -616,-54 -970,220 -985,232 -1004,169 -635,-118 -616,-132 -597,-118 -228,169 140,-118 159,-132 178,-118 547,169 916,-118 935,-132 954,-118 1323,169 1691,-118 1710,-132 1729,-118 2098,169 2467,-118 2486,-132 2505,-118 2873,169 3242,-118 3261,-132 3280,-118 3649,169 4018,-118 4037,-132 4055,-118 4424,169 4793,-118 4812,-132 4831,-118 5200,169 5568,-118 5587,-132 5606,-118 5975,169 6344,-118 6363,-132 6382,-118 6751,169 6732,232 6716,220 6363,-54 5994,232 5975,247 5956,232 5587,-54 5219,232 5200,247 5181,232 4812,-54 4443,232 4424,247 4405,232 4037,-54 3668,232 3649,247 3630,232 3261,-54 2892,232 "/>
     <polygon class="fil0" points="2873,419 2854,405 2486,118 2117,405 2098,419 2079,405 1710,118 1341,405 1323,419 1304,405 935,118 566,405 547,419 528,405 159,118 -209,405 -228,419 -247,405 -616,118 -970,393 -985,405 -1004,341 -635,55 -616,40 -597,55 -228,341 140,55 159,40 178,55 547,341 916,55 935,40 954,55 1323,341 1691,55 1710,40 1729,55 2098,341 2467,55 2486,40 2505,55 2873,341 3242,55 3261,40 3280,55 3649,341 4018,55 4037,40 4055,55 4424,341 4793,55 4812,40 4831,55 5200,341 5568,55 5587,40 5606,55 5975,341 6344,55 6363,40 6382,55 6751,341 6732,405 6716,393 6363,118 5994,405 5975,419 5956,405 5587,118 5219,405 5200,419 5181,405 4812,118 4443,405 4424,419 4405,405 4037,118 3668,405 3649,419 3630,405 3261,118 2892,405 "/>
     <polygon class="fil0" points="2873,592 2854,577 2486,291 2117,577 2098,592 2079,577 1710,291 1341,577 1323,592 1304,577 935,291 566,577 547,592 528,577 159,291 -209,577 -228,592 -247,577 -616,291 -970,565 -985,577 -1004,513 -635,227 -616,213 -597,227 -228,513 140,227 159,213 178,227 547,513 916,227 935,213 954,227 1323,513 1691,227 1710,213 1729,227 2098,513 2467,227 2486,213 2505,227 2873,513 3242,227 3261,213 3280,227 3649,513 4018,227 4037,213 4055,227 4424,513 4793,227 4812,213 4831,227 5200,513 5568,227 5587,213 5606,227 5975,513 6344,227 6363,213 6382,227 6751,513 6732,577 6716,565 6363,291 5994,577 5975,592 5956,577 5587,291 5219,577 5200,592 5181,577 4812,291 4443,577 4424,592 4405,577 4037,291 3668,577 3649,592 3630,577 3261,291 2892,577 "/>
     <polygon class="fil0" points="2873,764 2854,749 2486,463 2117,749 2098,764 2079,749 1710,463 1341,749 1323,764 1304,749 935,463 566,749 547,764 528,749 159,463 -209,749 -228,764 -247,749 -616,463 -970,737 -985,749 -1004,686 -635,400 -616,385 -597,400 -228,686 140,400 159,385 178,400 547,686 916,400 935,385 954,400 1323,686 1691,400 1710,385 1729,400 2098,686 2467,400 2486,385 2505,400 2873,686 3242,400 3261,385 3280,400 3649,686 4018,400 4037,385 4055,400 4424,686 4793,400 4812,385 4831,400 5200,686 5568,400 5587,385 5606,400 5975,686 6344,400 6363,385 6382,400 6751,686 6732,749 6716,737 6363,463 5994,749 5975,764 5956,749 5587,463 5219,749 5200,764 5181,749 4812,463 4443,749 4424,764 4405,749 4037,463 3668,749 3649,764 3630,749 3261,463 2892,749 "/>
     <polygon class="fil0" points="2873,936 2854,922 2486,635 2117,922 2098,936 2079,922 1710,635 1341,922 1323,936 1304,922 935,635 566,922 547,936 528,922 159,635 -209,922 -228,936 -247,922 -616,635 -970,910 -985,922 -1004,858 -635,572 -616,557 -597,572 -228,858 140,572 159,557 178,572 547,858 916,572 935,557 954,572 1323,858 1691,572 1710,557 1729,572 2098,858 2467,572 2486,557 2505,572 2873,858 3242,572 3261,557 3280,572 3649,858 4018,572 4037,557 4055,572 4424,858 4793,572 4812,557 4831,572 5200,858 5568,572 5587,557 5606,572 5975,858 6344,572 6363,557 6382,572 6751,858 6732,922 6716,910 6363,635 5994,922 5975,936 5956,922 5587,635 5219,922 5200,936 5181,922 4812,635 4443,922 4424,936 4405,922 4037,635 3668,922 3649,936 3630,922 3261,635 2892,922 "/>
     <polygon class="fil0" points="2873,1109 2854,1094 2486,808 2117,1094 2098,1109 2079,1094 1710,808 1341,1094 1323,1109 1304,1094 935,808 566,1094 547,1109 528,1094 159,808 -209,1094 -228,1109 -247,1094 -616,808 -970,1082 -985,1094 -1004,1031 -635,744 -616,730 -597,744 -228,1031 140,744 159,730 178,744 547,1031 916,744 935,730 954,744 1323,1031 1691,744 1710,730 1729,744 2098,1031 2467,744 2486,730 2505,744 2873,1031 3242,744 3261,730 3280,744 3649,1031 4018,744 4037,730 4055,744 4424,1031 4793,744 4812,730 4831,744 5200,1031 5568,744 5587,730 5606,744 5975,1031 6344,744 6363,730 6382,744 6751,1031 6732,1094 6716,1082 6363,808 5994,1094 5975,1109 5956,1094 5587,808 5219,1094 5200,1109 5181,1094 4812,808 4443,1094 4424,1109 4405,1094 4037,808 3668,1094 3649,1109 3630,1094 3261,808 2892,1094 "/>
     <polygon class="fil0" points="2873,1281 2854,1266 2486,980 2117,1266 2098,1281 2079,1266 1710,980 1341,1266 1323,1281 1304,1266 935,980 566,1266 547,1281 528,1266 159,980 -209,1266 -228,1281 -247,1266 -616,980 -970,1255 -985,1266 -1004,1203 -635,917 -616,902 -597,917 -228,1203 140,917 159,902 178,917 547,1203 916,917 935,902 954,917 1323,1203 1691,917 1710,902 1729,917 2098,1203 2467,917 2486,902 2505,917 2873,1203 3242,917 3261,902 3280,917 3649,1203 4018,917 4037,902 4055,917 4424,1203 4793,917 4812,902 4831,917 5200,1203 5568,917 5587,902 5606,917 5975,1203 6344,917 6363,902 6382,917 6751,1203 6732,1266 6716,1255 6363,980 5994,1266 5975,1281 5956,1266 5587,980 5219,1266 5200,1281 5181,1266 4812,980 4443,1266 4424,1281 4405,1266 4037,980 3668,1266 3649,1281 3630,1266 3261,980 2892,1266 "/>
     <polygon class="fil0" points="2873,1454 2854,1439 2486,1153 2117,1439 2098,1454 2079,1439 1710,1153 1341,1439 1323,1454 1304,1439 935,1153 566,1439 547,1454 528,1439 159,1153 -209,1439 -228,1454 -247,1439 -616,1153 -970,1427 -985,1439 -1004,1375 -635,1089 -616,1075 -597,1089 -228,1375 140,1089 159,1075 178,1089 547,1375 916,1089 935,1075 954,1089 1323,1375 1691,1089 1710,1075 1729,1089 2098,1375 2467,1089 2486,1075 2505,1089 2873,1375 3242,1089 3261,1075 3280,1089 3649,1375 4018,1089 4037,1075 4055,1089 4424,1375 4793,1089 4812,1075 4831,1089 5200,1375 5568,1089 5587,1075 5606,1089 5975,1375 6344,1089 6363,1075 6382,1089 6751,1375 6732,1439 6716,1427 6363,1153 5994,1439 5975,1454 5956,1439 5587,1153 5219,1439 5200,1454 5181,1439 4812,1153 4443,1439 4424,1454 4405,1439 4037,1153 3668,1439 3649,1454 3630,1439 3261,1153 2892,1439 "/>
     <polygon class="fil0" points="2873,1626 2854,1611 2486,1325 2117,1611 2098,1626 2079,1611 1710,1325 1341,1611 1323,1626 1304,1611 935,1325 566,1611 547,1626 528,1611 159,1325 -209,1611 -228,1626 -247,1611 -616,1325 -970,1599 -985,1611 -1004,1548 -635,1262 -616,1247 -597,1262 -228,1548 140,1262 159,1247 178,1262 547,1548 916,1262 935,1247 954,1262 1323,1548 1691,1262 1710,1247 1729,1262 2098,1548 2467,1262 2486,1247 2505,1262 2873,1548 3242,1262 3261,1247 3280,1262 3649,1548 4018,1262 4037,1247 4055,1262 4424,1548 4793,1262 4812,1247 4831,1262 5200,1548 5568,1262 5587,1247 5606,1262 5975,1548 6344,1262 6363,1247 6382,1262 6751,1548 6732,1611 6716,1599 6363,1325 5994,1611 5975,1626 5956,1611 5587,1325 5219,1611 5200,1626 5181,1611 4812,1325 4443,1611 4424,1626 4405,1611 4037,1325 3668,1611 3649,1626 3630,1611 3261,1325 2892,1611 "/>
     <polygon class="fil0" points="2873,1798 2854,1784 2486,1497 2117,1784 2098,1798 2079,1784 1710,1497 1341,1784 1323,1798 1304,1784 935,1497 566,1784 547,1798 528,1784 159,1497 -209,1784 -228,1798 -247,1784 -616,1497 -970,1772 -985,1784 -1004,1720 -635,1434 -616,1419 -597,1434 -228,1720 140,1434 159,1419 178,1434 547,1720 916,1434 935,1419 954,1434 1323,1720 1691,1434 1710,1419 1729,1434 2098,1720 2467,1434 2486,1419 2505,1434 2873,1720 3242,1434 3261,1419 3280,1434 3649,1720 4018,1434 4037,1419 4055,1434 4424,1720 4793,1434 4812,1419 4831,1434 5200,1720 5568,1434 5587,1419 5606,1434 5975,1720 6344,1434 6363,1419 6382,1434 6751,1720 6732,1784 6716,1772 6363,1497 5994,1784 5975,1798 5956,1784 5587,1497 5219,1784 5200,1798 5181,1784 4812,1497 4443,1784 4424,1798 4405,1784 4037,1497 3668,1784 3649,1798 3630,1784 3261,1497 2892,1784 "/>
     <polygon class="fil0" points="2873,1971 2854,1956 2486,1670 2117,1956 2098,1971 2079,1956 1710,1670 1341,1956 1323,1971 1304,1956 935,1670 566,1956 547,1971 528,1956 159,1670 -209,1956 -228,1971 -247,1956 -616,1670 -970,1944 -985,1956 -1004,1893 -635,1606 -616,1592 -597,1606 -228,1893 140,1606 159,1592 178,1606 547,1893 916,1606 935,1592 954,1606 1323,1893 1691,1606 1710,1592 1729,1606 2098,1893 2467,1606 2486,1592 2505,1606 2873,1893 3242,1606 3261,1592 3280,1606 3649,1893 4018,1606 4037,1592 4055,1606 4424,1893 4793,1606 4812,1592 4831,1606 5200,1893 5568,1606 5587,1592 5606,1606 5975,1893 6344,1606 6363,1592 6382,1606 6751,1893 6732,1956 6716,1944 6363,1670 5994,1956 5975,1971 5956,1956 5587,1670 5219,1956 5200,1971 5181,1956 4812,1670 4443,1956 4424,1971 4405,1956 4037,1670 3668,1956 3649,1971 3630,1956 3261,1670 2892,1956 "/>
     <polygon class="fil0" points="2873,2143 2854,2128 2486,1842 2117,2128 2098,2143 2079,2128 1710,1842 1341,2128 1323,2143 1304,2128 935,1842 566,2128 547,2143 528,2128 159,1842 -209,2128 -228,2143 -247,2128 -616,1842 -970,2117 -985,2128 -1004,2065 -635,1779 -616,1764 -597,1779 -228,2065 140,1779 159,1764 178,1779 547,2065 916,1779 935,1764 954,1779 1323,2065 1691,1779 1710,1764 1729,1779 2098,2065 2467,1779 2486,1764 2505,1779 2873,2065 3242,1779 3261,1764 3280,1779 3649,2065 4018,1779 4037,1764 4055,1779 4424,2065 4793,1779 4812,1764 4831,1779 5200,2065 5568,1779 5587,1764 5606,1779 5975,2065 6344,1779 6363,1764 6382,1779 6751,2065 6732,2128 6716,2117 6363,1842 5994,2128 5975,2143 5956,2128 5587,1842 5219,2128 5200,2143 5181,2128 4812,1842 4443,2128 4424,2143 4405,2128 4037,1842 3668,2128 3649,2143 3630,2128 3261,1842 2892,2128 "/>
     <polygon class="fil0" points="2873,2315 2854,2301 2486,2015 2117,2301 2098,2315 2079,2301 1710,2015 1341,2301 1323,2315 1304,2301 935,2015 566,2301 547,2315 528,2301 159,2015 -209,2301 -228,2315 -247,2301 -616,2015 -970,2289 -985,2301 -1004,2237 -635,1951 -616,1936 -597,1951 -228,2237 140,1951 159,1936 178,1951 547,2237 916,1951 935,1936 954,1951 1323,2237 1691,1951 1710,1936 1729,1951 2098,2237 2467,1951 2486,1936 2505,1951 2873,2237 3242,1951 3261,1936 3280,1951 3649,2237 4018,1951 4037,1936 4055,1951 4424,2237 4793,1951 4812,1936 4831,1951 5200,2237 5568,1951 5587,1936 5606,1951 5975,2237 6344,1951 6363,1936 6382,1951 6751,2237 6732,2301 6716,2289 6363,2015 5994,2301 5975,2315 5956,2301 5587,2015 5219,2301 5200,2315 5181,2301 4812,2015 4443,2301 4424,2315 4405,2301 4037,2015 3668,2301 3649,2315 3630,2301 3261,2015 2892,2301 "/>
     <polygon class="fil0" points="2873,2488 2854,2473 2486,2187 2117,2473 2098,2488 2079,2473 1710,2187 1341,2473 1323,2488 1304,2473 935,2187 566,2473 547,2488 528,2473 159,2187 -209,2473 -228,2488 -247,2473 -616,2187 -970,2461 -985,2473 -1004,2410 -635,2124 -616,2109 -597,2124 -228,2410 140,2124 159,2109 178,2124 547,2410 916,2124 935,2109 954,2124 1323,2410 1691,2124 1710,2109 1729,2124 2098,2410 2467,2124 2486,2109 2505,2124 2873,2410 3242,2124 3261,2109 3280,2124 3649,2410 4018,2124 4037,2109 4055,2124 4424,2410 4793,2124 4812,2109 4831,2124 5200,2410 5568,2124 5587,2109 5606,2124 5975,2410 6344,2124 6363,2109 6382,2124 6751,2410 6732,2473 6716,2461 6363,2187 5994,2473 5975,2488 5956,2473 5587,2187 5219,2473 5200,2488 5181,2473 4812,2187 4443,2473 4424,2488 4405,2473 4037,2187 3668,2473 3649,2488 3630,2473 3261,2187 2892,2473 "/>
     <polygon class="fil0" points="2873,2660 2854,2646 2486,2359 2117,2646 2098,2660 2079,2646 1710,2359 1341,2646 1323,2660 1304,2646 935,2359 566,2646 547,2660 528,2646 159,2359 -209,2646 -228,2660 -247,2646 -616,2359 -970,2634 -985,2646 -1004,2582 -635,2296 -616,2281 -597,2296 -228,2582 140,2296 159,2281 178,2296 547,2582 916,2296 935,2281 954,2296 1323,2582 1691,2296 1710,2281 1729,2296 2098,2582 2467,2296 2486,2281 2505,2296 2873,2582 3242,2296 3261,2281 3280,2296 3649,2582 4018,2296 4037,2281 4055,2296 4424,2582 4793,2296 4812,2281 4831,2296 5200,2582 5568,2296 5587,2281 5606,2296 5975,2582 6344,2296 6363,2281 6382,2296 6751,2582 6732,2646 6716,2634 6363,2359 5994,2646 5975,2660 5956,2646 5587,2359 5219,2646 5200,2660 5181,2646 4812,2359 4443,2646 4424,2660 4405,2646 4037,2359 3668,2646 3649,2660 3630,2646 3261,2359 2892,2646 "/>
     <polygon class="fil0" points="2873,2833 2854,2818 2486,2532 2117,2818 2098,2833 2079,2818 1710,2532 1341,2818 1323,2833 1304,2818 935,2532 566,2818 547,2833 528,2818 159,2532 -209,2818 -228,2833 -247,2818 -616,2532 -970,2806 -985,2818 -1004,2755 -635,2468 -616,2454 -597,2468 -228,2755 140,2468 159,2454 178,2468 547,2755 916,2468 935,2454 954,2468 1323,2755 1691,2468 1710,2454 1729,2468 2098,2755 2467,2468 2486,2454 2505,2468 2873,2755 3242,2468 3261,2454 3280,2468 3649,2755 4018,2468 4037,2454 4055,2468 4424,2755 4793,2468 4812,2454 4831,2468 5200,2755 5568,2468 5587,2454 5606,2468 5975,2755 6344,2468 6363,2454 6382,2468 6751,2755 6732,2818 6716,2806 6363,2532 5994,2818 5975,2833 5956,2818 5587,2532 5219,2818 5200,2833 5181,2818 4812,2532 4443,2818 4424,2833 4405,2818 4037,2532 3668,2818 3649,2833 3630,2818 3261,2532 2892,2818 "/>
     <polygon class="fil0" points="2873,3005 2854,2990 2486,2704 2117,2990 2098,3005 2079,2990 1710,2704 1341,2990 1323,3005 1304,2990 935,2704 566,2990 547,3005 528,2990 159,2704 -209,2990 -228,3005 -247,2990 -616,2704 -970,2979 -985,2990 -1004,2927 -635,2641 -616,2626 -597,2641 -228,2927 140,2641 159,2626 178,2641 547,2927 916,2641 935,2626 954,2641 1323,2927 1691,2641 1710,2626 1729,2641 2098,2927 2467,2641 2486,2626 2505,2641 2873,2927 3242,2641 3261,2626 3280,2641 3649,2927 4018,2641 4037,2626 4055,2641 4424,2927 4793,2641 4812,2626 4831,2641 5200,2927 5568,2641 5587,2626 5606,2641 5975,2927 6344,2641 6363,2626 6382,2641 6751,2927 6732,2990 6716,2979 6363,2704 5994,2990 5975,3005 5956,2990 5587,2704 5219,2990 5200,3005 5181,2990 4812,2704 4443,2990 4424,3005 4405,2990 4037,2704 3668,2990 3649,3005 3630,2990 3261,2704 2892,2990 "/>
     <polygon class="fil0" points="2873,3177 2854,3163 2486,2877 2117,3163 2098,3177 2079,3163 1710,2877 1341,3163 1323,3177 1304,3163 935,2877 566,3163 547,3177 528,3163 159,2877 -209,3163 -228,3177 -247,3163 -616,2877 -970,3151 -985,3163 -1004,3099 -635,2813 -616,2798 -597,2813 -228,3099 140,2813 159,2798 178,2813 547,3099 916,2813 935,2798 954,2813 1323,3099 1691,2813 1710,2798 1729,2813 2098,3099 2467,2813 2486,2798 2505,2813 2873,3099 3242,2813 3261,2798 3280,2813 3649,3099 4018,2813 4037,2798 4055,2813 4424,3099 4793,2813 4812,2798 4831,2813 5200,3099 5568,2813 5587,2798 5606,2813 5975,3099 6344,2813 6363,2798 6382,2813 6751,3099 6732,3163 6716,3151 6363,2877 5994,3163 5975,3177 5956,3163 5587,2877 5219,3163 5200,3177 5181,3163 4812,2877 4443,3163 4424,3177 4405,3163 4037,2877 3668,3163 3649,3177 3630,3163 3261,2877 2892,3163 "/>
     <polygon class="fil0" points="2873,3350 2854,3335 2486,3049 2117,3335 2098,3350 2079,3335 1710,3049 1341,3335 1323,3350 1304,3335 935,3049 566,3335 547,3350 528,3335 159,3049 -209,3335 -228,3350 -247,3335 -616,3049 -970,3323 -985,3335 -1004,3272 -635,2985 -616,2971 -597,2985 -228,3272 140,2985 159,2971 178,2985 547,3272 916,2985 935,2971 954,2985 1323,3272 1691,2985 1710,2971 1729,2985 2098,3272 2467,2985 2486,2971 2505,2985 2873,3272 3242,2985 3261,2971 3280,2985 3649,3272 4018,2985 4037,2971 4055,2985 4424,3272 4793,2985 4812,2971 4831,2985 5200,3272 5568,2985 5587,2971 5606,2985 5975,3272 6344,2985 6363,2971 6382,2985 6751,3272 6732,3335 6716,3323 6363,3049 5994,3335 5975,3350 5956,3335 5587,3049 5219,3335 5200,3350 5181,3335 4812,3049 4443,3335 4424,3350 4405,3335 4037,3049 3668,3335 3649,3350 3630,3335 3261,3049 2892,3335 "/>
     <polygon class="fil0" points="2873,3522 2854,3508 2486,3221 2117,3508 2098,3522 2079,3508 1710,3221 1341,3508 1323,3522 1304,3508 935,3221 566,3508 547,3522 528,3508 159,3221 -209,3508 -228,3522 -247,3508 -616,3221 -970,3496 -985,3508 -1004,3444 -635,3158 -616,3143 -597,3158 -228,3444 140,3158 159,3143 178,3158 547,3444 916,3158 935,3143 954,3158 1323,3444 1691,3158 1710,3143 1729,3158 2098,3444 2467,3158 2486,3143 2505,3158 2873,3444 3242,3158 3261,3143 3280,3158 3649,3444 4018,3158 4037,3143 4055,3158 4424,3444 4793,3158 4812,3143 4831,3158 5200,3444 5568,3158 5587,3143 5606,3158 5975,3444 6344,3158 6363,3143 6382,3158 6751,3444 6732,3508 6716,3496 6363,3221 5994,3508 5975,3522 5956,3508 5587,3221 5219,3508 5200,3522 5181,3508 4812,3221 4443,3508 4424,3522 4405,3508 4037,3221 3668,3508 3649,3522 3630,3508 3261,3221 2892,3508 "/>
     <polygon class="fil0" points="2873,3695 2854,3680 2486,3394 2117,3680 2098,3695 2079,3680 1710,3394 1341,3680 1323,3695 1304,3680 935,3394 566,3680 547,3695 528,3680 159,3394 -209,3680 -228,3695 -247,3680 -616,3394 -970,3668 -985,3680 -1004,3616 -635,3330 -616,3316 -597,3330 -228,3616 140,3330 159,3316 178,3330 547,3616 916,3330 935,3316 954,3330 1323,3616 1691,3330 1710,3316 1729,3330 2098,3616 2467,3330 2486,3316 2505,3330 2873,3616 3242,3330 3261,3316 3280,3330 3649,3616 4018,3330 4037,3316 4055,3330 4424,3616 4793,3330 4812,3316 4831,3330 5200,3616 5568,3330 5587,3316 5606,3330 5975,3616 6344,3330 6363,3316 6382,3330 6751,3616 6732,3680 6716,3668 6363,3394 5994,3680 5975,3695 5956,3680 5587,3394 5219,3680 5200,3695 5181,3680 4812,3394 4443,3680 4424,3695 4405,3680 4037,3394 3668,3680 3649,3695 3630,3680 3261,3394 2892,3680 "/>
     <polygon class="fil0" points="2873,3867 2854,3852 2486,3566 2117,3852 2098,3867 2079,3852 1710,3566 1341,3852 1323,3867 1304,3852 935,3566 566,3852 547,3867 528,3852 159,3566 -209,3852 -228,3867 -247,3852 -616,3566 -970,3840 -985,3852 -1004,3789 -635,3503 -616,3488 -597,3503 -228,3789 140,3503 159,3488 178,3503 547,3789 916,3503 935,3488 954,3503 1323,3789 1691,3503 1710,3488 1729,3503 2098,3789 2467,3503 2486,3488 2505,3503 2873,3789 3242,3503 3261,3488 3280,3503 3649,3789 4018,3503 4037,3488 4055,3503 4424,3789 4793,3503 4812,3488 4831,3503 5200,3789 5568,3503 5587,3488 5606,3503 5975,3789 6344,3503 6363,3488 6382,3503 6751,3789 6732,3852 6716,3840 6363,3566 5994,3852 5975,3867 5956,3852 5587,3566 5219,3852 5200,3867 5181,3852 4812,3566 4443,3852 4424,3867 4405,3852 4037,3566 3668,3852 3649,3867 3630,3852 3261,3566 2892,3852 "/>
     <polygon class="fil0" points="2873,4039 2854,4025 2486,3738 2117,4025 2098,4039 2079,4025 1710,3738 1341,4025 1323,4039 1304,4025 935,3738 566,4025 547,4039 528,4025 159,3738 -209,4025 -228,4039 -247,4025 -616,3738 -970,4013 -985,4025 -1004,3961 -635,3675 -616,3660 -597,3675 -228,3961 140,3675 159,3660 178,3675 547,3961 916,3675 935,3660 954,3675 1323,3961 1691,3675 1710,3660 1729,3675 2098,3961 2467,3675 2486,3660 2505,3675 2873,3961 3242,3675 3261,3660 3280,3675 3649,3961 4018,3675 4037,3660 4055,3675 4424,3961 4793,3675 4812,3660 4831,3675 5200,3961 5568,3675 5587,3660 5606,3675 5975,3961 6344,3675 6363,3660 6382,3675 6751,3961 6732,4025 6716,4013 6363,3738 5994,4025 5975,4039 5956,4025 5587,3738 5219,4025 5200,4039 5181,4025 4812,3738 4443,4025 4424,4039 4405,4025 4037,3738 3668,4025 3649,4039 3630,4025 3261,3738 2892,4025 "/>
     <polygon class="fil0" points="2873,4212 2854,4197 2486,3911 2117,4197 2098,4212 2079,4197 1710,3911 1341,4197 1323,4212 1304,4197 935,3911 566,4197 547,4212 528,4197 159,3911 -209,4197 -228,4212 -247,4197 -616,3911 -970,4185 -985,4197 -1004,4134 -635,3847 -616,3833 -597,3847 -228,4134 140,3847 159,3833 178,3847 547,4134 916,3847 935,3833 954,3847 1323,4134 1691,3847 1710,3833 1729,3847 2098,4134 2467,3847 2486,3833 2505,3847 2873,4134 3242,3847 3261,3833 3280,3847 3649,4134 4018,3847 4037,3833 4055,3847 4424,4134 4793,3847 4812,3833 4831,3847 5200,4134 5568,3847 5587,3833 5606,3847 5975,4134 6344,3847 6363,3833 6382,3847 6751,4134 6732,4197 6716,4185 6363,3911 5994,4197 5975,4212 5956,4197 5587,3911 5219,4197 5200,4212 5181,4197 4812,3911 4443,4197 4424,4212 4405,4197 4037,3911 3668,4197 3649,4212 3630,4197 3261,3911 2892,4197 "/>
     <polygon class="fil0" points="2873,4384 2854,4369 2486,4083 2117,4369 2098,4384 2079,4369 1710,4083 1341,4369 1323,4384 1304,4369 935,4083 566,4369 547,4384 528,4369 159,4083 -209,4369 -228,4384 -247,4369 -616,4083 -970,4358 -985,4369 -1004,4306 -635,4020 -616,4005 -597,4020 -228,4306 140,4020 159,4005 178,4020 547,4306 916,4020 935,4005 954,4020 1323,4306 1691,4020 1710,4005 1729,4020 2098,4306 2467,4020 2486,4005 2505,4020 2873,4306 3242,4020 3261,4005 3280,4020 3649,4306 4018,4020 4037,4005 4055,4020 4424,4306 4793,4020 4812,4005 4831,4020 5200,4306 5568,4020 5587,4005 5606,4020 5975,4306 6344,4020 6363,4005 6382,4020 6751,4306 6732,4369 6716,4358 6363,4083 5994,4369 5975,4384 5956,4369 5587,4083 5219,4369 5200,4384 5181,4369 4812,4083 4443,4369 4424,4384 4405,4369 4037,4083 3668,4369 3649,4384 3630,4369 3261,4083 2892,4369 "/>
     <polygon class="fil0" points="2873,4557 2854,4542 2486,4256 2117,4542 2098,4557 2079,4542 1710,4256 1341,4542 1323,4557 1304,4542 935,4256 566,4542 547,4557 528,4542 159,4256 -209,4542 -228,4557 -247,4542 -616,4256 -970,4530 -985,4542 -1004,4478 -635,4192 -616,4177 -597,4192 -228,4478 140,4192 159,4177 178,4192 547,4478 916,4192 935,4177 954,4192 1323,4478 1691,4192 1710,4177 1729,4192 2098,4478 2467,4192 2486,4177 2505,4192 2873,4478 3242,4192 3261,4177 3280,4192 3649,4478 4018,4192 4037,4177 4055,4192 4424,4478 4793,4192 4812,4177 4831,4192 5200,4478 5568,4192 5587,4177 5606,4192 5975,4478 6344,4192 6363,4177 6382,4192 6751,4478 6732,4542 6716,4530 6363,4256 5994,4542 5975,4557 5956,4542 5587,4256 5219,4542 5200,4557 5181,4542 4812,4256 4443,4542 4424,4557 4405,4542 4037,4256 3668,4542 3649,4557 3630,4542 3261,4256 2892,4542 "/>
     <polygon class="fil0" points="2873,4729 2854,4714 2486,4428 2117,4714 2098,4729 2079,4714 1710,4428 1341,4714 1323,4729 1304,4714 935,4428 566,4714 547,4729 528,4714 159,4428 -209,4714 -228,4729 -247,4714 -616,4428 -970,4702 -985,4714 -1004,4651 -635,4365 -616,4350 -597,4365 -228,4651 140,4365 159,4350 178,4365 547,4651 916,4365 935,4350 954,4365 1323,4651 1691,4365 1710,4350 1729,4365 2098,4651 2467,4365 2486,4350 2505,4365 2873,4651 3242,4365 3261,4350 3280,4365 3649,4651 4018,4365 4037,4350 4055,4365 4424,4651 4793,4365 4812,4350 4831,4365 5200,4651 5568,4365 5587,4350 5606,4365 5975,4651 6344,4365 6363,4350 6382,4365 6751,4651 6732,4714 6716,4702 6363,4428 5994,4714 5975,4729 5956,4714 5587,4428 5219,4714 5200,4729 5181,4714 4812,4428 4443,4714 4424,4729 4405,4714 4037,4428 3668,4714 3649,4729 3630,4714 3261,4428 2892,4714 "/>
     <polygon class="fil0" points="2873,4901 2854,4887 2486,4600 2117,4887 2098,4901 2079,4887 1710,4600 1341,4887 1323,4901 1304,4887 935,4600 566,4887 547,4901 528,4887 159,4600 -209,4887 -228,4901 -247,4887 -616,4600 -970,4875 -985,4887 -1004,4823 -635,4537 -616,4522 -597,4537 -228,4823 140,4537 159,4522 178,4537 547,4823 916,4537 935,4522 954,4537 1323,4823 1691,4537 1710,4522 1729,4537 2098,4823 2467,4537 2486,4522 2505,4537 2873,4823 3242,4537 3261,4522 3280,4537 3649,4823 4018,4537 4037,4522 4055,4537 4424,4823 4793,4537 4812,4522 4831,4537 5200,4823 5568,4537 5587,4522 5606,4537 5975,4823 6344,4537 6363,4522 6382,4537 6751,4823 6732,4887 6716,4875 6363,4600 5994,4887 5975,4901 5956,4887 5587,4600 5219,4887 5200,4901 5181,4887 4812,4600 4443,4887 4424,4901 4405,4887 4037,4600 3668,4887 3649,4901 3630,4887 3261,4600 2892,4887 "/>
     <polygon class="fil0" points="2873,5074 2854,5059 2486,4773 2117,5059 2098,5074 2079,5059 1710,4773 1341,5059 1323,5074 1304,5059 935,4773 566,5059 547,5074 528,5059 159,4773 -209,5059 -228,5074 -247,5059 -616,4773 -970,5047 -985,5059 -1004,4996 -635,4709 -616,4695 -597,4709 -228,4996 140,4709 159,4695 178,4709 547,4996 916,4709 935,4695 954,4709 1323,4996 1691,4709 1710,4695 1729,4709 2098,4996 2467,4709 2486,4695 2505,4709 2873,4996 3242,4709 3261,4695 3280,4709 3649,4996 4018,4709 4037,4695 4055,4709 4424,4996 4793,4709 4812,4695 4831,4709 5200,4996 5568,4709 5587,4695 5606,4709 5975,4996 6344,4709 6363,4695 6382,4709 6751,4996 6732,5059 6716,5047 6363,4773 5994,5059 5975,5074 5956,5059 5587,4773 5219,5059 5200,5074 5181,5059 4812,4773 4443,5059 4424,5074 4405,5059 4037,4773 3668,5059 3649,5074 3630,5059 3261,4773 2892,5059 "/>
     <polygon class="fil0" points="2873,5246 2854,5231 2486,4945 2117,5231 2098,5246 2079,5231 1710,4945 1341,5231 1323,5246 1304,5231 935,4945 566,5231 547,5246 528,5231 159,4945 -209,5231 -228,5246 -247,5231 -616,4945 -970,5220 -985,5231 -1004,5168 -635,4882 -616,4867 -597,4882 -228,5168 140,4882 159,4867 178,4882 547,5168 916,4882 935,4867 954,4882 1323,5168 1691,4882 1710,4867 1729,4882 2098,5168 2467,4882 2486,4867 2505,4882 2873,5168 3242,4882 3261,4867 3280,4882 3649,5168 4018,4882 4037,4867 4055,4882 4424,5168 4793,4882 4812,4867 4831,4882 5200,5168 5568,4882 5587,4867 5606,4882 5975,5168 6344,4882 6363,4867 6382,4882 6751,5168 6732,5231 6716,5220 6363,4945 5994,5231 5975,5246 5956,5231 5587,4945 5219,5231 5200,5246 5181,5231 4812,4945 4443,5231 4424,5246 4405,5231 4037,4945 3668,5231 3649,5246 3630,5231 3261,4945 2892,5231 "/>
     <polygon class="fil0" points="2873,5418 2854,5404 2486,5118 2117,5404 2098,5418 2079,5404 1710,5118 1341,5404 1323,5418 1304,5404 935,5118 566,5404 547,5418 528,5404 159,5118 -209,5404 -228,5418 -247,5404 -616,5118 -970,5392 -985,5404 -1004,5340 -635,5054 -616,5039 -597,5054 -228,5340 140,5054 159,5039 178,5054 547,5340 916,5054 935,5039 954,5054 1323,5340 1691,5054 1710,5039 1729,5054 2098,5340 2467,5054 2486,5039 2505,5054 2873,5340 3242,5054 3261,5039 3280,5054 3649,5340 4018,5054 4037,5039 4055,5054 4424,5340 4793,5054 4812,5039 4831,5054 5200,5340 5568,5054 5587,5039 5606,5054 5975,5340 6344,5054 6363,5039 6382,5054 6751,5340 6732,5404 6716,5392 6363,5118 5994,5404 5975,5418 5956,5404 5587,5118 5219,5404 5200,5418 5181,5404 4812,5118 4443,5404 4424,5418 4405,5404 4037,5118 3668,5404 3649,5418 3630,5404 3261,5118 2892,5404 "/>
     <polygon class="fil0" points="2873,5591 2854,5576 2486,5290 2117,5576 2098,5591 2079,5576 1710,5290 1341,5576 1323,5591 1304,5576 935,5290 566,5576 547,5591 528,5576 159,5290 -209,5576 -228,5591 -247,5576 -616,5290 -970,5564 -985,5576 -1004,5513 -635,5226 -616,5212 -597,5226 -228,5513 140,5226 159,5212 178,5226 547,5513 916,5226 935,5212 954,5226 1323,5513 1691,5226 1710,5212 1729,5226 2098,5513 2467,5226 2486,5212 2505,5226 2873,5513 3242,5226 3261,5212 3280,5226 3649,5513 4018,5226 4037,5212 4055,5226 4424,5513 4793,5226 4812,5212 4831,5226 5200,5513 5568,5226 5587,5212 5606,5226 5975,5513 6344,5226 6363,5212 6382,5226 6751,5513 6732,5576 6716,5564 6363,5290 5994,5576 5975,5591 5956,5576 5587,5290 5219,5576 5200,5591 5181,5576 4812,5290 4443,5576 4424,5591 4405,5576 4037,5290 3668,5576 3649,5591 3630,5576 3261,5290 2892,5576 "/>
     <polygon class="fil0" points="2873,5763 2854,5749 2486,5462 2117,5749 2098,5763 2079,5749 1710,5462 1341,5749 1323,5763 1304,5749 935,5462 566,5749 547,5763 528,5749 159,5462 -209,5749 -228,5763 -247,5749 -616,5462 -970,5737 -985,5749 -1004,5685 -635,5399 -616,5384 -597,5399 -228,5685 140,5399 159,5384 178,5399 547,5685 916,5399 935,5384 954,5399 1323,5685 1691,5399 1710,5384 1729,5399 2098,5685 2467,5399 2486,5384 2505,5399 2873,5685 3242,5399 3261,5384 3280,5399 3649,5685 4018,5399 4037,5384 4055,5399 4424,5685 4793,5399 4812,5384 4831,5399 5200,5685 5568,5399 5587,5384 5606,5399 5975,5685 6344,5399 6363,5384 6382,5399 6751,5685 6732,5749 6716,5737 6363,5462 5994,5749 5975,5763 5956,5749 5587,5462 5219,5749 5200,5763 5181,5749 4812,5462 4443,5749 4424,5763 4405,5749 4037,5462 3668,5749 3649,5763 3630,5749 3261,5462 2892,5749 "/>
     <polygon class="fil0" points="2873,5936 2854,5921 2486,5635 2117,5921 2098,5936 2079,5921 1710,5635 1341,5921 1323,5936 1304,5921 935,5635 566,5921 547,5936 528,5921 159,5635 -209,5921 -228,5936 -247,5921 -616,5635 -970,5909 -985,5921 -1004,5857 -635,5571 -616,5557 -597,5571 -228,5857 140,5571 159,5557 178,5571 547,5857 916,5571 935,5557 954,5571 1323,5857 1691,5571 1710,5557 1729,5571 2098,5857 2467,5571 2486,5557 2505,5571 2873,5857 3242,5571 3261,5557 3280,5571 3649,5857 4018,5571 4037,5557 4055,5571 4424,5857 4793,5571 4812,5557 4831,5571 5200,5857 5568,5571 5587,5557 5606,5571 5975,5857 6344,5571 6363,5557 6382,5571 6751,5857 6732,5921 6716,5909 6363,5635 5994,5921 5975,5936 5956,5921 5587,5635 5219,5921 5200,5936 5181,5921 4812,5635 4443,5921 4424,5936 4405,5921 4037,5635 3668,5921 3649,5936 3630,5921 3261,5635 2892,5921 "/>
     <polygon class="fil0" points="2873,6108 2854,6093 2486,5807 2117,6093 2098,6108 2079,6093 1710,5807 1341,6093 1323,6108 1304,6093 935,5807 566,6093 547,6108 528,6093 159,5807 -209,6093 -228,6108 -247,6093 -616,5807 -970,6081 -985,6093 -1004,6030 -635,5744 -616,5729 -597,5744 -228,6030 140,5744 159,5729 178,5744 547,6030 916,5744 935,5729 954,5744 1323,6030 1691,5744 1710,5729 1729,5744 2098,6030 2467,5744 2486,5729 2505,5744 2873,6030 3242,5744 3261,5729 3280,5744 3649,6030 4018,5744 4037,5729 4055,5744 4424,6030 4793,5744 4812,5729 4831,5744 5200,6030 5568,5744 5587,5729 5606,5744 5975,6030 6344,5744 6363,5729 6382,5744 6751,6030 6732,6093 6716,6081 6363,5807 5994,6093 5975,6108 5956,6093 5587,5807 5219,6093 5200,6108 5181,6093 4812,5807 4443,6093 4424,6108 4405,6093 4037,5807 3668,6093 3649,6108 3630,6093 3261,5807 2892,6093 "/>
     <polygon class="fil0" points="2873,6280 2854,6266 2486,5979 2117,6266 2098,6280 2079,6266 1710,5979 1341,6266 1323,6280 1304,6266 935,5979 566,6266 547,6280 528,6266 159,5979 -209,6266 -228,6280 -247,6266 -616,5979 -970,6254 -985,6266 -1004,6202 -635,5916 -616,5901 -597,5916 -228,6202 140,5916 159,5901 178,5916 547,6202 916,5916 935,5901 954,5916 1323,6202 1691,5916 1710,5901 1729,5916 2098,6202 2467,5916 2486,5901 2505,5916 2873,6202 3242,5916 3261,5901 3280,5916 3649,6202 4018,5916 4037,5901 4055,5916 4424,6202 4793,5916 4812,5901 4831,5916 5200,6202 5568,5916 5587,5901 5606,5916 5975,6202 6344,5916 6363,5901 6382,5916 6751,6202 6732,6266 6716,6254 6363,5979 5994,6266 5975,6280 5956,6266 5587,5979 5219,6266 5200,6280 5181,6266 4812,5979 4443,6266 4424,6280 4405,6266 4037,5979 3668,6266 3649,6280 3630,6266 3261,5979 2892,6266 "/>
     <polygon class="fil0" points="2873,6453 2854,6438 2486,6152 2117,6438 2098,6453 2079,6438 1710,6152 1341,6438 1323,6453 1304,6438 935,6152 566,6438 547,6453 528,6438 159,6152 -209,6438 -228,6453 -247,6438 -616,6152 -970,6426 -985,6438 -1004,6375 -635,6088 -616,6074 -597,6088 -228,6375 140,6088 159,6074 178,6088 547,6375 916,6088 935,6074 954,6088 1323,6375 1691,6088 1710,6074 1729,6088 2098,6375 2467,6088 2486,6074 2505,6088 2873,6375 3242,6088 3261,6074 3280,6088 3649,6375 4018,6088 4037,6074 4055,6088 4424,6375 4793,6088 4812,6074 4831,6088 5200,6375 5568,6088 5587,6074 5606,6088 5975,6375 6344,6088 6363,6074 6382,6088 6751,6375 6732,6438 6716,6426 6363,6152 5994,6438 5975,6453 5956,6438 5587,6152 5219,6438 5200,6453 5181,6438 4812,6152 4443,6438 4424,6453 4405,6438 4037,6152 3668,6438 3649,6453 3630,6438 3261,6152 2892,6438 "/>
     <polygon class="fil0" points="2873,6625 2854,6610 2486,6324 2117,6610 2098,6625 2079,6610 1710,6324 1341,6610 1323,6625 1304,6610 935,6324 566,6610 547,6625 528,6610 159,6324 -209,6610 -228,6625 -247,6610 -616,6324 -970,6599 -985,6610 -1004,6547 -635,6261 -616,6246 -597,6261 -228,6547 140,6261 159,6246 178,6261 547,6547 916,6261 935,6246 954,6261 1323,6547 1691,6261 1710,6246 1729,6261 2098,6547 2467,6261 2486,6246 2505,6261 2873,6547 3242,6261 3261,6246 3280,6261 3649,6547 4018,6261 4037,6246 4055,6261 4424,6547 4793,6261 4812,6246 4831,6261 5200,6547 5568,6261 5587,6246 5606,6261 5975,6547 6344,6261 6363,6246 6382,6261 6751,6547 6732,6610 6716,6599 6363,6324 5994,6610 5975,6625 5956,6610 5587,6324 5219,6610 5200,6625 5181,6610 4812,6324 4443,6610 4424,6625 4405,6610 4037,6324 3668,6610 3649,6625 3630,6610 3261,6324 2892,6610 "/>
     <polygon class="fil0" points="2873,6798 2854,6783 2486,6497 2117,6783 2098,6798 2079,6783 1710,6497 1341,6783 1323,6798 1304,6783 935,6497 566,6783 547,6798 528,6783 159,6497 -209,6783 -228,6798 -247,6783 -616,6497 -970,6771 -985,6783 -1004,6719 -635,6433 -616,6419 -597,6433 -228,6719 140,6433 159,6419 178,6433 547,6719 916,6433 935,6419 954,6433 1323,6719 1691,6433 1710,6419 1729,6433 2098,6719 2467,6433 2486,6419 2505,6433 2873,6719 3242,6433 3261,6419 3280,6433 3649,6719 4018,6433 4037,6419 4055,6433 4424,6719 4793,6433 4812,6419 4831,6433 5200,6719 5568,6433 5587,6419 5606,6433 5975,6719 6344,6433 6363,6419 6382,6433 6751,6719 6732,6783 6716,6771 6363,6497 5994,6783 5975,6798 5956,6783 5587,6497 5219,6783 5200,6798 5181,6783 4812,6497 4443,6783 4424,6798 4405,6783 4037,6497 3668,6783 3649,6798 3630,6783 3261,6497 2892,6783 "/>
     <polygon class="fil0" points="2873,6970 2854,6955 2486,6669 2117,6955 2098,6970 2079,6955 1710,6669 1341,6955 1323,6970 1304,6955 935,6669 566,6955 547,6970 528,6955 159,6669 -209,6955 -228,6970 -247,6955 -616,6669 -970,6943 -985,6955 -1004,6892 -635,6606 -616,6591 -597,6606 -228,6892 140,6606 159,6591 178,6606 547,6892 916,6606 935,6591 954,6606 1323,6892 1691,6606 1710,6591 1729,6606 2098,6892 2467,6606 2486,6591 2505,6606 2873,6892 3242,6606 3261,6591 3280,6606 3649,6892 4018,6606 4037,6591 4055,6606 4424,6892 4793,6606 4812,6591 4831,6606 5200,6892 5568,6606 5587,6591 5606,6606 5975,6892 6344,6606 6363,6591 6382,6606 6751,6892 6732,6955 6716,6943 6363,6669 5994,6955 5975,6970 5956,6955 5587,6669 5219,6955 5200,6970 5181,6955 4812,6669 4443,6955 4424,6970 4405,6955 4037,6669 3668,6955 3649,6970 3630,6955 3261,6669 2892,6955 "/>
     <polygon class="fil0" points="2873,7142 2854,7128 2486,6841 2117,7128 2098,7142 2079,7128 1710,6841 1341,7128 1323,7142 1304,7128 935,6841 566,7128 547,7142 528,7128 159,6841 -209,7128 -228,7142 -247,7128 -616,6841 -970,7116 -985,7128 -1004,7064 -635,6778 -616,6763 -597,6778 -228,7064 140,6778 159,6763 178,6778 547,7064 916,6778 935,6763 954,6778 1323,7064 1691,6778 1710,6763 1729,6778 2098,7064 2467,6778 2486,6763 2505,6778 2873,7064 3242,6778 3261,6763 3280,6778 3649,7064 4018,6778 4037,6763 4055,6778 4424,7064 4793,6778 4812,6763 4831,6778 5200,7064 5568,6778 5587,6763 5606,6778 5975,7064 6344,6778 6363,6763 6382,6778 6751,7064 6732,7128 6716,7116 6363,6841 5994,7128 5975,7142 5956,7128 5587,6841 5219,7128 5200,7142 5181,7128 4812,6841 4443,7128 4424,7142 4405,7128 4037,6841 3668,7128 3649,7142 3630,7128 3261,6841 2892,7128 "/>
     <polygon class="fil0" points="2873,7315 2854,7300 2486,7014 2117,7300 2098,7315 2079,7300 1710,7014 1341,7300 1323,7315 1304,7300 935,7014 566,7300 547,7315 528,7300 159,7014 -209,7300 -228,7315 -247,7300 -616,7014 -970,7288 -985,7300 -1004,7237 -635,6950 -616,6936 -597,6950 -228,7237 140,6950 159,6936 178,6950 547,7237 916,6950 935,6936 954,6950 1323,7237 1691,6950 1710,6936 1729,6950 2098,7237 2467,6950 2486,6936 2505,6950 2873,7237 3242,6950 3261,6936 3280,6950 3649,7237 4018,6950 4037,6936 4055,6950 4424,7237 4793,6950 4812,6936 4831,6950 5200,7237 5568,6950 5587,6936 5606,6950 5975,7237 6344,6950 6363,6936 6382,6950 6751,7237 6732,7300 6716,7288 6363,7014 5994,7300 5975,7315 5956,7300 5587,7014 5219,7300 5200,7315 5181,7300 4812,7014 4443,7300 4424,7315 4405,7300 4037,7014 3668,7300 3649,7315 3630,7300 3261,7014 2892,7300 "/>
     <polygon class="fil0" points="2873,7487 2854,7472 2486,7186 2117,7472 2098,7487 2079,7472 1710,7186 1341,7472 1323,7487 1304,7472 935,7186 566,7472 547,7487 528,7472 159,7186 -209,7472 -228,7487 -247,7472 -616,7186 -970,7461 -985,7472 -1004,7409 -635,7123 -616,7108 -597,7123 -228,7409 140,7123 159,7108 178,7123 547,7409 916,7123 935,7108 954,7123 1323,7409 1691,7123 1710,7108 1729,7123 2098,7409 2467,7123 2486,7108 2505,7123 2873,7409 3242,7123 3261,7108 3280,7123 3649,7409 4018,7123 4037,7108 4055,7123 4424,7409 4793,7123 4812,7108 4831,7123 5200,7409 5568,7123 5587,7108 5606,7123 5975,7409 6344,7123 6363,7108 6382,7123 6751,7409 6732,7472 6716,7461 6363,7186 5994,7472 5975,7487 5956,7472 5587,7186 5219,7472 5200,7487 5181,7472 4812,7186 4443,7472 4424,7487 4405,7472 4037,7186 3668,7472 3649,7487 3630,7472 3261,7186 2892,7472 "/>
     <polygon class="fil0" points="2873,7659 2854,7645 2486,7359 2117,7645 2098,7659 2079,7645 1710,7359 1341,7645 1323,7659 1304,7645 935,7359 566,7645 547,7659 528,7645 159,7359 -209,7645 -228,7659 -247,7645 -616,7359 -970,7633 -985,7645 -1004,7581 -635,7295 -616,7280 -597,7295 -228,7581 140,7295 159,7280 178,7295 547,7581 916,7295 935,7280 954,7295 1323,7581 1691,7295 1710,7280 1729,7295 2098,7581 2467,7295 2486,7280 2505,7295 2873,7581 3242,7295 3261,7280 3280,7295 3649,7581 4018,7295 4037,7280 4055,7295 4424,7581 4793,7295 4812,7280 4831,7295 5200,7581 5568,7295 5587,7280 5606,7295 5975,7581 6344,7295 6363,7280 6382,7295 6751,7581 6732,7645 6716,7633 6363,7359 5994,7645 5975,7659 5956,7645 5587,7359 5219,7645 5200,7659 5181,7645 4812,7359 4443,7645 4424,7659 4405,7645 4037,7359 3668,7645 3649,7659 3630,7645 3261,7359 2892,7645 "/>
     <polygon class="fil0" points="2873,7832 2854,7817 2486,7531 2117,7817 2098,7832 2079,7817 1710,7531 1341,7817 1323,7832 1304,7817 935,7531 566,7817 547,7832 528,7817 159,7531 -209,7817 -228,7832 -247,7817 -616,7531 -970,7805 -985,7817 -1004,7754 -635,7468 -616,7453 -597,7468 -228,7754 140,7468 159,7453 178,7468 547,7754 916,7468 935,7453 954,7468 1323,7754 1691,7468 1710,7453 1729,7468 2098,7754 2467,7468 2486,7453 2505,7468 2873,7754 3242,7468 3261,7453 3280,7468 3649,7754 4018,7468 4037,7453 4055,7468 4424,7754 4793,7468 4812,7453 4831,7468 5200,7754 5568,7468 5587,7453 5606,7468 5975,7754 6344,7468 6363,7453 6382,7468 6751,7754 6732,7817 6716,7805 6363,7531 5994,7817 5975,7832 5956,7817 5587,7531 5219,7817 5200,7832 5181,7817 4812,7531 4443,7817 4424,7832 4405,7817 4037,7531 3668,7817 3649,7832 3630,7817 3261,7531 2892,7817 "/>
     <polygon class="fil0" points="2873,8004 2854,7990 2486,7703 2117,7990 2098,8004 2079,7990 1710,7703 1341,7990 1323,8004 1304,7990 935,7703 566,7990 547,8004 528,7990 159,7703 -209,7990 -228,8004 -247,7990 -616,7703 -970,7978 -985,7990 -1004,7926 -635,7640 -616,7625 -597,7640 -228,7926 140,7640 159,7625 178,7640 547,7926 916,7640 935,7625 954,7640 1323,7926 1691,7640 1710,7625 1729,7640 2098,7926 2467,7640 2486,7625 2505,7640 2873,7926 3242,7640 3261,7625 3280,7640 3649,7926 4018,7640 4037,7625 4055,7640 4424,7926 4793,7640 4812,7625 4831,7640 5200,7926 5568,7640 5587,7625 5606,7640 5975,7926 6344,7640 6363,7625 6382,7640 6751,7926 6732,7990 6716,7978 6363,7703 5994,7990 5975,8004 5956,7990 5587,7703 5219,7990 5200,8004 5181,7990 4812,7703 4443,7990 4424,8004 4405,7990 4037,7703 3668,7990 3649,8004 3630,7990 3261,7703 2892,7990 "/>
     <polygon class="fil0" points="2873,8177 2854,8162 2486,7876 2117,8162 2098,8177 2079,8162 1710,7876 1341,8162 1323,8177 1304,8162 935,7876 566,8162 547,8177 528,8162 159,7876 -209,8162 -228,8177 -247,8162 -616,7876 -970,8150 -985,8162 -1004,8099 -635,7812 -616,7798 -597,7812 -228,8099 140,7812 159,7798 178,7812 547,8099 916,7812 935,7798 954,7812 1323,8099 1691,7812 1710,7798 1729,7812 2098,8099 2467,7812 2486,7798 2505,7812 2873,8099 3242,7812 3261,7798 3280,7812 3649,8099 4018,7812 4037,7798 4055,7812 4424,8099 4793,7812 4812,7798 4831,7812 5200,8099 5568,7812 5587,7798 5606,7812 5975,8099 6344,7812 6363,7798 6382,7812 6751,8099 6732,8162 6716,8150 6363,7876 5994,8162 5975,8177 5956,8162 5587,7876 5219,8162 5200,8177 5181,8162 4812,7876 4443,8162 4424,8177 4405,8162 4037,7876 3668,8162 3649,8177 3630,8162 3261,7876 2892,8162 "/>
     <polygon class="fil0" points="2873,8349 2854,8334 2486,8048 2117,8334 2098,8349 2079,8334 1710,8048 1341,8334 1323,8349 1304,8334 935,8048 566,8334 547,8349 528,8334 159,8048 -209,8334 -228,8349 -247,8334 -616,8048 -970,8323 -985,8334 -1004,8271 -635,7985 -616,7970 -597,7985 -228,8271 140,7985 159,7970 178,7985 547,8271 916,7985 935,7970 954,7985 1323,8271 1691,7985 1710,7970 1729,7985 2098,8271 2467,7985 2486,7970 2505,7985 2873,8271 3242,7985 3261,7970 3280,7985 3649,8271 4018,7985 4037,7970 4055,7985 4424,8271 4793,7985 4812,7970 4831,7985 5200,8271 5568,7985 5587,7970 5606,7985 5975,8271 6344,7985 6363,7970 6382,7985 6751,8271 6732,8334 6716,8323 6363,8048 5994,8334 5975,8349 5956,8334 5587,8048 5219,8334 5200,8349 5181,8334 4812,8048 4443,8334 4424,8349 4405,8334 4037,8048 3668,8334 3649,8349 3630,8334 3261,8048 2892,8334 "/>
     <polygon class="fil0" points="2873,8521 2854,8507 2486,8221 2117,8507 2098,8521 2079,8507 1710,8221 1341,8507 1323,8521 1304,8507 935,8221 566,8507 547,8521 528,8507 159,8221 -209,8507 -228,8521 -247,8507 -616,8221 -970,8495 -985,8507 -1004,8443 -635,8157 -616,8142 -597,8157 -228,8443 140,8157 159,8142 178,8157 547,8443 916,8157 935,8142 954,8157 1323,8443 1691,8157 1710,8142 1729,8157 2098,8443 2467,8157 2486,8142 2505,8157 2873,8443 3242,8157 3261,8142 3280,8157 3649,8443 4018,8157 4037,8142 4055,8157 4424,8443 4793,8157 4812,8142 4831,8157 5200,8443 5568,8157 5587,8142 5606,8157 5975,8443 6344,8157 6363,8142 6382,8157 6751,8443 6732,8507 6716,8495 6363,8221 5994,8507 5975,8521 5956,8507 5587,8221 5219,8507 5200,8521 5181,8507 4812,8221 4443,8507 4424,8521 4405,8507 4037,8221 3668,8507 3649,8521 3630,8507 3261,8221 2892,8507 "/>
     <polygon class="fil0" points="2873,8694 2854,8679 2486,8393 2117,8679 2098,8694 2079,8679 1710,8393 1341,8679 1323,8694 1304,8679 935,8393 566,8679 547,8694 528,8679 159,8393 -209,8679 -228,8694 -247,8679 -616,8393 -970,8667 -985,8679 -1004,8616 -635,8329 -616,8315 -597,8329 -228,8616 140,8329 159,8315 178,8329 547,8616 916,8329 935,8315 954,8329 1323,8616 1691,8329 1710,8315 1729,8329 2098,8616 2467,8329 2486,8315 2505,8329 2873,8616 3242,8329 3261,8315 3280,8329 3649,8616 4018,8329 4037,8315 4055,8329 4424,8616 4793,8329 4812,8315 4831,8329 5200,8616 5568,8329 5587,8315 5606,8329 5975,8616 6344,8329 6363,8315 6382,8329 6751,8616 6732,8679 6716,8667 6363,8393 5994,8679 5975,8694 5956,8679 5587,8393 5219,8679 5200,8694 5181,8679 4812,8393 4443,8679 4424,8694 4405,8679 4037,8393 3668,8679 3649,8694 3630,8679 3261,8393 2892,8679 "/>
     <polygon class="fil0" points="2873,8866 2854,8852 2486,8565 2117,8852 2098,8866 2079,8852 1710,8565 1341,8852 1323,8866 1304,8852 935,8565 566,8852 547,8866 528,8852 159,8565 -209,8852 -228,8866 -247,8852 -616,8565 -970,8840 -985,8852 -1004,8788 -635,8502 -616,8487 -597,8502 -228,8788 140,8502 159,8487 178,8502 547,8788 916,8502 935,8487 954,8502 1323,8788 1691,8502 1710,8487 1729,8502 2098,8788 2467,8502 2486,8487 2505,8502 2873,8788 3242,8502 3261,8487 3280,8502 3649,8788 4018,8502 4037,8487 4055,8502 4424,8788 4793,8502 4812,8487 4831,8502 5200,8788 5568,8502 5587,8487 5606,8502 5975,8788 6344,8502 6363,8487 6382,8502 6751,8788 6732,8852 6716,8840 6363,8565 5994,8852 5975,8866 5956,8852 5587,8565 5219,8852 5200,8866 5181,8852 4812,8565 4443,8852 4424,8866 4405,8852 4037,8565 3668,8852 3649,8866 3630,8852 3261,8565 2892,8852 "/>
     <polygon class="fil0" points="2873,9039 2854,9024 2486,8738 2117,9024 2098,9039 2079,9024 1710,8738 1341,9024 1323,9039 1304,9024 935,8738 566,9024 547,9039 528,9024 159,8738 -209,9024 -228,9039 -247,9024 -616,8738 -970,9012 -985,9024 -1004,8960 -635,8674 -616,8660 -597,8674 -228,8960 140,8674 159,8660 178,8674 547,8960 916,8674 935,8660 954,8674 1323,8960 1691,8674 1710,8660 1729,8674 2098,8960 2467,8674 2486,8660 2505,8674 2873,8960 3242,8674 3261,8660 3280,8674 3649,8960 4018,8674 4037,8660 4055,8674 4424,8960 4793,8674 4812,8660 4831,8674 5200,8960 5568,8674 5587,8660 5606,8674 5975,8960 6344,8674 6363,8660 6382,8674 6751,8960 6732,9024 6716,9012 6363,8738 5994,9024 5975,9039 5956,9024 5587,8738 5219,9024 5200,9039 5181,9024 4812,8738 4443,9024 4424,9039 4405,9024 4037,8738 3668,9024 3649,9039 3630,9024 3261,8738 2892,9024 "/>
     <polygon class="fil0" points="2873,9211 2854,9196 2486,8910 2117,9196 2098,9211 2079,9196 1710,8910 1341,9196 1323,9211 1304,9196 935,8910 566,9196 547,9211 528,9196 159,8910 -209,9196 -228,9211 -247,9196 -616,8910 -970,9184 -985,9196 -1004,9133 -635,8847 -616,8832 -597,8847 -228,9133 140,8847 159,8832 178,8847 547,9133 916,8847 935,8832 954,8847 1323,9133 1691,8847 1710,8832 1729,8847 2098,9133 2467,8847 2486,8832 2505,8847 2873,9133 3242,8847 3261,8832 3280,8847 3649,9133 4018,8847 4037,8832 4055,8847 4424,9133 4793,8847 4812,8832 4831,8847 5200,9133 5568,8847 5587,8832 5606,8847 5975,9133 6344,8847 6363,8832 6382,8847 6751,9133 6732,9196 6716,9184 6363,8910 5994,9196 5975,9211 5956,9196 5587,8910 5219,9196 5200,9211 5181,9196 4812,8910 4443,9196 4424,9211 4405,9196 4037,8910 3668,9196 3649,9211 3630,9196 3261,8910 2892,9196 "/>
     <polygon class="fil0" points="2873,9383 2854,9369 2486,9082 2117,9369 2098,9383 2079,9369 1710,9082 1341,9369 1323,9383 1304,9369 935,9082 566,9369 547,9383 528,9369 159,9082 -209,9369 -228,9383 -247,9369 -616,9082 -970,9357 -985,9369 -1004,9305 -635,9019 -616,9004 -597,9019 -228,9305 140,9019 159,9004 178,9019 547,9305 916,9019 935,9004 954,9019 1323,9305 1691,9019 1710,9004 1729,9019 2098,9305 2467,9019 2486,9004 2505,9019 2873,9305 3242,9019 3261,9004 3280,9019 3649,9305 4018,9019 4037,9004 4055,9019 4424,9305 4793,9019 4812,9004 4831,9019 5200,9305 5568,9019 5587,9004 5606,9019 5975,9305 6344,9019 6363,9004 6382,9019 6751,9305 6732,9369 6716,9357 6363,9082 5994,9369 5975,9383 5956,9369 5587,9082 5219,9369 5200,9383 5181,9369 4812,9082 4443,9369 4424,9383 4405,9369 4037,9082 3668,9369 3649,9383 3630,9369 3261,9082 2892,9369 "/>
     <polygon class="fil0" points="2873,9556 2854,9541 2486,9255 2117,9541 2098,9556 2079,9541 1710,9255 1341,9541 1323,9556 1304,9541 935,9255 566,9541 547,9556 528,9541 159,9255 -209,9541 -228,9556 -247,9541 -616,9255 -970,9529 -985,9541 -1004,9478 -635,9191 -616,9177 -597,9191 -228,9478 140,9191 159,9177 178,9191 547,9478 916,9191 935,9177 954,9191 1323,9478 1691,9191 1710,9177 1729,9191 2098,9478 2467,9191 2486,9177 2505,9191 2873,9478 3242,9191 3261,9177 3280,9191 3649,9478 4018,9191 4037,9177 4055,9191 4424,9478 4793,9191 4812,9177 4831,9191 5200,9478 5568,9191 5587,9177 5606,9191 5975,9478 6344,9191 6363,9177 6382,9191 6751,9478 6732,9541 6716,9529 6363,9255 5994,9541 5975,9556 5956,9541 5587,9255 5219,9541 5200,9556 5181,9541 4812,9255 4443,9541 4424,9556 4405,9541 4037,9255 3668,9541 3649,9556 3630,9541 3261,9255 2892,9541 "/>
     <polygon class="fil0" points="2873,9728 2854,9713 2486,9427 2117,9713 2098,9728 2079,9713 1710,9427 1341,9713 1323,9728 1304,9713 935,9427 566,9713 547,9728 528,9713 159,9427 -209,9713 -228,9728 -247,9713 -616,9427 -970,9702 -985,9713 -1004,9650 -635,9364 -616,9349 -597,9364 -228,9650 140,9364 159,9349 178,9364 547,9650 916,9364 935,9349 954,9364 1323,9650 1691,9364 1710,9349 1729,9364 2098,9650 2467,9364 2486,9349 2505,9364 2873,9650 3242,9364 3261,9349 3280,9364 3649,9650 4018,9364 4037,9349 4055,9364 4424,9650 4793,9364 4812,9349 4831,9364 5200,9650 5568,9364 5587,9349 5606,9364 5975,9650 6344,9364 6363,9349 6382,9364 6751,9650 6732,9713 6716,9702 6363,9427 5994,9713 5975,9728 5956,9713 5587,9427 5219,9713 5200,9728 5181,9713 4812,9427 4443,9713 4424,9728 4405,9713 4037,9427 3668,9713 3649,9728 3630,9713 3261,9427 2892,9713 "/>
     <polygon class="fil0" points="2873,9901 2854,9886 2486,9600 2117,9886 2098,9901 2079,9886 1710,9600 1341,9886 1323,9901 1304,9886 935,9600 566,9886 547,9901 528,9886 159,9600 -209,9886 -228,9901 -247,9886 -616,9600 -970,9874 -985,9886 -1004,9822 -635,9536 -616,9521 -597,9536 -228,9822 140,9536 159,9521 178,9536 547,9822 916,9536 935,9521 954,9536 1323,9822 1691,9536 1710,9521 1729,9536 2098,9822 2467,9536 2486,9521 2505,9536 2873,9822 3242,9536 3261,9521 3280,9536 3649,9822 4018,9536 4037,9521 4055,9536 4424,9822 4793,9536 4812,9521 4831,9536 5200,9822 5568,9536 5587,9521 5606,9536 5975,9822 6344,9536 6363,9521 6382,9536 6751,9822 6732,9886 6716,9874 6363,9600 5994,9886 5975,9901 5956,9886 5587,9600 5219,9886 5200,9901 5181,9886 4812,9600 4443,9886 4424,9901 4405,9886 4037,9600 3668,9886 3649,9901 3630,9886 3261,9600 2892,9886 "/>
     <polygon class="fil0" points="2873,10073 2854,10058 2486,9772 2117,10058 2098,10073 2079,10058 1710,9772 1341,10058 1323,10073 1304,10058 935,9772 566,10058 547,10073 528,10058 159,9772 -209,10058 -228,10073 -247,10058 -616,9772 -970,10046 -985,10058 -1004,9995 -635,9709 -616,9694 -597,9709 -228,9995 140,9709 159,9694 178,9709 547,9995 916,9709 935,9694 954,9709 1323,9995 1691,9709 1710,9694 1729,9709 2098,9995 2467,9709 2486,9694 2505,9709 2873,9995 3242,9709 3261,9694 3280,9709 3649,9995 4018,9709 4037,9694 4055,9709 4424,9995 4793,9709 4812,9694 4831,9709 5200,9995 5568,9709 5587,9694 5606,9709 5975,9995 6344,9709 6363,9694 6382,9709 6751,9995 6732,10058 6716,10046 6363,9772 5994,10058 5975,10073 5956,10058 5587,9772 5219,10058 5200,10073 5181,10058 4812,9772 4443,10058 4424,10073 4405,10058 4037,9772 3668,10058 3649,10073 3630,10058 3261,9772 2892,10058 "/>
     <polygon class="fil0" points="2873,10245 2854,10231 2486,9944 2117,10231 2098,10245 2079,10231 1710,9944 1341,10231 1323,10245 1304,10231 935,9944 566,10231 547,10245 528,10231 159,9944 -209,10231 -228,10245 -247,10231 -616,9944 -970,10219 -985,10231 -1004,10167 -635,9881 -616,9866 -597,9881 -228,10167 140,9881 159,9866 178,9881 547,10167 916,9881 935,9866 954,9881 1323,10167 1691,9881 1710,9866 1729,9881 2098,10167 2467,9881 2486,9866 2505,9881 2873,10167 3242,9881 3261,9866 3280,9881 3649,10167 4018,9881 4037,9866 4055,9881 4424,10167 4793,9881 4812,9866 4831,9881 5200,10167 5568,9881 5587,9866 5606,9881 5975,10167 6344,9881 6363,9866 6382,9881 6751,10167 6732,10231 6716,10219 6363,9944 5994,10231 5975,10245 5956,10231 5587,9944 5219,10231 5200,10245 5181,10231 4812,9944 4443,10231 4424,10245 4405,10231 4037,9944 3668,10231 3649,10245 3630,10231 3261,9944 2892,10231 "/>
     <polygon class="fil0" points="2873,10418 2854,10403 2486,10117 2117,10403 2098,10418 2079,10403 1710,10117 1341,10403 1323,10418 1304,10403 935,10117 566,10403 547,10418 528,10403 159,10117 -209,10403 -228,10418 -247,10403 -616,10117 -970,10391 -985,10403 -1004,10340 -635,10053 -616,10039 -597,10053 -228,10340 140,10053 159,10039 178,10053 547,10340 916,10053 935,10039 954,10053 1323,10340 1691,10053 1710,10039 1729,10053 2098,10340 2467,10053 2486,10039 2505,10053 2873,10340 3242,10053 3261,10039 3280,10053 3649,10340 4018,10053 4037,10039 4055,10053 4424,10340 4793,10053 4812,10039 4831,10053 5200,10340 5568,10053 5587,10039 5606,10053 5975,10340 6344,10053 6363,10039 6382,10053 6751,10340 6732,10403 6716,10391 6363,10117 5994,10403 5975,10418 5956,10403 5587,10117 5219,10403 5200,10418 5181,10403 4812,10117 4443,10403 4424,10418 4405,10403 4037,10117 3668,10403 3649,10418 3630,10403 3261,10117 2892,10403 "/>
     <polygon class="fil0" points="2873,10590 2854,10575 2486,10289 2117,10575 2098,10590 2079,10575 1710,10289 1341,10575 1323,10590 1304,10575 935,10289 566,10575 547,10590 528,10575 159,10289 -209,10575 -228,10590 -247,10575 -616,10289 -970,10564 -985,10575 -1004,10512 -635,10226 -616,10211 -597,10226 -228,10512 140,10226 159,10211 178,10226 547,10512 916,10226 935,10211 954,10226 1323,10512 1691,10226 1710,10211 1729,10226 2098,10512 2467,10226 2486,10211 2505,10226 2873,10512 3242,10226 3261,10211 3280,10226 3649,10512 4018,10226 4037,10211 4055,10226 4424,10512 4793,10226 4812,10211 4831,10226 5200,10512 5568,10226 5587,10211 5606,10226 5975,10512 6344,10226 6363,10211 6382,10226 6751,10512 6732,10575 6716,10564 6363,10289 5994,10575 5975,10590 5956,10575 5587,10289 5219,10575 5200,10590 5181,10575 4812,10289 4443,10575 4424,10590 4405,10575 4037,10289 3668,10575 3649,10590 3630,10575 3261,10289 2892,10575 "/>
     <polygon class="fil0" points="2873,10762 2854,10748 2486,10462 2117,10748 2098,10762 2079,10748 1710,10462 1341,10748 1323,10762 1304,10748 935,10462 566,10748 547,10762 528,10748 159,10462 -209,10748 -228,10762 -247,10748 -616,10462 -970,10736 -985,10748 -1004,10684 -635,10398 -616,10383 -597,10398 -228,10684 140,10398 159,10383 178,10398 547,10684 916,10398 935,10383 954,10398 1323,10684 1691,10398 1710,10383 1729,10398 2098,10684 2467,10398 2486,10383 2505,10398 2873,10684 3242,10398 3261,10383 3280,10398 3649,10684 4018,10398 4037,10383 4055,10398 4424,10684 4793,10398 4812,10383 4831,10398 5200,10684 5568,10398 5587,10383 5606,10398 5975,10684 6344,10398 6363,10383 6382,10398 6751,10684 6732,10748 6716,10736 6363,10462 5994,10748 5975,10762 5956,10748 5587,10462 5219,10748 5200,10762 5181,10748 4812,10462 4443,10748 4424,10762 4405,10748 4037,10462 3668,10748 3649,10762 3630,10748 3261,10462 2892,10748 "/>
     <polygon class="fil0" points="2873,10935 2854,10920 2486,10634 2117,10920 2098,10935 2079,10920 1710,10634 1341,10920 1323,10935 1304,10920 935,10634 566,10920 547,10935 528,10920 159,10634 -209,10920 -228,10935 -247,10920 -616,10634 -970,10908 -985,10920 -1004,10857 -635,10570 -616,10556 -597,10570 -228,10857 140,10570 159,10556 178,10570 547,10857 916,10570 935,10556 954,10570 1323,10857 1691,10570 1710,10556 1729,10570 2098,10857 2467,10570 2486,10556 2505,10570 2873,10857 3242,10570 3261,10556 3280,10570 3649,10857 4018,10570 4037,10556 4055,10570 4424,10857 4793,10570 4812,10556 4831,10570 5200,10857 5568,10570 5587,10556 5606,10570 5975,10857 6344,10570 6363,10556 6382,10570 6751,10857 6732,10920 6716,10908 6363,10634 5994,10920 5975,10935 5956,10920 5587,10634 5219,10920 5200,10935 5181,10920 4812,10634 4443,10920 4424,10935 4405,10920 4037,10634 3668,10920 3649,10935 3630,10920 3261,10634 2892,10920 "/>
     <polygon class="fil0" points="2873,11107 2854,11093 2486,10806 2117,11093 2098,11107 2079,11093 1710,10806 1341,11093 1323,11107 1304,11093 935,10806 566,11093 547,11107 528,11093 159,10806 -209,11093 -228,11107 -247,11093 -616,10806 -970,11081 -985,11093 -1004,11029 -635,10743 -616,10728 -597,10743 -228,11029 140,10743 159,10728 178,10743 547,11029 916,10743 935,10728 954,10743 1323,11029 1691,10743 1710,10728 1729,10743 2098,11029 2467,10743 2486,10728 2505,10743 2873,11029 3242,10743 3261,10728 3280,10743 3649,11029 4018,10743 4037,10728 4055,10743 4424,11029 4793,10743 4812,10728 4831,10743 5200,11029 5568,10743 5587,10728 5606,10743 5975,11029 6344,10743 6363,10728 6382,10743 6751,11029 6732,11093 6716,11081 6363,10806 5994,11093 5975,11107 5956,11093 5587,10806 5219,11093 5200,11107 5181,11093 4812,10806 4443,11093 4424,11107 4405,11093 4037,10806 3668,11093 3649,11107 3630,11093 3261,10806 2892,11093 "/>
     <polygon class="fil0" points="2873,11280 2854,11265 2486,10979 2117,11265 2098,11280 2079,11265 1710,10979 1341,11265 1323,11280 1304,11265 935,10979 566,11265 547,11280 528,11265 159,10979 -209,11265 -228,11280 -247,11265 -616,10979 -970,11253 -985,11265 -1004,11201 -635,10915 -616,10901 -597,10915 -228,11201 140,10915 159,10901 178,10915 547,11201 916,10915 935,10901 954,10915 1323,11201 1691,10915 1710,10901 1729,10915 2098,11201 2467,10915 2486,10901 2505,10915 2873,11201 3242,10915 3261,10901 3280,10915 3649,11201 4018,10915 4037,10901 4055,10915 4424,11201 4793,10915 4812,10901 4831,10915 5200,11201 5568,10915 5587,10901 5606,10915 5975,11201 6344,10915 6363,10901 6382,10915 6751,11201 6732,11265 6716,11253 6363,10979 5994,11265 5975,11280 5956,11265 5587,10979 5219,11265 5200,11280 5181,11265 4812,10979 4443,11265 4424,11280 4405,11265 4037,10979 3668,11265 3649,11280 3630,11265 3261,10979 2892,11265 "/>
     <polygon class="fil0" points="2873,11452 2854,11437 2486,11151 2117,11437 2098,11452 2079,11437 1710,11151 1341,11437 1323,11452 1304,11437 935,11151 566,11437 547,11452 528,11437 159,11151 -209,11437 -228,11452 -247,11437 -616,11151 -970,11425 -985,11437 -1004,11374 -635,11088 -616,11073 -597,11088 -228,11374 140,11088 159,11073 178,11088 547,11374 916,11088 935,11073 954,11088 1323,11374 1691,11088 1710,11073 1729,11088 2098,11374 2467,11088 2486,11073 2505,11088 2873,11374 3242,11088 3261,11073 3280,11088 3649,11374 4018,11088 4037,11073 4055,11088 4424,11374 4793,11088 4812,11073 4831,11088 5200,11374 5568,11088 5587,11073 5606,11088 5975,11374 6344,11088 6363,11073 6382,11088 6751,11374 6732,11437 6716,11425 6363,11151 5994,11437 5975,11452 5956,11437 5587,11151 5219,11437 5200,11452 5181,11437 4812,11151 4443,11437 4424,11452 4405,11437 4037,11151 3668,11437 3649,11452 3630,11437 3261,11151 2892,11437 "/>
     <polygon class="fil0" points="2873,11624 2854,11610 2486,11323 2117,11610 2098,11624 2079,11610 1710,11323 1341,11610 1323,11624 1304,11610 935,11323 566,11610 547,11624 528,11610 159,11323 -209,11610 -228,11624 -247,11610 -616,11323 -970,11598 -985,11610 -1004,11546 -635,11260 -616,11245 -597,11260 -228,11546 140,11260 159,11245 178,11260 547,11546 916,11260 935,11245 954,11260 1323,11546 1691,11260 1710,11245 1729,11260 2098,11546 2467,11260 2486,11245 2505,11260 2873,11546 3242,11260 3261,11245 3280,11260 3649,11546 4018,11260 4037,11245 4055,11260 4424,11546 4793,11260 4812,11245 4831,11260 5200,11546 5568,11260 5587,11245 5606,11260 5975,11546 6344,11260 6363,11245 6382,11260 6751,11546 6732,11610 6716,11598 6363,11323 5994,11610 5975,11624 5956,11610 5587,11323 5219,11610 5200,11624 5181,11610 4812,11323 4443,11610 4424,11624 4405,11610 4037,11323 3668,11610 3649,11624 3630,11610 3261,11323 2892,11610 "/>
     <polygon class="fil0" points="2873,11797 2854,11782 2486,11496 2117,11782 2098,11797 2079,11782 1710,11496 1341,11782 1323,11797 1304,11782 935,11496 566,11782 547,11797 528,11782 159,11496 -209,11782 -228,11797 -247,11782 -616,11496 -970,11770 -985,11782 -1004,11719 -635,11432 -616,11418 -597,11432 -228,11719 140,11432 159,11418 178,11432 547,11719 916,11432 935,11418 954,11432 1323,11719 1691,11432 1710,11418 1729,11432 2098,11719 2467,11432 2486,11418 2505,11432 2873,11719 3242,11432 3261,11418 3280,11432 3649,11719 4018,11432 4037,11418 4055,11432 4424,11719 4793,11432 4812,11418 4831,11432 5200,11719 5568,11432 5587,11418 5606,11432 5975,11719 6344,11432 6363,11418 6382,11432 6751,11719 6732,11782 6716,11770 6363,11496 5994,11782 5975,11797 5956,11782 5587,11496 5219,11782 5200,11797 5181,11782 4812,11496 4443,11782 4424,11797 4405,11782 4037,11496 3668,11782 3649,11797 3630,11782 3261,11496 2892,11782 "/>
     <polygon class="fil0" points="2873,11969 2854,11954 2486,11668 2117,11954 2098,11969 2079,11954 1710,11668 1341,11954 1323,11969 1304,11954 935,11668 566,11954 547,11969 528,11954 159,11668 -209,11954 -228,11969 -247,11954 -616,11668 -970,11943 -985,11954 -1004,11891 -635,11605 -616,11590 -597,11605 -228,11891 140,11605 159,11590 178,11605 547,11891 916,11605 935,11590 954,11605 1323,11891 1691,11605 1710,11590 1729,11605 2098,11891 2467,11605 2486,11590 2505,11605 2873,11891 3242,11605 3261,11590 3280,11605 3649,11891 4018,11605 4037,11590 4055,11605 4424,11891 4793,11605 4812,11590 4831,11605 5200,11891 5568,11605 5587,11590 5606,11605 5975,11891 6344,11605 6363,11590 6382,11605 6751,11891 6732,11954 6716,11943 6363,11668 5994,11954 5975,11969 5956,11954 5587,11668 5219,11954 5200,11969 5181,11954 4812,11668 4443,11954 4424,11969 4405,11954 4037,11668 3668,11954 3649,11969 3630,11954 3261,11668 2892,11954 "/>
     <polygon class="fil0" points="2873,12142 2854,12127 2486,11841 2117,12127 2098,12142 2079,12127 1710,11841 1341,12127 1323,12142 1304,12127 935,11841 566,12127 547,12142 528,12127 159,11841 -209,12127 -228,12142 -247,12127 -616,11841 -970,12115 -985,12127 -1004,12063 -635,11777 -616,11763 -597,11777 -228,12063 140,11777 159,11763 178,11777 547,12063 916,11777 935,11763 954,11777 1323,12063 1691,11777 1710,11763 1729,11777 2098,12063 2467,11777 2486,11763 2505,11777 2873,12063 3242,11777 3261,11763 3280,11777 3649,12063 4018,11777 4037,11763 4055,11777 4424,12063 4793,11777 4812,11763 4831,11777 5200,12063 5568,11777 5587,11763 5606,11777 5975,12063 6344,11777 6363,11763 6382,11777 6751,12063 6732,12127 6716,12115 6363,11841 5994,12127 5975,12142 5956,12127 5587,11841 5219,12127 5200,12142 5181,12127 4812,11841 4443,12127 4424,12142 4405,12127 4037,11841 3668,12127 3649,12142 3630,12127 3261,11841 2892,12127 "/>
     <polygon class="fil0" points="2873,12314 2854,12299 2486,12013 2117,12299 2098,12314 2079,12299 1710,12013 1341,12299 1323,12314 1304,12299 935,12013 566,12299 547,12314 528,12299 159,12013 -209,12299 -228,12314 -247,12299 -616,12013 -970,12287 -985,12299 -1004,12236 -635,11950 -616,11935 -597,11950 -228,12236 140,11950 159,11935 178,11950 547,12236 916,11950 935,11935 954,11950 1323,12236 1691,11950 1710,11935 1729,11950 2098,12236 2467,11950 2486,11935 2505,11950 2873,12236 3242,11950 3261,11935 3280,11950 3649,12236 4018,11950 4037,11935 4055,11950 4424,12236 4793,11950 4812,11935 4831,11950 5200,12236 5568,11950 5587,11935 5606,11950 5975,12236 6344,11950 6363,11935 6382,11950 6751,12236 6732,12299 6716,12287 6363,12013 5994,12299 5975,12314 5956,12299 5587,12013 5219,12299 5200,12314 5181,12299 4812,12013 4443,12299 4424,12314 4405,12299 4037,12013 3668,12299 3649,12314 3630,12299 3261,12013 2892,12299 "/>
     <polygon class="fil0" points="2873,12486 2854,12472 2486,12185 2117,12472 2098,12486 2079,12472 1710,12185 1341,12472 1323,12486 1304,12472 935,12185 566,12472 547,12486 528,12472 159,12185 -209,12472 -228,12486 -247,12472 -616,12185 -970,12460 -985,12472 -1004,12408 -635,12122 -616,12107 -597,12122 -228,12408 140,12122 159,12107 178,12122 547,12408 916,12122 935,12107 954,12122 1323,12408 1691,12122 1710,12107 1729,12122 2098,12408 2467,12122 2486,12107 2505,12122 2873,12408 3242,12122 3261,12107 3280,12122 3649,12408 4018,12122 4037,12107 4055,12122 4424,12408 4793,12122 4812,12107 4831,12122 5200,12408 5568,12122 5587,12107 5606,12122 5975,12408 6344,12122 6363,12107 6382,12122 6751,12408 6732,12472 6716,12460 6363,12185 5994,12472 5975,12486 5956,12472 5587,12185 5219,12472 5200,12486 5181,12472 4812,12185 4443,12472 4424,12486 4405,12472 4037,12185 3668,12472 3649,12486 3630,12472 3261,12185 2892,12472 "/>
     <polygon class="fil0" points="2873,12659 2854,12644 2486,12358 2117,12644 2098,12659 2079,12644 1710,12358 1341,12644 1323,12659 1304,12644 935,12358 566,12644 547,12659 528,12644 159,12358 -209,12644 -228,12659 -247,12644 -616,12358 -970,12632 -985,12644 -1004,12581 -635,12294 -616,12280 -597,12294 -228,12581 140,12294 159,12280 178,12294 547,12581 916,12294 935,12280 954,12294 1323,12581 1691,12294 1710,12280 1729,12294 2098,12581 2467,12294 2486,12280 2505,12294 2873,12581 3242,12294 3261,12280 3280,12294 3649,12581 4018,12294 4037,12280 4055,12294 4424,12581 4793,12294 4812,12280 4831,12294 5200,12581 5568,12294 5587,12280 5606,12294 5975,12581 6344,12294 6363,12280 6382,12294 6751,12581 6732,12644 6716,12632 6363,12358 5994,12644 5975,12659 5956,12644 5587,12358 5219,12644 5200,12659 5181,12644 4812,12358 4443,12644 4424,12659 4405,12644 4037,12358 3668,12644 3649,12659 3630,12644 3261,12358 2892,12644 "/>
     <polygon class="fil0" points="2873,12831 2854,12816 2486,12530 2117,12816 2098,12831 2079,12816 1710,12530 1341,12816 1323,12831 1304,12816 935,12530 566,12816 547,12831 528,12816 159,12530 -209,12816 -228,12831 -247,12816 -616,12530 -970,12805 -985,12816 -1004,12753 -635,12467 -616,12452 -597,12467 -228,12753 140,12467 159,12452 178,12467 547,12753 916,12467 935,12452 954,12467 1323,12753 1691,12467 1710,12452 1729,12467 2098,12753 2467,12467 2486,12452 2505,12467 2873,12753 3242,12467 3261,12452 3280,12467 3649,12753 4018,12467 4037,12452 4055,12467 4424,12753 4793,12467 4812,12452 4831,12467 5200,12753 5568,12467 5587,12452 5606,12467 5975,12753 6344,12467 6363,12452 6382,12467 6751,12753 6732,12816 6716,12805 6363,12530 5994,12816 5975,12831 5956,12816 5587,12530 5219,12816 5200,12831 5181,12816 4812,12530 4443,12816 4424,12831 4405,12816 4037,12530 3668,12816 3649,12831 3630,12816 3261,12530 2892,12816 "/>
    </g>
   </g>
  </g>
  <polygon class="fil1" points="0,0 5747,0 5747,12315 0,12315 "/>
 </g>
</svg>
