<?xml version="1.0" encoding="UTF-8"?>
<!DOCTYPE svg PUBLIC "-//W3C//DTD SVG 1.1//EN" "http://www.w3.org/Graphics/SVG/1.1/DTD/svg11.dtd">
<!-- Creator: CorelDRAW X6 -->
<svg xmlns="http://www.w3.org/2000/svg" xml:space="preserve" width="36.1277mm" height="43.2823mm" version="1.1" style="shape-rendering:geometricPrecision; text-rendering:geometricPrecision; image-rendering:optimizeQuality; fill-rule:evenodd; clip-rule:evenodd"
viewBox="0 0 1096 1313"
 xmlns:xlink="http://www.w3.org/1999/xlink">
 <defs>
  <style type="text/css">
   <![CDATA[
    .str0 {stroke:#676F74;stroke-width:3.03243}
    .str6 {stroke:#676F74;stroke-width:6.06487;stroke-linecap:round}
    .str3 {stroke:#676F74;stroke-width:6.06487;stroke-linecap:round;stroke-linejoin:round}
    .str4 {stroke:#676F74;stroke-width:7.58109}
    .str1 {stroke:#332C2B;stroke-width:9.0973}
    .str5 {stroke:#676F74;stroke-width:10.6135}
    .str2 {stroke:#FCE3CD;stroke-width:22.7433;stroke-linecap:round;stroke-linejoin:round}
    .fil4 {fill:none}
    .fil2 {fill:#332C2B}
    .fil3 {fill:#888888}
    .fil0 {fill:#676F74}
    .fil1 {fill:#E3C6C6}
    .fil6 {fill:#676F74;fill-rule:nonzero}
    .fil5 {fill:#E3C6C6;fill-rule:nonzero}
   ]]>
  </style>
    <clipPath id="id0">
     <path d="M451 387c-9,-1 -15,3 -24,5 -8,2 -17,1 -25,1 -12,1 -24,0 -36,3 -9,2 -17,5 -24,10 -8,5 -13,13 -20,19 -6,6 -12,12 -17,19 -7,10 -13,21 -19,32 -5,9 -11,19 -13,29 -2,11 1,22 0,33 -1,10 -6,19 -6,28 0,11 1,22 4,33 2,9 6,18 10,26 5,11 10,22 17,32 6,8 13,15 21,21 9,8 20,15 30,22 10,7 19,14 31,19 11,5 24,7 36,8 10,1 20,0 30,-1 15,-1 30,0 44,-2 13,-2 25,-7 37,-13 8,-4 16,-10 23,-16 9,-7 17,-15 24,-24 9,-12 18,-24 23,-38 5,-11 6,-24 7,-36 2,-13 4,-25 4,-38 0,-12 -3,-24 -5,-36 -2,-11 -3,-23 -7,-34 -3,-8 -8,-16 -13,-23 -5,-8 -9,-16 -15,-23 -6,-7 -14,-12 -21,-18 -7,-6 -15,-12 -23,-15 -12,-5 -26,-7 -38,-12 -11,-4 -21,-10 -33,-12z"/>
    </clipPath>
 </defs>
 <g id="Layer_x0020_1">
  <metadata id="CorelCorpID_0Corel-Layer"/>
  <g id="_429168344">
   <path class="fil0 str0" d="M579 198c-1,-3 0,-19 -1,-27 -7,-38 -48,-64 -87,-56 -16,3 -28,10 -43,15 -39,15 -65,-9 -102,-3 -18,3 -26,12 -36,22 -9,10 -15,25 -19,40 -9,-2 -19,-22 -51,-23 -25,0 -38,11 -49,24 -11,13 -17,33 -26,47 -27,44 -50,37 -83,63 -10,8 -26,24 -30,42 -5,26 10,45 24,56l14 13c3,3 17,13 18,17 -4,0 -9,-1 -14,-2 -33,-2 -57,4 -80,29 -20,22 -15,47 -9,74 2,9 4,17 5,26 2,11 -5,43 -8,53 -4,14 -5,43 2,55 6,11 22,23 33,30 15,9 25,16 43,19 0,3 -5,6 -7,8 -8,8 -14,17 -18,28 -4,10 -4,14 -1,25 1,5 10,13 14,16 21,19 52,30 69,53 5,6 8,13 11,20 12,29 12,21 5,31 -35,53 -38,125 -14,185 6,15 12,29 20,42 2,3 4,7 6,10l13 19c2,3 4,6 6,9l28 33c3,3 5,5 7,8 11,12 36,37 47,45l8 7c18,16 48,33 60,55 2,3 1,3 3,4 2,-1 2,-2 2,-5l4 -18c5,-19 13,-35 21,-53 2,-4 2,-6 5,-10 3,-6 8,-12 11,-18 3,-7 7,-12 12,-18l11 -18c16,-25 29,-51 39,-78 8,-21 14,-51 15,-74 2,-56 -9,-58 13,-55 5,1 8,2 12,3 6,2 14,6 21,8 15,6 33,9 48,1 29,-15 34,-46 30,-75 -1,-8 1,-5 4,-2 10,10 24,15 38,19 19,4 39,-3 55,-9 23,-8 24,-11 39,-17l21 -11c2,-1 3,-2 4,-3l9 -7c9,-7 15,-19 18,-30 7,-28 2,-53 24,-72 6,-5 13,-9 18,-14 13,-13 9,-34 0,-48 -2,-4 -13,-15 -13,-19 4,-5 68,-24 73,-77 3,-30 -10,-34 -15,-58 -5,-22 4,-41 9,-60 0,-1 0,-1 1,-2 1,-3 21,-8 26,-10 16,-5 32,-11 47,-18 4,-2 7,-3 11,-6l10 -6c7,-4 15,-8 21,-12l9 -8c4,-3 6,-4 9,-7 6,-5 10,-12 16,-17 12,-11 29,-48 36,-64 7,-16 11,-33 15,-50 7,-26 12,-52 21,-78 2,-5 8,-21 8,-25 -3,1 -6,4 -11,6 -13,4 -33,1 -46,0 -45,-3 -106,-16 -148,-15 -7,0 -25,2 -30,1 -2,-9 -2,-20 -3,-29 -1,-6 -2,-8 -3,-14 -1,-13 -7,-26 -11,-38 -4,-9 -5,-15 -10,-23 -2,-3 -4,-8 -5,-11 -3,-8 -8,-14 -12,-21 -4,-7 -10,-13 -14,-19 -2,-3 -5,-6 -7,-9 -4,-4 -12,-14 -16,-16 -4,2 -21,17 -28,22 -15,9 -30,19 -44,30 -5,4 -9,7 -13,12 -4,5 -8,8 -12,12 -6,6 -11,15 -16,22 -12,16 -13,22 -21,40 -11,25 -3,26 -17,32 -11,5 -43,26 -47,27z"/>
   <path class="fil1" d="M711 227c7,0 20,17 22,27 0,-1 1,-1 1,-2 14,-18 38,-45 60,-52 11,-6 21,-12 33,-14 8,-2 16,-3 24,-4l0 0c-1,-9 -1,-19 -3,-28 -1,-5 -2,-9 -3,-15 -1,-12 -6,-24 -11,-36 -3,-8 -5,-15 -9,-22 -2,-4 -4,-8 -6,-12 -3,-7 -8,-13 -11,-19 -4,-7 -9,-12 -14,-19 -2,-3 -4,-5 -6,-8 -2,-2 -7,-8 -10,-11 -3,2 -7,6 -9,8 -4,4 -9,8 -14,11 -15,9 -30,19 -43,29 -4,3 -8,6 -11,10 -4,5 -9,8 -13,13 -6,6 -10,15 -15,21 -4,6 -8,12 -11,18 -3,7 -6,14 -9,20 -2,5 -4,11 -6,16 -1,4 0,5 -2,8 11,-1 23,-4 42,11 15,14 27,23 25,48z"/>
   <path class="fil1" d="M868 479c7,-3 16,-5 21,-6 16,-5 32,-11 46,-18 4,-2 7,-3 10,-5l10 -6c6,-4 14,-7 20,-11l9 -8 0 0c3,-2 6,-4 9,-7 6,-6 10,-12 16,-18 11,-10 28,-46 33,-61 6,-16 10,-33 15,-49 7,-26 12,-53 21,-78 1,-2 2,-5 3,-7 -14,3 -30,0 -44,-1 -23,-2 -46,-5 -68,-8 -26,-3 -53,-7 -79,-7 -9,0 -29,3 -37,1 -25,5 -26,1 -56,18 -19,6 -42,31 -56,50 -1,1 4,7 17,12 19,8 51,19 63,45 11,21 0,56 -20,89 20,-1 51,9 58,22 10,18 10,38 9,54z"/>
   <path class="fil1 str0" d="M165 894c-1,1 -2,3 -3,4 -34,51 -35,121 -13,177 5,14 11,28 19,41 2,3 3,7 6,10l12 19c2,3 4,6 6,8l27 33c3,3 5,5 7,8 7,7 14,15 22,22 7,7 16,16 24,23l0 0 8 7 0 0c17,15 40,28 54,46l1 -6 0 0c5,-19 13,-36 22,-54 2,-4 3,-7 5,-11 3,-6 8,-12 11,-18 3,-7 8,-13 12,-19l11 -18c15,-24 28,-50 39,-77 8,-21 14,-48 14,-71 1,-13 0,-26 -1,-40 0,-3 -1,-7 0,-11 -5,1 -11,3 -16,2 -3,2 -6,2 -10,3 -4,1 -7,2 -11,2 -9,1 -15,2 -24,1l-4 -1c0,0 0,0 -1,0l0 0 -2 0 0 0c-1,0 -3,0 -4,0 -7,-1 -17,-3 -21,-9l0 0c-9,-2 -22,-18 -27,-27 -6,-11 -11,-21 -13,-34l0 -1c-11,11 -22,21 -37,27 -11,4 -29,10 -41,7l-3 -1c-4,1 -8,0 -15,-1 -6,-1 -11,-3 -16,-7l-1 0c-7,-2 -13,-7 -18,-12l-3 -3c-2,-1 -4,-4 -6,-6l0 -1 -8 -12z"/>
   <path class="fil0 str0" d="M454 184c1,-2 0,0 1,-3 0,0 1,-3 1,-3 2,-11 4,-22 8,-33 2,-6 1,-13 8,-16 11,-5 26,-9 38,-8 25,3 19,5 13,23 -2,6 -4,13 -4,20 2,-2 0,1 2,-3 4,-9 6,-27 13,-33 17,4 -2,15 2,23 0,0 0,0 0,-1l4 -7c1,-2 3,-5 4,-8 3,0 3,0 5,2 1,1 2,2 3,3 14,16 23,38 19,61 -1,6 -7,10 -10,14 -18,23 -25,55 -32,84 -6,24 -14,47 -22,70 -3,7 -10,28 -13,33 -1,-5 0,-8 2,-12 4,-10 11,-30 10,-40 -5,5 -8,32 -14,39 -10,-7 4,-22 2,-53 0,7 -6,36 -9,43 -4,0 -5,-1 -8,-2 -1,-14 3,-27 1,-43 -1,7 -1,15 -2,22 -1,6 -1,16 -3,21 -12,3 -7,-2 -8,-19 0,0 0,1 0,1 -1,3 -1,6 -2,9 -2,8 0,12 -5,15 -2,1 -4,4 -5,3 -2,-3 -1,-18 -1,-22 -1,2 0,-2 -2,3 0,0 0,3 0,3l-2 19c-1,11 -4,12 -6,22 -4,-4 -1,-31 -3,-40 -5,7 2,40 -5,48 -1,-9 -2,-13 -4,-21l-3 -22c-1,-4 -4,-40 -7,-44 0,20 4,36 5,55 -4,0 -2,0 -5,-3 -6,-5 -6,-5 -7,-14 -1,-6 -4,-12 -5,-18 -1,-3 0,-3 -1,-5 -1,7 1,13 2,19 1,5 5,12 -3,12 -5,0 -4,-1 -5,-5 -1,-3 -4,-22 -6,-24 -1,14 8,33 -1,33 -3,-4 -12,-42 -16,-51 -1,6 6,28 8,35 6,21 8,12 2,33l-9 -23c-1,-2 0,0 -1,-2l-1 -1c0,7 4,19 6,26 3,13 5,8 4,25 -3,-8 -6,-11 -9,-20 -4,-13 -12,-28 -17,-40l-8 -20c-1,2 0,3 1,6l7 17c4,11 10,27 15,36 2,3 6,16 9,26l0 5c0,0 0,0 0,1 0,0 0,0 0,-1l-14 -22c-1,-2 -3,-5 -4,-7l-16 -31c-11,-20 -21,-42 -31,-64 -18,-42 -31,-91 -15,-136 1,-2 2,-6 3,-8 2,-4 2,-6 5,-7 3,3 6,22 7,29 0,1 0,1 1,2 1,2 0,0 1,2 0,-11 -6,-29 -4,-40 1,-5 17,-18 26,-16 2,2 4,12 5,16l5 17c0,-6 0,-6 -1,-11 -1,-3 -1,-7 -1,-11 -1,-3 -2,-7 -1,-11 1,-2 5,-5 7,-2 2,2 3,10 4,13l1 4c0,-3 0,-7 0,-10 0,-1 0,-3 0,-4 0,-5 0,-2 1,-3 3,-3 38,6 41,8 5,4 3,15 3,23 0,10 1,16 2,24 3,-4 2,-28 2,-32 0,-13 4,-15 15,-15l3 1c1,-2 1,6 1,7 -1,7 0,5 2,7 1,-5 1,-11 3,-15 2,-1 5,-2 9,-2 1,5 -1,19 -1,27 2,-10 3,-19 5,-29 15,-6 17,-7 16,-2l-4 21c-2,9 -4,17 -4,26z"/>
   <path class="fil0 str0" d="M329 410c-1,3 0,3 -3,4l0 12c-6,0 -2,-2 -4,0 1,2 4,5 5,7 2,2 3,4 4,7 2,4 7,12 8,16l2 3c0,1 0,2 0,2l-1 2c0,0 0,0 0,0 -2,3 -4,3 -7,2 0,0 -2,-1 -2,-1 -2,-1 -1,0 -2,-2 -3,-3 -5,-5 -9,-7l-23 -18c0,0 0,0 0,0l-1 -1c-2,-2 0,0 -3,-1l2 3c0,0 0,0 0,0 3,2 8,6 10,9 -7,4 -14,-4 -19,-7 -5,-3 -11,-9 -16,-12 1,2 0,0 1,2l4 4c1,1 2,2 3,3 0,0 1,1 1,1 3,3 11,7 11,12 -3,3 -4,3 -7,1 -5,-3 -15,-12 -20,-13 1,1 8,8 10,10 5,4 10,6 9,9 -6,1 -20,-13 -27,-14 3,3 15,13 19,15 4,2 5,2 5,7 -9,-1 -18,-10 -27,-11l10 7c18,9 15,6 21,22 -5,1 -60,-25 -71,-29 -3,-1 -6,-3 -9,-4 4,2 7,4 12,6 5,2 8,4 13,6 7,3 62,28 65,30 3,3 8,6 9,9 -6,0 -66,-22 -72,-25 -24,-9 -46,-20 -69,-29l-36 -14c-11,-7 -36,-29 -45,-40 -5,-6 -25,-34 -17,-41 2,-2 8,3 10,5 22,14 43,31 67,42l-3 -3c-2,-2 -4,-3 -7,-4l-52 -35c-10,-7 -20,-13 -12,-26 5,-8 9,-3 15,-3 -1,-3 -2,-2 -3,-5 -7,-9 11,-19 17,-23 12,-8 11,-10 23,0l7 5c-1,-7 -9,-9 -12,-15l2 -2c16,-11 19,-4 31,7 7,7 13,13 20,20l3 4c0,0 0,0 0,0l3 2c-1,-3 -5,-6 -7,-9l-10 -11c-27,-29 -24,-20 -2,-42 10,-10 11,-6 19,4 1,2 3,4 4,6 2,2 2,4 4,5 -1,-3 -5,-9 -6,-12 -2,-3 -6,-9 -7,-11 -3,-8 7,-23 10,-24 4,2 7,9 9,13 2,3 3,5 4,7l29 47c9,13 16,27 26,40 1,-1 0,0 0,-2l0 -1c0,0 -1,-2 -2,-3 -1,-2 -2,-3 -3,-5 -2,-4 -4,-7 -7,-10l-13 -19c-9,-13 -16,-26 -24,-41 -4,-8 -8,-14 -12,-21 -5,-9 -7,-13 -1,-23 6,-9 19,-32 32,-32 2,3 2,4 4,7l4 7c0,0 0,-1 0,-1l0 -2c0,-1 0,-1 -1,-2 0,-1 -1,-3 -1,-4 -1,-3 -2,-5 -1,-9 9,-5 11,4 15,13 1,2 1,2 2,4 0,1 1,1 1,2 1,2 0,0 1,2 0,-10 -13,-26 6,-21 3,1 6,1 8,2 6,2 9,3 14,7 5,3 8,6 13,10 6,6 4,6 4,16 -2,46 20,94 40,134 5,10 9,19 15,29l8 14c2,5 6,10 7,15 -4,-1 -10,-3 -12,-7l-17 -30c0,0 0,0 0,-1l-2 -2c0,4 2,5 3,7l3 6c1,2 1,2 2,4l7 13c3,6 -2,5 -5,1 -1,-1 -1,-2 -2,-3l-24 -36c1,5 11,19 14,24 3,4 16,21 6,22l-11 -16c-1,-1 -1,-1 -1,-2 -2,-3 -9,-10 -9,-13 0,3 0,2 1,4 0,0 0,0 0,0 0,0 0,0 0,1 1,2 2,3 3,5 2,3 4,6 5,9 5,10 10,13 10,17z"/>
   <path class="fil0 str0" d="M455 489c-2,0 -4,-1 -6,-1 0,0 -2,0 -2,0 -2,0 0,-1 -2,1 -2,0 -1,1 -4,2 -1,-1 -3,-14 -3,-15 0,-5 1,-12 1,-17 0,-11 1,-22 4,-32 3,-10 5,-19 9,-28 13,-25 36,-13 32,12 -1,5 -6,25 -8,28 -5,10 -10,32 -15,40 -2,3 -4,10 -6,12 -1,-1 -1,1 -2,-2z"/>
   <path class="fil0 str0" d="M414 491c-4,-1 -5,-4 -8,-11 -2,-5 -4,-9 -5,-13 -4,-12 -5,-17 -7,-31 -9,-56 15,-59 27,-38 9,15 11,25 11,45 0,18 7,47 5,49 -4,3 -4,-6 -7,-10 -3,5 3,6 1,12 -4,-1 -6,-10 -7,-13 -2,5 2,4 1,9 0,0 -1,0 -1,0l-2 0c0,0 -2,-1 -3,-1 -2,-1 -1,0 -2,-3 0,3 0,3 -2,5z"/>
   <path class="fil0 str0" d="M382 481c1,0 0,-1 -1,-1 0,0 1,1 1,1z"/>
   <path class="fil0 str0" d="M351 409c6,3 8,5 11,9 8,11 24,37 30,48l7 13c2,3 6,9 7,12l-11 4c-2,-3 -4,-4 -6,-6l-4 -5c-1,-1 0,0 -1,-1 2,4 7,12 9,14 6,5 -1,9 -5,11 -6,-2 -15,-14 -20,-20 -2,-2 -3,-4 -4,-6 -3,-4 -7,-6 -12,-17 -5,-11 -27,-44 -15,-55 4,-3 10,-3 15,0z"/>
   <path class="fil0 str0" d="M490 480c0,0 3,-3 3,-6l-2 3c-1,2 -1,-1 -1,3z"/>
   <path class="fil0 str0" d="M479 481c0,0 0,0 0,0 2,0 -1,-3 -1,0 0,2 1,0 1,0z"/>
   <path class="fil0 str0" d="M463 490c1,-8 12,-26 15,-34l9 -20c27,-56 64,-21 46,2 -2,2 -3,2 -5,5 -2,2 -2,4 -4,6 -7,8 -4,6 -8,11 -6,8 -12,13 -18,21 -3,4 -6,7 -9,11 -3,3 -5,9 -9,10 -4,-6 -4,-3 2,-11 3,-4 5,-7 7,-11 -2,1 -3,2 -4,5l-8 11c-2,3 -1,3 -6,3 1,-4 2,-6 4,-9 3,-7 4,-5 2,-8 -4,2 -2,7 -7,12 -3,-2 0,-1 -6,-3 -1,0 -1,1 -1,0 0,0 0,0 -1,0z"/>
   <path class="fil0 str0" d="M210 501c1,1 -1,0 2,1l7 1c3,0 1,1 3,-1l-12 -1z"/>
   <path class="fil0 str0" d="M153 556c-4,-2 -9,0 -13,-2 -6,-2 -6,-1 -13,-2 -8,-2 -16,-3 -25,-5l-18 -4c-16,-4 -56,-18 -70,-26 -7,-4 -5,-28 -3,-37 1,-5 3,-3 5,-4l3 -1c-2,-1 -4,-1 -4,-4 0,-11 17,1 22,3l11 3c-5,-1 -10,-4 -15,-7 -17,-8 -16,-9 -1,-22 8,-6 7,-4 15,0l20 9c3,1 11,6 15,4l-11 -3c-2,-1 -28,-12 -29,-15 0,0 0,0 0,0 3,-5 22,-9 30,-10 45,-3 83,16 122,33 9,4 18,7 28,11 9,4 19,7 29,11 5,2 26,8 27,11 -4,3 -10,3 -15,1 -5,-2 -42,-13 -46,-12l48 15c-1,6 -4,5 -10,4 -7,-2 -30,-9 -36,-6l5 2c2,0 3,0 5,1l29 7c1,3 0,5 -1,8 -8,0 -35,-4 -38,-3 6,2 14,3 20,5 8,2 17,0 18,5 -4,4 -13,0 -19,4 17,2 21,-1 22,6 -5,1 -13,0 -19,0 -5,0 -11,-1 -16,0l-1 1c9,2 39,2 45,5 3,2 9,3 11,5 -7,3 -69,-1 -83,-1 12,5 61,2 78,7l-45 1c2,1 4,2 6,2 8,0 37,-1 41,1 -4,2 -43,4 -52,4 -5,0 -13,-1 -17,1 9,0 57,-2 59,-1 0,1 0,2 -2,3 -1,1 -20,2 -26,3l-4 1c5,0 9,0 14,0 4,0 8,-1 10,2l-46 6c-4,0 -11,0 -14,1 7,2 21,0 27,-1 5,-1 10,0 15,0 4,0 8,-1 12,0l3 1c1,9 -10,9 -18,11l-19 3c-1,0 -3,0 -4,0l-3 1c9,0 15,0 24,-1 3,-1 17,-3 19,-2 7,6 -23,10 -27,10 -5,1 -29,5 -33,4 8,5 51,-7 63,-6l6 7c-8,3 -20,7 -29,9l-30 9c9,1 46,-10 56,-14 10,-4 8,-2 19,-1 -2,4 -2,3 -6,4l-50 19c5,1 31,-9 38,-12 6,-2 32,-12 37,-11 -2,0 -13,7 -17,9 -6,3 -12,6 -18,9 -10,5 -27,12 -36,18 -11,7 -59,30 -71,35 -12,6 -24,12 -36,18 -19,10 -18,12 -40,7 -18,-4 -41,-14 -52,-28 -3,-3 -10,-11 -10,-16 9,-1 36,-1 42,-4 -12,-2 -30,0 -44,0 -1,-2 -4,-6 -3,-9 0,0 0,0 0,-1 0,0 0,0 0,-1 0,-3 27,-7 32,-8 12,-1 22,-2 35,-3 7,0 15,2 22,0 2,0 1,0 2,-1 -19,-3 -51,0 -71,3 -22,3 -22,4 -22,-5 0,-2 0,-4 0,-7 0,-4 1,-8 2,-12 1,-7 3,-15 5,-21 8,-1 25,3 33,3 12,1 24,0 36,0 11,0 25,0 36,-1 5,-1 11,-1 16,-2 4,-1 10,-3 15,-3l-33 2c-18,2 -93,2 -100,-5 -2,-2 -1,-6 0,-8 1,-3 1,-7 2,-9 11,1 27,6 37,5 -5,-3 -29,-6 -36,-6 -1,-3 -2,-12 -2,-16 4,-1 18,4 23,5 7,2 17,4 26,3l-1 -1c-6,-2 4,1 -1,0l-27 -5c-3,0 -15,-4 -18,-5 -4,-2 -8,-23 -8,-27 4,0 12,4 17,6 11,4 21,7 32,11 9,3 33,9 43,11 4,1 5,2 8,2 7,1 11,2 19,2 7,0 10,3 20,2z"/>
   <path class="fil0 str0" d="M609 356c-3,4 -8,8 -12,12 -7,8 -29,33 -32,40 6,-3 8,-7 12,-12 4,-6 29,-33 32,-40z"/>
   <path class="fil0 str0" d="M574 361c-1,0 -2,2 -3,2 0,1 -2,1 -1,3 1,-1 3,-4 4,-5z"/>
   <path class="fil0 str0" d="M628 375c-2,0 -3,0 -5,5l4 -1c3,-2 2,-1 2,-3z"/>
   <path class="fil0 str0" d="M624 401c0,0 0,-1 -1,0 0,0 0,0 1,0l0 0z"/>
   <path class="fil0 str0" d="M574 428c5,-2 12,-10 17,-15l3 -3c-3,3 -16,11 -19,18z"/>
   <path class="fil0 str0" d="M496 414c0,-3 15,-34 17,-41 5,-15 10,-28 15,-43 10,-29 14,-63 28,-89 8,-16 15,-23 26,-33 14,-12 42,-29 61,-33 7,-1 25,-3 18,7 -5,7 -24,21 -28,31 3,-1 1,1 4,-3 6,-7 22,-25 29,-27 5,-2 13,-1 15,2 -1,3 -4,4 -5,7 -2,2 -4,5 -5,7 5,-2 10,-7 14,-10 6,5 10,12 15,20 6,12 0,17 -6,23 -5,6 -12,11 -18,16 -4,3 -5,4 -9,8 -3,2 -7,5 -8,9 3,-1 9,-6 11,-8 8,-6 23,-19 32,-22 10,-3 17,6 5,16l-10 8c-3,3 -7,6 -8,11l0 1c8,-7 29,-30 38,-14 -4,1 -10,9 -14,12 2,0 7,-3 9,-4 2,-1 6,-4 8,-5l20 15c-2,2 -1,1 -2,2 0,0 -2,1 -2,1 -22,9 -46,27 -64,43l-41 40c-3,3 -12,11 -12,14 3,0 4,-1 6,-4l13 -14c16,-17 40,-40 58,-53l23 -14c22,-12 23,-11 41,-4 4,2 8,4 12,6 11,5 13,10 20,15 -2,2 -5,4 -8,6 -2,1 -3,2 -4,3l-4 2c0,0 0,0 -1,0 5,0 16,-8 20,-7 3,2 8,13 7,19 -11,5 -16,4 -33,15 -1,1 0,0 -2,1 -1,0 -1,1 -2,1 5,0 28,-13 36,-12 9,1 -4,34 -6,38 -5,11 -13,19 -20,26 -4,5 -6,7 -15,8 -18,2 -40,8 -57,12 -24,6 -46,14 -69,24 -11,4 -21,9 -31,15 -3,1 -5,3 -8,4 -5,3 -16,11 -22,12 0,0 3,-10 3,-11 1,-2 6,-4 9,-5 9,-3 46,-24 50,-31 -4,1 -23,13 -28,16 -7,4 -15,7 -22,12 -4,3 -3,3 -8,3 1,-5 1,-4 6,-5 6,-3 11,-8 16,-12l21 -16c0,0 0,0 1,-1 -5,1 -18,12 -23,14l-11 7c-2,2 -5,5 -7,6l-3 0c0,0 0,0 -1,0 -2,-5 3,-7 7,-10 3,-3 6,-5 9,-7 5,-4 14,-9 17,-12l2 -3c-6,2 -10,7 -15,11 -6,5 -18,15 -24,15 -2,-3 -4,-5 -1,-7 7,-7 32,-27 41,-34l2 -3c-3,0 -1,0 -4,2 -1,1 -2,1 -3,2 -2,2 -4,3 -6,5 -9,7 -29,21 -35,29 -4,0 -6,0 -9,-1 0,-6 4,-6 7,-10 -2,1 -4,3 -6,5 -2,2 -4,3 -6,4 -1,1 -16,6 -16,6 1,-4 2,-4 4,-6 1,-1 1,-1 1,-1 1,-1 1,0 1,-1 4,-3 11,-7 11,-13 -9,2 -13,13 -19,18 -1,1 -2,2 -4,3 -3,2 -1,1 -4,2l2 -3c5,-9 13,-15 21,-25 3,-3 5,-5 6,-10 -2,0 -2,1 -4,2 -1,1 -2,2 -3,3l-10 13c-2,2 -1,1 -3,3 -3,3 0,2 -3,2 1,-4 1,-3 2,-6 3,-12 -5,-6 9,-21l17 -21c5,-6 16,-19 19,-25 -4,2 -23,25 -29,33 -2,2 -4,4 -6,6 -3,3 -9,12 -12,13 -6,-4 -1,-8 2,-11 4,-5 24,-31 24,-33l-18 20c-3,4 -5,7 -8,11 -3,4 -5,9 -10,6 0,-5 19,-26 20,-34l-22 29c-2,2 -8,4 -7,0 2,-6 13,-17 14,-25l-4 4c-3,5 -12,19 -15,22 -2,2 -8,4 -11,3 0,-6 9,-15 8,-22l-2 5c-1,2 -2,3 -2,4l-16 24z"/>
   <path class="fil0 str0" d="M602 472c3,-2 7,-3 10,-5 55,-30 126,-52 188,-55 27,-1 51,6 58,34 3,11 -2,6 -19,7 -18,0 -37,4 -53,7 3,2 7,1 10,0 15,-3 36,-4 51,-3 8,0 15,-1 12,8 -9,3 -23,-2 -37,4 5,2 31,-3 36,2 2,3 -9,43 -11,48 -2,0 -23,-6 -28,-7 -22,-6 -76,-11 -93,-4 11,0 22,0 34,0 11,1 20,2 31,3 10,1 47,9 54,13 1,4 1,12 -1,15 -7,1 -25,-6 -32,-2 6,2 31,4 33,10l1 10c-4,0 -7,-2 -11,-3 -4,-1 -7,-2 -11,-2 -9,-1 -14,-2 -24,-2 1,1 1,1 2,1 1,0 2,0 2,1l10 2c5,1 9,2 14,3 4,1 9,3 13,4 6,2 7,2 9,8 4,9 8,15 10,25 2,8 1,23 -3,29 -5,0 -20,-7 -27,-9l-3 1c8,4 20,7 27,13 0,4 -2,8 -5,9 -2,0 -25,-9 -29,-11 -7,-2 -23,-9 -30,-9l8 4c16,6 33,14 49,19 0,5 -3,6 -5,9 -2,2 -4,6 -7,7 -4,1 -14,-7 -21,-7l1 1c0,0 1,1 1,1 3,2 13,6 13,9 0,3 -15,12 -18,13 -23,13 -18,11 -31,2 -10,-7 -23,-13 -34,-17l-151 -54c5,-4 9,-1 13,1 4,2 9,4 14,4 -3,-3 -9,-5 -13,-7l-3 -3c3,-1 4,-4 9,-2l20 7c2,0 3,1 6,1l5 -1c-11,-3 -22,-6 -31,-11l2 -6c10,-1 35,8 48,9l14 2c6,1 8,2 15,2l-39 -9c-7,-1 -33,-7 -37,-9 -1,-3 -1,-5 0,-8 9,1 34,5 42,2 -10,-1 -18,-2 -28,-3 -8,-1 -20,-1 -21,-11 13,-1 26,2 41,1 -3,0 -48,-4 -49,-5 6,-2 15,0 22,-2l1 -1c-5,0 -39,-3 -41,-4 9,-3 25,0 34,-4 -9,-3 -32,1 -43,0 0,0 0,0 1,0l17 -4c6,-1 11,-2 18,-2l34 -3c2,-1 1,0 2,-1 -10,-4 -46,3 -58,3 3,-4 9,-7 15,-8 13,0 54,-2 62,-7 -12,-1 -49,4 -57,3 -6,-1 5,1 -1,0 0,0 -1,0 -1,0 0,0 0,0 -1,0 1,-3 3,-3 7,-3 3,0 5,-1 8,-1 5,-1 13,0 17,-3 -8,-1 -19,1 -24,0 -3,-1 -1,0 -3,-1 2,-2 -2,-1 3,-2 8,-2 18,-1 26,-3 4,-1 24,-5 26,-5 -12,-1 -46,6 -53,3 2,-2 44,-10 53,-12 -12,-3 -31,4 -43,5 -7,1 -10,3 -11,-3 4,-4 14,-5 20,-7 4,-1 19,-3 22,-5 -8,-1 -17,1 -24,3 -2,0 -28,7 -20,2 3,-2 33,-9 38,-10l13 -4c-7,-1 -27,3 -34,5 -5,1 -10,3 -16,4 -8,2 -7,4 -16,1 4,-3 9,-5 14,-6 6,-2 38,-12 42,-15 -11,-1 -46,13 -59,18 -5,2 -12,7 -19,6l38 -17c5,-3 35,-13 39,-18 -4,0 -15,5 -20,7 -3,1 -6,2 -9,4 -8,3 -8,5 -18,7 -6,2 -22,12 -27,10l28 -18z"/>
   <path class="fil0 str0" d="M497 522c1,-1 -1,-1 2,-2 -8,-5 -1,-1 -7,-8l-2 -1c1,-3 2,-2 3,-5 -4,1 0,0 -4,2 -2,1 0,0 -2,2 -2,-4 3,-8 6,-12 3,-4 6,-8 9,-11l15 -16c10,-8 46,-37 59,-22 7,8 3,24 -3,30 -6,6 -29,24 -35,27l-20 11c-2,2 -4,2 -7,3 -4,2 -10,7 -13,2z"/>
   <path class="fil0 str0" d="M310 497c-4,-4 -7,-5 -11,-9 -4,-4 -16,-19 -10,-29 7,-12 33,5 44,11l35 27c2,2 3,3 6,5 2,2 4,3 5,4 7,7 3,8 4,11l1 2c-7,1 -15,-6 -22,-6 3,5 12,6 16,10 -1,8 -6,5 -13,3 -5,-2 -10,-4 -14,-6 -11,-4 -19,-7 -29,-12 -4,-3 -9,-6 -13,-9z"/>
   <path class="fil0 str0" d="M447 494c6,-2 9,8 4,10 -5,2 -11,-7 -4,-10z"/>
   <path class="fil0 str0" d="M399 498c7,-4 10,-1 10,6 -6,5 -10,0 -10,-6z"/>
   <path class="fil0 str0" d="M413 503c0,-5 4,-11 9,-8 8,4 2,11 1,12 -6,1 -7,-1 -10,-4z"/>
   <path class="fil0 str0" d="M430 504c-2,-10 10,-10 10,0 -5,3 -6,3 -10,0z"/>
   <path class="fil0 str0" d="M458 503c-1,-6 4,-9 7,-5 4,4 1,8 -3,9 -2,-1 -3,-2 -5,-4z"/>
   <path class="fil0 str0" d="M472 505c8,-4 13,7 6,11 -6,2 -11,-3 -9,-7 1,-3 1,-2 4,-3z"/>
   <path class="fil0 str0" d="M459 518c-7,1 -8,-7 -3,-8 7,-1 6,4 3,8z"/>
   <path class="fil0 str0" d="M441 507c8,0 10,8 3,10 -3,1 -5,-1 -6,-3 -1,-3 1,-5 2,-7z"/>
   <path class="fil0 str0" d="M390 520c0,-6 -1,-10 5,-12 5,-1 8,2 10,5 2,4 -1,8 -4,9 -5,2 -8,-1 -11,-3z"/>
   <path class="fil0 str0" d="M412 511c7,-3 11,8 4,9 -8,1 -10,-7 -4,-9z"/>
   <path class="fil0 str0" d="M424 512c3,-2 4,-3 7,-2 5,8 0,13 -8,7l0 -5z"/>
   <path class="fil0 str0" d="M505 530c0,-4 0,-4 4,-5l17 -9c3,-2 9,-4 12,-5 3,-1 4,-1 7,-2 3,-1 3,-1 6,-2 5,-1 9,-3 15,-4 13,-1 36,-7 37,10 2,17 -23,27 -38,32 -9,3 -19,5 -29,5 -8,0 -28,3 -31,0 3,-2 5,0 9,-3l-9 0c1,-4 0,-3 5,-5l42 -11c-9,-1 -15,3 -18,4 -2,0 -4,0 -6,1l-6 2c-5,1 -12,4 -18,4 3,-4 3,-4 8,-5l-3 -1c-1,-1 -1,0 -2,-1 2,-5 5,-6 13,-9 6,-2 10,-4 15,-6 -4,0 -8,1 -11,3l-2 1c-1,0 -1,0 -2,1 -7,2 -10,5 -14,4z"/>
   <path class="fil0 str0" d="M491 520c-1,3 -1,5 -4,6 -10,2 -8,-17 4,-6z"/>
   <path class="fil0 str0" d="M303 545c-10,-1 -19,-4 -26,-9 -6,-4 -14,-13 -7,-23 10,-13 40,-3 56,1 12,2 22,7 26,8 11,3 4,1 13,5 2,1 4,2 6,3 3,1 4,1 4,5 -6,2 -21,-4 -39,-2 1,1 0,0 2,1 3,1 10,0 16,2 7,2 15,1 15,5l0 3c0,2 0,2 -1,4 -31,0 -31,3 -66,-2z"/>
   <path class="fil0 str0" d="M436 522c5,-3 10,6 4,9 -3,1 -6,0 -7,-3 -1,-4 1,-5 3,-6z"/>
   <path class="fil0 str0" d="M420 524c5,-4 11,4 6,7 -5,3 -12,-2 -6,-7z"/>
   <path class="fil0 str0" d="M472 531c-1,-1 -2,-2 -2,-4 0,-2 1,-2 2,-3 4,0 4,0 6,3 0,3 -1,7 -6,5z"/>
   <path class="fil0 str0" d="M406 525c0,0 -1,-2 3,-1 1,0 2,1 3,2 4,6 -5,11 -8,5 -1,-2 -1,-2 0,-4 1,-3 1,-1 3,-2z"/>
   <path class="fil0 str0" d="M385 525c7,-4 13,8 6,11 -4,2 -7,0 -9,-2 -1,-2 -1,-3 -1,-5 1,-3 2,-2 4,-3z"/>
   <path class="fil0 str0" d="M453 523c9,-3 13,11 4,14 -5,2 -9,-1 -10,-5 -2,-6 2,-8 6,-9z"/>
   <path class="fil0 str0" d="M491 529c6,-4 14,6 6,11 -7,4 -15,-6 -6,-11z"/>
   <path class="fil0 str0" d="M482 535l0 3 -3 0 0 -3c2,0 2,0 3,0z"/>
   <path class="fil0 str0" d="M429 536c3,0 3,0 3,3 -3,1 -4,1 -3,-3z"/>
   <path class="fil0 str0" d="M419 537c1,5 -2,9 -6,6 -1,-1 -2,-4 0,-5 2,-2 4,-1 6,0z"/>
   <path class="fil0 str0" d="M473 537c2,10 -7,9 -9,5 -1,-2 0,-5 2,-6 3,-2 5,0 7,1z"/>
   <path class="fil0 str0" d="M397 537c6,-4 11,5 6,8 -5,3 -12,-4 -6,-8z"/>
   <path class="fil0 str0" d="M439 537c6,-2 9,6 4,9 -3,2 -6,0 -7,-2 -1,-3 0,-5 3,-6z"/>
   <path class="fil0 str0" d="M379 540c7,-3 11,7 5,10 -3,2 -7,0 -8,-2 -2,-4 -1,-7 3,-8z"/>
   <path class="fil0 str0" d="M451 544c6,-4 12,0 9,5 -2,5 -10,3 -9,-5z"/>
   <path class="fil0 str0" d="M425 544c9,-1 9,7 4,9 -5,2 -10,-3 -4,-9z"/>
   <path class="fil0 str0" d="M478 544c6,-4 11,5 6,8 -4,2 -9,-1 -8,-5 0,-2 1,-2 2,-3z"/>
   <path class="fil0 str0" d="M492 546c8,-2 11,5 6,8 -2,2 -6,1 -7,-2 -2,-3 0,-5 1,-7z"/>
   <path class="fil0 str0" d="M369 565c2,5 6,8 -2,12l-26 12c-5,2 -9,3 -14,5 -18,6 -47,16 -59,1 -8,-10 1,-22 7,-26 7,-5 19,-7 28,-9 17,-4 51,-9 68,-7 0,1 -3,9 -4,10 -1,1 -4,2 -5,2 -5,1 -4,1 -5,3l12 -1z"/>
   <path class="fil0 str0" d="M472 556c-7,1 -10,-5 -3,-7 4,2 5,4 3,7z"/>
   <path class="fil0 str0" d="M448 559c-6,4 -12,-1 -9,-6 4,-5 11,-2 9,6z"/>
   <path class="fil0 str0" d="M398 558c-2,1 -4,3 -7,1 -2,-1 -3,-4 -1,-7 3,-4 10,-2 9,6z"/>
   <path class="fil0 str0" d="M407 549c8,-6 16,8 8,13 -6,4 -14,-1 -11,-9 1,-3 3,-3 4,-4z"/>
   <path class="fil0 str0" d="M524 556c21,-3 47,-2 67,5 27,10 26,35 3,38 -12,1 -49,-9 -62,-13 -7,-2 -24,-6 -29,-9l1 -8c6,-2 7,1 14,1 3,0 5,0 8,1 6,2 31,4 38,4 -1,-1 0,0 -2,-1 -2,-1 1,0 -1,0 0,0 -3,0 -4,0l-35 -4c-6,-1 -10,1 -12,-5 2,0 3,0 5,-1 5,-1 3,0 4,-1 0,0 0,0 1,0 -2,0 -9,0 -10,0 -2,0 -4,-3 -3,-4 2,-2 14,-1 17,-2z"/>
   <path class="fil0 str0" d="M377 556c6,-4 11,6 6,9 -5,3 -13,-4 -6,-9z"/>
   <path class="fil0 str0" d="M454 565c-4,-10 12,-11 8,1 -4,1 -5,2 -8,-1z"/>
   <path class="fil0 str0" d="M501 562c2,9 -7,8 -9,5 -3,-6 4,-9 9,-5z"/>
   <path class="fil0 str0" d="M476 559c9,-4 14,10 7,14 -5,2 -9,0 -11,-3 -2,-6 1,-9 4,-10z"/>
   <path class="fil0 str0" d="M427 558c3,-1 8,2 9,5 2,5 -1,9 -4,10 -9,3 -16,-10 -5,-14z"/>
   <path class="fil0 str0" d="M400 571c-1,1 -4,2 -6,1 -2,-1 -2,-3 -1,-5 2,-4 7,-1 7,5z"/>
   <path class="fil0 str0" d="M442 567c2,-1 4,-2 6,-1 2,2 1,4 1,7l-6 0 0 -6z"/>
   <path class="fil0 str0" d="M412 568c6,-2 10,7 4,9 -4,1 -6,-1 -7,-3 -2,-5 3,-6 3,-6z"/>
   <path class="fil0 str0" d="M466 579c-13,2 -3,-16 2,-4l-2 4z"/>
   <path class="fil0 str0" d="M381 571c8,-4 12,9 5,11 -7,3 -14,-7 -5,-11z"/>
   <path class="fil0 str0" d="M490 574c6,-4 10,5 5,8 -7,4 -10,-5 -5,-8z"/>
   <path class="fil0 str0" d="M442 584c-8,2 -12,-2 -8,-7 4,-4 10,-1 8,7z"/>
   <path class="fil0 str0" d="M399 577c7,-3 10,7 4,9 -6,2 -11,-6 -4,-9z"/>
   <path class="fil0 str0" d="M457 583c-2,8 -10,5 -10,0 0,-5 8,-8 10,0z"/>
   <path class="fil0 str0" d="M472 581c2,-1 4,-1 6,0 0,5 0,4 -2,6 -3,-1 -4,-2 -4,-5z"/>
   <path class="fil0 str0" d="M420 580c9,-2 10,6 6,8 -3,2 -6,0 -7,-2 -2,-3 0,-5 1,-7z"/>
   <path class="fil0 str0" d="M382 601c-3,4 -6,7 -9,11 -11,13 -16,19 -32,30 -7,5 -17,13 -26,15 -22,6 -40,-14 -14,-39 4,-4 7,-5 12,-9 12,-9 24,-16 39,-22 5,-2 10,-4 14,-6 5,-3 4,-1 8,2 3,3 1,0 3,3 -2,5 -22,17 -25,22 2,0 4,-3 6,-4 6,-4 14,-11 19,-12 1,2 4,7 4,9z"/>
   <path class="fil0 str0" d="M501 585l1 -3c6,0 12,3 17,4 21,7 54,16 67,34 6,9 7,23 -1,29 -8,7 -21,5 -31,1 -13,-6 -38,-21 -49,-32 -4,-3 -7,-7 -11,-9 -4,-3 -10,-8 -1,-11 1,-1 0,-1 2,-1 1,0 2,0 3,0l-1 -2c-1,-2 -1,-2 0,-4 0,-1 -1,-1 1,-1 1,-1 0,0 2,-1 1,0 1,0 2,0 0,0 0,-1 0,-1l-2 -2c2,-2 2,0 3,-3z"/>
   <path class="fil0 str0" d="M388 586c7,-3 10,8 4,10 -7,2 -11,-7 -4,-10z"/>
   <path class="fil0 str0" d="M484 586c3,-1 5,1 6,3 1,3 -1,5 -3,6 -4,2 -11,-5 -3,-9z"/>
   <path class="fil0 str0" d="M462 588c5,-3 11,6 5,9 -5,2 -9,-3 -7,-6 0,0 1,-1 1,-1 1,-1 1,0 2,-1z"/>
   <path class="fil0 str0" d="M408 588c1,0 0,-2 4,-1 1,0 2,1 3,2 1,2 1,5 -2,7 -5,3 -11,-3 -5,-8z"/>
   <path class="fil0 str0" d="M431 592c2,-1 3,-3 6,-2 2,1 4,3 3,6 -1,4 -10,6 -9,-4z"/>
   <path class="fil0 str0" d="M447 594c6,-5 11,5 5,8 -4,2 -11,-3 -5,-8z"/>
   <path class="fil0 str0" d="M419 599c1,-6 3,-5 7,-3l0 4c-1,2 -2,2 -5,2l-3 -3z"/>
   <path class="fil0 str0" d="M474 597c6,-3 10,5 5,8 -5,3 -11,-5 -5,-8z"/>
   <path class="fil0 str0" d="M396 599c6,-5 12,3 6,7 -2,2 -6,1 -7,-1 -4,-4 1,-7 1,-7z"/>
   <path class="fil0 str0" d="M413 611c-10,0 -2,-14 3,-4 -1,2 -1,2 -3,4z"/>
   <path class="fil0 str0" d="M468 613c-3,0 -6,0 -7,-3 -1,-4 1,-5 2,-7 8,0 9,4 5,9z"/>
   <path class="fil0 str0" d="M408 617c0,2 -13,37 -16,43 -6,11 -16,28 -24,35 -14,13 -32,9 -34,-10 0,-6 1,-12 3,-17l15 -25c5,-7 12,-17 17,-22 5,-5 16,-18 19,-20 0,1 2,4 2,5 1,2 2,2 3,4 0,1 -14,20 -15,22l-4 6c0,1 0,0 -1,2l18 -24c2,-4 2,-7 8,-6 0,6 -10,21 -10,25 2,-5 4,-6 7,-11l4 -7c1,-2 2,-4 3,-5 2,1 1,1 3,2z"/>
   <path class="fil0 str0" d="M420 611c3,-7 10,-6 10,3 -3,2 -2,3 -8,2l-2 -5z"/>
   <path class="fil0 str0" d="M449 608c6,-4 10,5 6,8 -6,3 -10,-5 -6,-8z"/>
   <path class="fil0 str0" d="M499 650c1,2 1,3 1,4l-1 -4z"/>
   <path class="fil0 str0" d="M498 649c1,1 1,1 1,2l-10 -19c-2,-3 -3,-6 -5,-9 -4,-6 -5,-6 -5,-10 8,-3 7,-3 12,3 6,6 14,13 19,20 8,10 41,46 27,63 -7,9 -23,-2 -27,-6 -10,-10 -26,-33 -32,-46 -2,-4 -10,-26 -9,-29 3,1 3,2 4,5 1,3 2,2 3,6 1,-2 1,0 1,-3 0,-2 0,-1 -1,-2l-1 -1c0,0 0,0 0,-1l-2 -5c0,-2 0,-3 0,-4 3,1 1,0 3,2l20 34z"/>
   <path class="fil0 str0" d="M442 611c4,10 -6,9 -8,6 -3,-5 1,-10 8,-6z"/>
   <path class="fil0 str0" d="M223 695c1,-2 5,-3 7,-4l20 -15c-3,0 -12,7 -15,9 -2,2 -11,8 -12,10z"/>
   <path class="fil0 str0" d="M238 706c1,-1 0,0 1,-2 -3,2 -2,0 -3,2 0,0 2,-1 2,-1z"/>
   <path class="fil2 str1" d="M286 724c0,0 2,-1 0,0z"/>
   <path class="fil0 str0" d="M309 718c0,-1 5,-4 6,-7 -1,1 0,0 -2,1 0,0 -1,1 -2,2 -1,1 -2,2 -2,4z"/>
   <path class="fil0 str0" d="M218 905c2,0 2,-1 4,-3 1,-2 2,-2 2,-5 -2,1 -3,1 -4,4 -1,2 -2,2 -2,5z"/>
   <path class="fil0 str0" d="M68 761c-2,-12 9,-27 14,-32 15,-14 39,-25 58,-35l62 -31c5,-2 11,-5 15,-8 15,-9 45,-24 61,-31l7 -4c3,-2 5,-4 8,-3 -1,1 -2,2 -4,3l-3 1c-1,0 -2,1 -3,1l-8 5c-2,1 -1,0 -2,2 7,0 4,-2 11,-2 -1,10 -16,16 -28,25l-24 15c-3,2 -5,4 -8,5 3,0 11,-6 14,-8l14 -8c3,-1 27,-16 27,-15 2,2 0,-1 1,2 0,1 0,1 0,2 0,0 0,3 0,3 0,3 -19,17 -23,19 -2,1 -3,2 -5,4 -2,2 -3,1 -4,4l13 -8c1,-1 3,-2 4,-3 3,-2 15,-11 17,-10 2,1 5,4 5,6 -1,2 -4,5 -6,6 -10,9 -22,17 -32,26l-6 6c-2,2 -5,3 -6,6 4,0 5,-3 8,-5l37 -28c4,-4 9,-10 16,-6 -1,5 -6,5 -8,10 9,-2 11,-13 26,-13 -2,3 -2,3 -5,5l-38 34c3,-1 4,-2 6,-4 0,0 0,0 0,0 1,-1 1,-1 2,-2 2,-2 5,-4 7,-6 9,-7 40,-34 43,-35 -5,7 -25,29 -32,36l-9 9c-2,3 -1,0 -2,4 4,-1 10,-8 13,-11 4,-4 7,-7 11,-11l1 -1c4,-4 19,-21 21,-21 0,2 -3,7 -4,9 -6,14 1,4 -10,18l-13 15c-2,3 -4,5 -7,7 -3,3 -5,5 -7,7l-5 4c0,0 0,0 0,0 -1,1 0,0 -1,2 3,-3 14,-12 20,-18 2,-3 16,-17 19,-18 3,10 -9,16 -11,24 6,-1 8,-11 14,-13 6,4 -2,10 -6,16l-12 16c-4,5 -21,24 -22,28 1,-3 1,-1 2,-3l29 -35c1,-1 2,-2 3,-3 2,-3 9,-11 13,-12 2,6 -9,15 -11,22 4,-2 13,-17 15,-17 4,-1 3,0 3,1 1,4 -3,6 -4,10 5,-2 6,-14 17,-9 0,3 -7,15 -9,19 -1,2 -3,4 -2,6 1,-2 1,-3 3,-5 7,-8 13,-25 23,-27 0,6 -10,22 -13,28 -1,3 -1,3 -3,5l-18 31c-1,2 -11,18 -10,20 2,-3 4,-6 6,-9l35 -61c0,0 0,0 0,-1l4 -7c1,3 -1,4 -1,6 0,1 0,1 -1,2 -1,2 -2,6 -3,8 -2,5 -4,10 -6,16 -17,44 -38,86 -44,134 -1,10 2,12 -4,18 -11,11 -22,22 -38,29 -8,3 -26,9 -36,7 0,-1 0,0 0,-2l37 -50c1,-1 2,-3 3,-4 2,-4 8,-11 7,-15 -3,2 -14,19 -16,24l-4 6c-3,5 -5,7 -9,11l-22 27c-5,6 -6,4 -14,3 -6,-1 -9,-2 -13,-6l10 -14c1,-2 0,0 1,-3 -4,0 -5,5 -8,8 -2,3 -4,5 -7,8 -6,-1 -11,-6 -14,-10l14 -20c2,-2 4,-4 4,-7l-3 3c-1,1 -1,2 -2,4 -2,3 -3,3 -5,5 -3,3 -6,9 -10,12 -4,-1 -4,-3 -6,-5l-21 -35c-3,-6 4,-9 7,-14 -4,1 -1,0 -4,2 -2,2 -4,3 -7,5 -2,-2 -8,-11 -9,-15 5,-5 22,-17 24,-23 -10,1 -17,17 -26,20l-4 -7c-1,-2 -1,-1 -3,-3 -3,-3 -5,-7 -8,-9l-7 -5c1,-4 0,-3 4,-5 3,-1 3,-1 5,-3l43 -38c2,-1 15,-11 17,-14 -1,1 -2,1 -3,2 -2,1 -2,1 -4,2l-35 27c-4,4 -8,7 -13,11 -15,12 -13,21 -28,9 -2,-2 -5,-3 -7,-5 -3,-2 -4,-4 -7,-6 -11,-9 -17,-8 -7,-18 3,-3 5,-4 6,-7 -6,1 -10,7 -15,10 -2,-2 -9,-10 -8,-15 1,-7 36,-27 39,-31 -5,0 -17,9 -21,12 -4,2 -16,12 -19,13z"/>
   <path class="fil0 str0" d="M437 625c2,13 -4,48 -6,61 -2,10 -4,18 -7,26 -3,9 -8,18 -18,9 -13,-12 -12,-35 -9,-55 0,-3 2,-12 3,-14 2,-4 3,-7 5,-12 3,-7 6,-19 9,-24 7,-1 7,6 5,12 -3,12 -5,30 -5,31 -1,5 -1,11 -1,17 0,-1 0,-13 2,-17 1,-3 1,-6 1,-10 0,-5 2,-8 2,-14l2 -10c2,-6 12,-2 15,1z"/>
   <path class="fil0 str0" d="M478 662c3,14 12,58 -5,62 -5,1 -11,-2 -14,-5 -9,-8 -13,-29 -15,-41 -4,-24 -4,-29 -2,-52 1,-10 9,-3 10,-2 0,6 1,21 3,27l5 24c0,-6 0,-8 -1,-13l-5 -38c9,-7 9,-8 12,-4l13 43z"/>
   <path class="fil0 str0" d="M445 725c0,0 0,0 0,1l1 7c1,2 0,1 1,2 0,-3 0,-7 -1,-10l0 1z"/>
   <path class="fil0 str0" d="M502 762c0,-3 1,-3 -1,-5 0,1 -1,-1 0,3 0,0 1,2 1,2z"/>
   <path class="fil0 str0" d="M496 714c2,6 4,13 7,18 1,2 0,1 2,2 0,-10 -14,-33 -13,-42 5,6 8,14 11,21 4,7 7,14 10,21 20,45 63,145 59,192 -1,16 -10,40 -22,40 -11,1 -11,-8 -14,-17 -7,-16 -12,-33 -17,-50 -2,-5 -4,-17 -7,-21 0,7 5,25 8,33 3,10 6,19 9,29 2,6 10,25 6,30 -3,3 -12,1 -15,-2 -3,-4 -5,-8 -8,-12 0,6 2,6 2,11 -3,0 -8,-2 -12,-3 -5,-2 -8,-1 -9,-6 -5,-15 -11,-30 -12,-46l-3 -23c-1,-3 0,-1 -1,-2 0,7 -1,14 1,21 1,4 2,13 3,18l7 34c-23,-4 -22,-1 -25,-13 -1,-3 -2,-5 -3,-9 -2,2 -2,2 0,9 1,3 2,6 2,8 -8,2 -6,-2 -12,0 -3,1 -16,5 -19,3l-2 -2c0,0 0,0 0,-1 0,-1 -1,-2 -1,-2 0,-2 -1,-4 -1,-6 -1,1 0,0 -1,2 0,2 0,-1 0,1 0,1 0,2 0,3l1 3c0,0 0,0 0,0l0 1c-2,3 -4,3 -9,3 -3,1 -7,1 -11,2 -8,1 -14,2 -22,1 -2,-15 -5,-32 -5,-48 -1,-18 0,-35 -1,-53 0,2 -2,20 -2,24 -2,17 0,35 1,52 0,4 1,8 2,12 0,5 3,12 -1,12l-1 0c0,0 -3,0 -3,0 -5,-1 -14,-2 -16,-6l-6 -70c-2,23 3,45 1,67 -6,-1 -18,-16 -22,-22 -5,-10 -10,-18 -12,-31 -6,-37 9,-73 22,-106l33 -86c1,-2 1,-2 2,-4 1,-3 0,-1 2,-3 0,5 0,5 -1,9l0 8c2,-5 4,-19 7,-24 7,19 -6,38 -6,58 1,-1 0,1 1,-2 2,-6 6,-29 9,-34 3,1 8,7 8,10 0,0 -5,36 -5,44 3,-7 1,-14 3,-22 1,-3 4,-17 5,-20 9,1 5,10 5,16 0,3 0,5 2,7l1 -19c3,-2 5,-3 9,-2l2 31c0,-8 1,-15 1,-23 0,-10 -1,-14 6,-18 2,4 1,12 2,17 1,6 2,10 2,16 0,10 1,22 3,32 2,-7 -1,-15 -1,-22 -1,-8 0,-16 -1,-24 -1,-9 -3,-40 0,-46 2,10 3,24 4,29 0,1 0,1 1,2l1 1c0,-5 -1,-13 2,-16 0,0 0,0 0,1 0,0 0,0 0,1 0,1 0,7 3,9 0,-2 0,-5 0,-7l1 -5 2 3c6,12 6,5 10,20l6 20c1,2 1,5 2,7 0,-5 -1,-12 -2,-17 -3,-13 -5,-15 0,-15 0,0 3,1 3,1 4,2 9,22 11,28 2,5 2,7 4,12 1,-1 1,0 1,-3 0,-3 -1,-4 -2,-8 -1,-6 -9,-25 -8,-29l5 -1c1,3 2,3 3,8 1,2 1,4 2,7 2,5 4,9 5,15 3,-4 -1,-12 -3,-16 -7,-21 -5,-12 2,-24 3,2 4,5 5,9 3,7 6,21 10,27 -2,-16 -13,-36 -13,-46 0,-4 -2,-15 1,-18 3,7 5,14 8,21z"/>
   <path class="fil0 str0" d="M613 714c1,1 -1,1 2,2l-2 -2z"/>
   <path class="fil0 str0" d="M595 675c0,1 -2,3 6,5 -1,-3 -3,-5 -6,-5z"/>
   <path class="fil0 str0" d="M622 641l4 4c5,2 10,7 14,7l-2 -1c0,0 0,0 0,0 -3,-3 -12,-9 -15,-9z"/>
   <path class="fil0 str0" d="M790 736c1,2 -2,2 2,2 -1,-2 0,-1 -2,-2z"/>
   <path class="fil0 str0" d="M782 751c2,0 -1,-3 -1,0 0,3 1,0 1,0 0,0 0,0 0,0z"/>
   <path class="fil0 str0" d="M628 632c-2,-2 0,0 -2,-2 -5,-4 -17,-9 -24,-12 -3,-1 -6,-4 -8,-5 4,0 113,40 132,46 22,7 45,18 58,30 16,14 33,36 24,59 -6,-1 -10,-8 -15,-10 1,5 9,11 11,13 -1,2 -7,8 -10,8 -2,0 -6,-5 -8,-6 -2,-1 -1,-1 -3,-1 0,4 8,6 7,10 -1,2 -6,5 -8,6 -4,0 -12,-9 -15,-12 -3,-3 -4,-5 -8,-6 4,9 15,13 16,23 0,5 -5,29 -8,30 -4,1 -9,-6 -12,-8 1,5 8,10 11,23 1,5 0,5 -2,7 -2,-1 -4,-2 -5,-4 -3,-3 -2,-4 -6,-5 0,5 3,6 5,10 6,9 3,23 -4,30 -3,-1 -3,-3 -6,-4 1,4 4,5 2,9 -1,2 -4,4 -5,5 -3,-2 -3,-3 -6,-6 -1,-1 -4,-5 -6,-6 1,3 8,12 8,15 -1,3 -21,16 -25,17 0,0 0,0 0,-1l-2 -4c-1,-1 -1,-2 -2,-3 -2,-3 -13,-20 -14,-20 0,3 1,2 2,4 0,0 0,0 0,1l6 10c2,3 3,8 6,12 1,2 1,1 2,3 -2,2 -8,6 -11,6 -2,-2 -4,-7 -5,-10 -2,-3 -2,-6 -5,-9l-1 -1c1,6 5,12 8,17 1,1 1,1 1,2 -1,1 -3,4 -6,3 -2,0 -4,-2 -5,-4 0,0 0,0 0,-1l0 7c-15,7 -13,4 -18,-9 -5,-12 -11,-24 -18,-35 0,3 8,20 10,24 2,4 10,21 10,25 -4,3 -18,5 -24,4l-5 -10c-1,3 0,3 1,5 1,5 1,3 0,4 0,0 0,1 0,1 0,0 0,0 0,1 -3,1 -12,0 -15,-1 -3,-2 -4,-8 -5,-13l-9 -26c-1,2 7,29 8,36 -9,0 -35,-15 -40,-22 -2,-3 -3,-11 -5,-15 -12,-41 -25,-81 -43,-119 -4,-9 -21,-47 -26,-54 1,1 0,0 1,1l1 1c0,0 0,0 0,0l34 61c0,0 0,0 0,1 0,-5 -11,-25 -13,-29l-7 -14c-2,-3 -7,-11 -6,-13 3,0 5,0 6,2 0,0 2,6 3,7 4,9 18,32 19,38 1,-2 1,0 0,-3 -2,-7 -13,-29 -16,-36 -1,-2 -2,-4 -1,-6 4,-1 7,-1 9,1 5,6 9,14 13,20 0,-1 2,1 0,-3 0,0 -1,-2 -2,-3 -1,-2 -2,-4 -3,-6 -2,-4 -5,-8 -5,-13 7,-2 7,4 13,12 2,-5 -8,-12 -5,-18 4,0 4,2 6,5 2,2 3,4 5,7 2,3 7,11 11,13 -1,-3 -3,-6 -5,-9 -3,-5 -14,-20 -13,-24 3,0 2,0 4,3l11 11c3,3 11,14 14,15 -1,-6 -19,-23 -25,-29 -3,-3 -6,-6 -7,-11 4,1 1,-1 4,2l7 8c1,1 1,2 2,3 3,3 5,6 8,7 -2,-6 -12,-15 -16,-20 -3,-4 -7,-8 -9,-13l2 2c0,0 0,0 1,0l36 34c4,4 9,7 13,11 -1,-3 -4,-6 -6,-8l-15 -15c-8,-7 -32,-31 -35,-35 11,6 28,22 37,30l33 27c1,1 3,3 5,3l-8 -8c0,0 0,0 0,0l-22 -20c-6,-6 -10,-9 -16,-14 -3,-3 -5,-4 -8,-7 -2,-1 -3,-2 -4,-3 -2,-1 -1,-2 -3,-3 14,2 18,16 29,17 -1,-3 -1,-2 -3,-4 -1,-1 -2,-2 -4,-3 -3,-3 -5,-3 -6,-7 8,-3 11,1 15,5 2,2 4,3 6,5 3,2 3,4 6,4 -1,-3 -5,-6 -7,-8 -2,-2 -8,-5 -7,-7 2,-7 15,5 17,7 11,7 22,18 31,26 2,2 6,5 8,7l6 5c1,1 1,1 2,2 -3,-8 -34,-35 -41,-40 -3,-2 -13,-9 -14,-12l5 -5c6,1 8,6 13,7 -6,-9 -13,-5 -10,-18 5,0 11,6 14,9l39 27 -13 -12c-2,-2 -5,-3 -7,-5l-14 -11c-5,-4 -19,-12 -19,-18 4,1 15,8 19,11 4,3 3,3 6,1l-4 -3c-7,-5 -23,-13 -26,-20 4,0 13,6 17,8 5,2 14,7 19,7z"/>
   <path class="fil0 str0" d="M334 1292c-26,-48 -47,-97 -56,-152 -2,-11 -5,-23 -7,-34 -7,-58 -7,-90 7,-147 2,-9 12,-38 18,-44 3,-2 9,-8 11,-9 1,3 -7,24 -8,28 -9,29 -16,66 -18,97 -3,46 -3,63 2,108 4,30 23,97 51,153z"/>
   <path class="fil1 str0" d="M454 184c0,-9 2,-18 4,-26l4 -21c0,-5 -2,-3 -16,2 -2,10 -4,19 -5,29 0,-8 2,-22 1,-27 -3,0 -6,1 -9,2 -2,4 -2,10 -3,15 -2,-2 -3,-1 -2,-7 0,0 0,-9 -1,-7l-3 -1c-11,-1 -14,2 -15,15 0,4 1,29 -2,32 0,-8 -2,-15 -2,-24 0,-7 2,-18 -3,-23 -3,-3 -38,-11 -41,-8 -1,1 -1,-2 -1,3 0,1 0,3 0,4 0,3 0,7 0,10l-1 -4c-1,-3 -2,-11 -4,-13 -3,-3 -7,0 -7,2 -1,3 0,7 1,11 1,4 0,8 1,11 1,5 2,5 1,11l-5 -17c-1,-4 -3,-13 -5,-16 -9,-2 -25,11 -26,16 -2,11 4,28 4,40 -1,-1 0,0 -1,-2 -1,-1 0,-1 -1,-2 -2,-7 -5,-25 -7,-29 -3,1 -3,2 -5,7 -1,2 -3,6 -3,8 -16,46 -3,94 15,136 9,21 20,44 31,64l16 31c1,2 3,6 4,7l14 22c0,0 0,0 0,1 0,0 0,-1 0,-1l0 -5c11,-4 27,-24 -14,-34 11,27 5,2 17,28 9,-49 42,-20 48,-5 37,-46 -37,-56 7,-8 14,-66 -27,120 42,-8 1,15 -3,39 23,-33 8,-23 16,-46 22,-70 7,-29 14,-60 32,-84 3,-4 9,-8 10,-14 4,-23 -5,-45 -19,-61 -1,-1 -2,-2 -3,-3 -2,-2 -2,-2 -5,-2 -1,2 -3,5 -4,8l-4 7c0,0 0,0 0,1 -4,-8 14,-19 -2,-23 -6,6 -9,24 -13,33 -1,4 0,1 -2,3 0,-7 2,-14 4,-20 5,-18 12,-20 -13,-23 -13,-2 -27,3 -38,8 -7,3 -6,10 -8,16 -3,11 -5,22 -8,33 0,0 -1,3 -1,3 -1,3 0,1 -1,3z"/>
   <path class="fil1 str0" d="M781 751c0,-3 3,0 1,0 0,0 0,0 0,0 0,0 -1,3 -1,0zm10 -15c3,1 2,0 2,2 -5,0 -1,0 -2,-2zm-199 -119c1,2 -49,12 -22,34l-55 54 -8 -5c0,0 0,0 0,0l-1 -1c-1,-1 0,-1 -1,-1 6,7 22,45 26,54 18,39 31,78 43,119 1,4 3,12 5,15 6,7 32,22 40,22 -1,-7 -9,-34 -8,-36l9 26c1,5 2,11 5,13 3,2 12,2 15,1 0,0 0,-1 0,-1 0,0 0,0 0,-1 0,-1 1,1 0,-4 -1,-2 -1,-2 -1,-5l5 10c5,1 20,-2 24,-4 0,-4 -7,-20 -10,-25 -2,-4 -10,-21 -10,-24 7,11 13,23 18,35 5,14 3,16 18,9l0 -7c0,0 0,0 0,1 0,1 3,4 5,4 3,0 4,-2 6,-3 0,-2 0,-1 -1,-2 -3,-5 -7,-11 -8,-17l1 1c3,3 3,5 5,9 1,3 4,8 5,10 3,-1 9,-4 11,-6 -1,-2 -1,-1 -2,-3 -2,-4 -3,-8 -6,-12l-6 -10c0,0 0,0 0,-1 -1,-2 -2,-2 -2,-4 2,1 12,18 14,20 1,1 1,2 2,3l2 4c0,0 0,0 0,1 4,-1 24,-13 25,-17 0,-3 -6,-12 -8,-15 2,1 5,5 6,6 2,3 2,4 6,6 2,-1 4,-3 5,-5 2,-4 -1,-5 -2,-9 3,1 3,3 6,4 7,-7 9,-21 4,-30 -2,-4 -5,-5 -5,-10 4,1 3,2 6,5 2,2 3,4 5,4 2,-2 3,-3 2,-7 -3,-13 -9,-18 -11,-23 4,1 9,9 12,8 4,-2 8,-25 8,-30 -1,-11 -12,-15 -16,-23 4,1 5,3 8,6 3,3 11,12 15,12 3,0 7,-4 8,-6 0,-4 -7,-6 -7,-10 2,0 1,0 3,1 2,1 6,6 8,6 3,0 9,-5 10,-8 -2,-2 -10,-8 -11,-13 5,2 9,9 15,10 9,-24 -8,-45 -24,-59 -14,-12 -37,-23 -58,-30 -19,-7 -128,-46 -132,-46 -9,47 16,5 -2,4z"/>
   <path class="fil1 str0" d="M218 905c0,-3 0,-3 2,-5 2,-3 2,-3 4,-4 0,3 -1,3 -2,5 -2,3 -2,3 -4,3zm-11 -23l1 1c0,0 -1,0 -1,-1zm-138 -121c4,0 15,-10 19,-13 4,-3 16,-11 21,-12 -3,4 -38,24 -39,31 -1,5 6,13 8,15 6,-3 9,-9 15,-10 -1,3 -3,4 -6,7 -10,10 -4,9 7,18 2,2 3,3 7,6 3,2 5,3 7,5 15,11 13,3 28,-9 5,-4 9,-7 13,-11l35 -27c2,-1 2,-1 4,-2 1,-1 2,-2 3,-2 -2,2 -15,13 -17,14l-43 38c-2,2 -2,2 -5,3 -4,2 -3,1 -4,5l7 5c3,3 5,6 8,9 2,2 2,1 3,3l4 7c9,-3 17,-19 26,-20 -2,6 -19,18 -24,23 1,4 7,13 9,15 3,-1 4,-3 7,-5 3,-2 0,-1 4,-2 -2,5 -9,8 -7,14l21 35c2,3 3,5 6,5 4,-3 7,-8 10,-12 3,-3 3,-2 5,-5 1,-1 1,-3 2,-4l3 -3c0,3 -1,5 -4,7l-14 20c3,3 8,9 14,10 3,-2 4,-5 7,-8 3,-3 4,-8 8,-8 0,3 0,0 -1,3l-10 14c4,3 7,4 13,6 9,2 10,3 14,-3l22 -27c3,-4 6,-6 9,-11l4 -6c2,-4 12,-22 16,-24 0,4 -5,11 -7,15 -1,1 -2,3 -3,4l-37 50c0,1 0,1 0,2 10,2 28,-4 36,-7 16,-6 27,-17 38,-29 6,-6 3,-8 4,-18 6,-48 27,-90 44,-134 2,-6 4,-11 6,-16 1,-2 2,-6 3,-8 0,-1 0,-1 1,-2 1,-3 2,-3 1,-6l-4 7c0,0 5,-15 5,-15l-10 14c3,-6 8,-6 8,-12 -17,-18 -23,28 -39,-34 1,-2 4,-8 4,-9l-2 -5 -15 7 -29 -2 -8 -12c0,0 0,-3 0,-3 0,-1 0,-1 0,-2 -1,-3 1,0 -1,-2l6 -14c-6,1 -4,2 -11,2 1,-2 1,-1 2,-2l8 -5c1,0 2,-1 3,-1l3 -1c2,-1 3,-2 4,-3 -3,0 -6,2 -8,3l-7 4c-16,8 -46,23 -61,31 -4,3 -10,5 -15,8l-62 31c-19,9 -43,20 -58,35 -5,5 -16,20 -14,32z"/>
   <path class="fil1 str0" d="M628 375c0,3 1,1 -2,3 -7,3 -1,-3 2,-3zm-133 38c26,4 8,-1 12,-11 -62,57 64,37 34,58 -11,12 47,-49 43,14 6,0 17,-9 22,-12 2,-1 5,-3 8,-4 10,-5 21,-10 31,-15 22,-9 44,-17 69,-24 17,-5 39,-10 57,-12 9,-1 11,-3 15,-8 7,-8 14,-15 20,-26 2,-3 18,-39 9,-41 -7,-1 -31,12 -36,12 0,0 1,-1 2,-1 2,-1 1,-1 2,-1 17,-10 22,-9 33,-15 1,-6 -4,-17 -7,-19 -4,-1 -15,7 -20,7 0,0 0,-1 1,0l4 -2c2,-1 3,-2 4,-3 3,-2 6,-4 8,-6 -7,-5 -9,-10 -20,-15 -4,-2 -8,-4 -12,-6 -17,-8 -19,-8 -41,4l-23 14c-19,13 -42,36 -58,53l-17 17c-13,13 6,-10 10,-13l41 -40c17,-17 38,-31 60,-40 0,0 2,-1 2,-1 1,-1 1,0 2,-2l-20 -15c-3,0 -6,3 -8,5 -2,1 -6,4 -9,4 4,-3 10,-11 14,-12 -9,-16 -27,4 -35,11l-3 2c1,-5 5,-8 8,-11l10 -8c12,-10 5,-19 -5,-16 -10,3 -24,16 -32,22 -2,2 -8,8 -11,8 1,-4 5,-7 8,-9 4,-4 6,-5 9,-8 6,-5 13,-10 18,-16 6,-6 12,-11 6,-23 -4,-8 -9,-15 -15,-20 -5,3 -9,8 -14,10 1,-2 3,-5 5,-7 2,-2 5,-4 5,-6 -2,-4 -10,-4 -15,-2 -7,2 -22,20 -29,27 -3,3 -1,2 -4,3 3,-10 23,-24 28,-31 7,-10 -11,-8 -18,-7 -20,4 -48,20 -62,33 -11,10 -18,17 -26,33 -13,26 -18,60 -28,89 -5,15 -10,28 -15,43 -3,7 -17,38 -17,41z"/>
   <path class="fil1 str0" d="M328 462c3,-1 1,1 3,-1 -2,-3 -3,-4 -6,-6 -6,-3 -2,-2 -6,-6 0,0 0,0 0,0l-4 -4c0,0 0,0 0,0l-3 -3c0,0 -1,-1 -1,-1l7 -14c0,0 -2,2 -2,2l-2 -2c48,1 -26,-7 11,9l4 -9 -17 10c0,0 1,1 1,1l2 2c1,1 1,1 3,3 1,1 1,1 2,2l7 8c1,2 1,2 2,3l7 5 -4 -7c-5,-6 -14,-14 -16,-17l-2 -5c4,2 1,0 3,2 1,1 1,1 2,2 11,10 8,11 10,14l2 3c0,0 0,0 0,0 0,0 0,0 0,0 2,3 5,7 9,8l0 -4c-1,-4 -6,-12 -8,-16 -1,-3 -2,-5 -4,-7 -2,-2 -4,-4 -5,-7 -3,-1 -2,-1 -4,-3l5 4c6,6 -3,-4 3,-2 0,-7 1,-8 -2,-11 -7,-4 43,29 1,-3 2,3 2,2 4,0l2 -5c8,-19 15,1 11,-9l4 10c-5,-3 19,35 0,-9 2,4 8,6 12,7 -1,-5 -5,-10 -7,-15l-8 -14c-5,-10 -10,-19 -15,-29 -20,-40 -41,-88 -40,-134 0,-11 2,-10 -4,-16 -4,-4 -7,-6 -13,-10 -5,-3 -8,-5 -14,-7 -3,-1 -5,-2 -8,-2 -19,-5 -7,11 -6,21 -2,-2 0,0 -1,-2 0,-1 -1,-1 -1,-2 -1,-2 -1,-2 -2,-4 -4,-9 -6,-18 -15,-13 -1,4 0,6 1,9 0,1 1,3 1,4 0,1 0,1 1,2l0 2c0,0 0,0 0,1l-4 -7c-2,-4 -2,-5 -4,-7 -12,-1 -26,23 -32,32 -6,9 -4,14 1,23 4,7 7,14 12,21 8,14 15,28 24,41l13 19c2,3 4,6 7,10 1,2 2,3 3,5 0,0 2,2 2,3l0 1c0,2 0,1 0,2 -10,-13 -17,-27 -26,-40l-29 -47c-1,-2 -3,-4 -4,-7 -3,-4 -5,-11 -9,-13 -3,1 -13,17 -10,24 1,2 5,8 7,11 2,2 6,9 6,12 -2,-1 -3,-3 -4,-5 -1,-2 -3,-4 -4,-6 -8,-10 -9,-14 -19,-4 -22,22 -26,12 2,42l10 11c2,3 6,7 7,9l-3 -2c0,0 0,0 0,0l-3 -4c-7,-7 -13,-14 -20,-20 -12,-11 -15,-18 -31,-7l-2 2c3,6 11,8 12,15l-7 -5c-12,-10 -10,-8 -23,0 -6,4 -23,14 -17,23 2,2 2,2 3,5 -6,0 -10,-6 -15,3 -8,13 3,19 12,26l52 35c2,2 4,2 7,4l3 3c-24,-11 -45,-28 -67,-42 -3,-2 -8,-7 -10,-5 -8,7 12,35 17,41 9,11 34,33 45,40l36 14c23,9 45,20 69,29 7,2 66,25 72,25 -1,-3 -6,-6 -9,-9l-10 -10c31,-27 -6,5 6,-32 39,25 93,54 9,-2 5,3 -2,4 5,0 -2,-3 3,2 1,0 0,0 -2,-5 -2,-5l2 -1c3,1 -4,-1 -2,1l-7 -5c0,0 0,0 0,0l23 18c4,2 6,4 9,7z"/>
   <path class="fil1 str0" d="M45 444c0,0 0,0 0,0 1,3 26,14 29,15l11 3c-4,2 -13,-3 -15,-4l-20 -9c-8,-4 -8,-7 -15,0 -15,13 -16,13 1,22 5,2 10,5 15,7l-11 -3c-5,-3 -21,-15 -22,-3 0,3 2,3 4,4l-3 1c-2,0 -4,-1 -5,4 -2,9 -5,33 3,37 13,8 54,21 70,26l18 4c8,2 17,3 25,5 7,1 6,0 13,2 4,1 9,0 13,2 -9,1 -12,-1 -20,-2 -7,0 -12,-2 -19,-2 -4,0 -5,-1 -8,-2 -10,-1 -33,-8 -43,-11 -11,-3 -21,-6 -32,-11 -4,-2 -12,-6 -17,-6 0,4 4,25 8,27 3,2 15,5 18,5l27 5c6,1 -5,-2 1,0l1 1c-8,0 -19,-1 -26,-3 -5,-1 -19,-6 -23,-5 0,3 1,13 2,16 7,1 31,4 36,6 -10,1 -25,-4 -37,-5 -1,2 -1,6 -2,9 0,3 -2,6 0,8 7,6 81,6 100,5l33 -2c-5,0 -11,2 -15,3 -5,1 -11,1 -16,2 -10,2 -25,1 -36,1 -12,0 -24,0 -36,0 -9,0 -26,-4 -33,-3 -2,5 -4,14 -5,21 -1,4 -1,7 -2,12 0,2 0,4 0,7 0,9 0,8 22,5 20,-3 52,-6 71,-3 -1,0 0,0 -2,1 -7,2 -15,0 -22,0 -13,0 -23,2 -35,3 -5,0 -32,5 -32,8 0,0 0,0 0,1 0,0 0,0 0,1 0,3 2,7 3,9 14,1 32,-1 44,0 -5,3 -33,3 -42,4 0,5 8,13 10,16 11,14 34,24 52,28 23,5 21,3 40,-7 12,-6 23,-12 36,-18 12,-6 59,-29 71,-35 17,-10 36,-17 54,-26 4,-2 15,-8 17,-9l-25 4c4,-1 4,0 6,-4l9 -52 -25 -54c5,2 11,2 15,-1 -2,-3 -23,-9 -27,-11 -10,-4 -19,-7 -29,-11 -9,-4 -18,-7 -28,-11 -39,-17 -77,-36 -122,-33 -8,1 -26,5 -30,10z"/>
   <path class="fil1 str0" d="M574 490l18 2c-2,3 -10,0 -20,5 53,30 6,54 39,46 -6,1 -11,2 -18,2l-17 4c0,0 0,0 -1,0 11,1 27,-3 36,0 -9,5 -17,1 -26,4l25 54c-4,-2 -8,-5 -13,-1l151 54c12,5 24,10 34,17 13,9 7,11 31,-2 2,-1 18,-10 18,-13 0,-3 -11,-7 -13,-9 0,0 -1,-1 -1,-1l-1 -1c6,0 17,7 21,7 3,-1 5,-5 7,-7 3,-3 5,-4 5,-9 -16,-6 -33,-13 -49,-19l-8 -4c7,0 23,7 30,9 4,1 27,11 29,11 3,-2 5,-5 5,-9 -7,-6 -18,-9 -27,-13l3 -1c7,2 22,9 27,9 3,-6 5,-21 3,-29 -2,-10 -6,-16 -10,-25 -2,-6 -4,-6 -9,-8 -4,-2 -8,-3 -13,-4 -5,-1 -9,-2 -14,-3l-10 -2c0,0 -2,0 -2,-1 -1,-1 -1,0 -2,-1 10,0 15,1 24,2 3,0 7,2 11,2 4,1 7,3 11,3l-1 -10c-2,-6 -27,-8 -33,-10 7,-4 25,3 32,2 2,-3 2,-11 1,-15 -7,-4 -44,-12 -54,-13 -11,-1 -20,-2 -31,-3 -11,-1 -22,0 -34,0 17,-6 71,-1 93,4 4,1 26,7 28,7 2,-6 13,-46 11,-48 -6,-5 -32,0 -36,-2 14,-6 28,-1 37,-4 4,-10 -4,-8 -12,-8 -16,0 -36,0 -51,3 -3,1 -8,2 -10,0 16,-3 35,-7 53,-7 17,0 22,5 19,-7 -7,-28 -30,-35 -58,-34 -81,4 -159,35 -227,78z"/>
   <path class="fil1 str0" d="M496 714c-2,-7 -5,-14 -8,-21l-1 18 -2 10 -41 -10 -4 2 0 -1c-9,14 5,31 -7,-17l-48 1c-3,5 -5,19 -7,24l0 -8c1,-4 2,-4 1,-9 -2,2 -1,1 -2,3 -1,2 -1,2 -2,4l-33 86c-13,33 -27,69 -22,106 2,13 7,22 12,31 4,6 16,21 22,22 1,-22 -3,-44 -1,-67l6 70c2,4 12,5 16,6 0,0 3,0 3,0l1 0c4,0 2,-7 1,-12 0,-4 -1,-8 -2,-12 -1,-17 -3,-35 -1,-52 0,-4 2,-21 2,-24 1,18 0,35 1,53 0,16 3,33 5,48 9,1 14,0 22,-1 4,0 7,-1 11,-2 5,-1 7,0 9,-3l0 -1c0,0 0,0 0,0l-1 -3c0,-1 0,-2 0,-3 0,-2 0,0 0,-1 0,-2 0,-1 1,-2 1,2 1,4 1,6 0,1 0,2 1,2 0,0 0,0 0,1l2 2c3,1 16,-2 19,-3 5,-2 4,2 12,0 0,-3 -1,-5 -2,-8 -2,-7 -2,-7 0,-9 1,4 2,6 3,9 4,12 2,8 25,13l-7 -34c-1,-5 -2,-13 -3,-18 -2,-7 -1,-13 -1,-21 1,1 0,-1 1,2l3 23c1,16 7,31 12,46 1,4 4,4 9,6 3,1 9,3 12,3 0,-5 -2,-6 -2,-11 3,3 5,8 8,12 2,3 12,5 15,2 5,-5 -3,-24 -6,-30 -3,-10 -6,-19 -9,-29 -2,-7 -8,-25 -8,-33 3,4 5,16 7,21 5,16 10,34 17,50 3,8 4,17 14,17 12,-1 21,-24 22,-40 3,-47 -39,-147 -59,-192l-10 -21c-3,-7 -6,-15 -11,-21l4 22z"/>
   <path class="fil1" d="M501 585c2,3 1,1 4,3 0,0 0,0 -1,0 0,0 0,0 -1,0l-2 2c3,1 4,2 6,3l16 10c0,0 0,0 0,1 -3,0 -11,-5 -14,-7 -3,-1 -4,-2 -7,-3 -3,-1 -3,-3 -6,-3l-1 1 0 4 25 19c-1,1 -5,-2 -7,-3l-13 -8c0,0 -1,-1 -1,-1l-3 -3c-2,-2 -1,-2 -5,-1 -9,3 -3,8 1,11 4,3 7,6 11,9 11,10 36,26 49,32 10,4 23,6 31,-1 8,-7 8,-21 1,-29 -13,-18 -46,-27 -67,-34 -5,-2 -11,-4 -17,-4l-1 3z"/>
   <path class="fil1" d="M382 601c0,-2 -3,-6 -4,-9 -5,1 -13,9 -19,12 -2,1 -4,4 -6,4 3,-4 22,-17 25,-22 -2,-4 0,-1 -3,-3 -4,-4 -3,-5 -8,-2 -5,2 -9,4 -14,6 -15,6 -27,12 -39,22 -4,3 -8,5 -12,9 -26,25 -8,45 14,39 9,-3 19,-11 26,-15 16,-11 20,-17 32,-30 3,-4 7,-7 9,-11z"/>
   <path class="fil1" d="M369 565l-12 1c1,-2 1,-2 5,-3 2,0 4,-1 5,-2 1,-1 4,-9 4,-10 -17,-2 -50,3 -68,7 -10,2 -21,4 -28,9 -6,4 -15,16 -7,26 12,16 41,6 59,-1 5,-2 9,-3 14,-5l26 -12c9,-3 4,-7 2,-12z"/>
   <path class="fil1" d="M408 617c-2,-2 -1,-1 -3,-2 -2,2 -2,3 -3,5l-4 7c-3,5 -5,6 -7,11 0,-4 10,-19 10,-25 -5,-1 -5,2 -8,6l-18 24c0,-2 0,-1 1,-2l4 -6c1,-2 15,-21 15,-22 -1,-2 -1,-2 -3,-4 -1,-1 -2,-4 -2,-5 -2,1 -14,15 -19,20 -5,5 -12,15 -17,22l-15 25c-2,5 -3,10 -3,17 1,18 20,23 34,10 8,-7 18,-25 24,-35 3,-6 16,-41 16,-43z"/>
   <path class="fil1" d="M497 522c3,5 9,0 13,-2 2,-1 4,-1 7,-3l20 -11c5,-2 29,-21 35,-27 6,-6 10,-22 3,-30 -12,-15 -49,13 -59,22l-15 16c-3,3 -7,7 -9,11 -3,4 -8,7 -6,12 2,-1 0,0 2,-2 4,-2 -1,-1 4,-2 -1,4 -2,3 -3,5l2 1 3 1c0,-1 0,-2 1,-3l16 -14c5,-5 3,-3 8,-7 0,0 0,0 0,0 0,0 1,-1 1,-1l7 -6c0,0 0,-1 2,-1 2,0 1,0 2,1 0,0 0,0 0,1l-9 8c-11,9 -4,3 -9,8 -2,2 -7,4 -10,7 -4,5 -7,5 -8,8 0,4 0,1 0,2 3,1 2,1 5,-1 4,-3 1,1 6,-5 2,-3 4,-4 7,-5 2,-1 13,-11 19,-12l-18 13c-2,3 -5,4 -9,7 -3,2 -3,3 -7,6 -1,1 -1,1 -3,2z"/>
   <path class="fil1" d="M505 530c5,2 7,-2 14,-4 1,0 1,0 2,-1l2 -1c4,-1 8,-3 11,-3 -5,2 -10,4 -15,6 -8,3 -11,3 -13,9 1,1 1,0 2,1l3 1c-5,1 -5,1 -8,5 6,0 13,-3 18,-4l6 -2c2,-1 4,0 6,-1 3,-1 10,-4 18,-4l-42 11c-5,2 -4,1 -5,5l9 0c-4,3 -6,0 -9,3 2,3 23,0 31,0 10,0 20,-3 29,-5 15,-5 39,-15 38,-32 -2,-18 -24,-12 -37,-10 -6,1 -10,3 -15,4 -4,1 -3,1 -6,2 -3,1 -4,1 -7,2 -3,1 -9,4 -12,5l-17 9c-4,2 -4,1 -4,5z"/>
   <path class="fil1" d="M520 562c0,0 -1,0 -1,0 -1,2 1,1 -4,1 -2,0 -4,0 -5,1 2,5 6,4 12,5l35 4c0,0 3,0 4,0 2,0 -1,0 1,0 2,1 1,0 2,1 -7,0 -32,-2 -38,-4 -3,-1 -4,-1 -8,-1 -7,0 -8,-3 -14,-1l-1 8c5,3 21,7 29,9 13,4 50,15 62,13 23,-3 24,-28 -3,-38 -20,-8 -46,-8 -67,-5 -3,0 -15,0 -17,2 -2,2 1,4 3,4 2,0 8,0 10,0z"/>
   <path class="fil1" d="M478 481c0,-3 3,0 1,0 0,0 0,0 0,0 0,0 -1,2 -1,0zm12 -1c1,-4 0,-1 1,-3l2 -3c-1,3 -3,5 -3,6zm-27 10c0,0 1,0 1,0 1,1 0,0 1,0 5,2 2,1 6,3 5,-5 3,-10 7,-12 2,3 1,1 -2,8 -1,3 -3,5 -4,9 5,0 4,-1 6,-3l8 -11c2,-2 2,-4 4,-5 -2,4 -4,7 -7,11 -6,9 -7,5 -2,11 4,-1 7,-7 9,-10 3,-4 6,-7 9,-11 6,-8 12,-13 18,-21 4,-5 1,-3 8,-11 2,-2 3,-3 4,-6 2,-3 3,-3 5,-5 18,-23 -19,-58 -46,-2l-9 20c-3,8 -15,27 -15,34z"/>
   <path class="fil1" d="M414 491c2,-2 2,-2 2,-5 1,3 0,2 2,3 0,0 2,1 3,1l2 0c0,0 1,0 1,0 1,-5 -3,-5 -1,-9 1,3 4,13 7,13 2,-6 -4,-7 -1,-12 3,4 3,13 7,10 2,-1 -6,-31 -5,-49 0,-20 -2,-30 -11,-45 -12,-21 -35,-18 -27,38 2,13 3,19 7,31 2,5 3,9 5,13 3,7 4,10 8,11z"/>
   <path class="fil1" d="M381 481c1,-1 2,1 1,1 0,0 -1,0 -1,-1zm5 26c5,-3 11,-6 5,-11 -2,-2 -8,-10 -9,-14 1,1 1,0 1,1l4 5c2,2 4,4 6,6l11 -4c-1,-3 -5,-8 -7,-12l-7 -13c-6,-11 -22,-37 -30,-48 -3,-4 -5,-6 -11,-9 -5,-2 -12,-3 -15,0 -12,11 10,44 15,55 5,11 9,13 12,17 2,2 2,3 4,6 5,5 14,17 20,20z"/>
   <path class="fil1" d="M437 625c-3,-2 -13,-7 -15,-1l-2 10c-1,6 -2,9 -2,14 0,4 0,6 -1,10 -2,5 -2,17 -2,17 0,-6 -1,-12 1,-17 0,-1 2,-19 5,-31 2,-6 2,-13 -5,-12 -3,5 -6,18 -9,24 -2,4 -3,7 -5,12 -1,2 -3,11 -3,14 -3,20 -4,43 9,55 10,9 15,0 18,-9 3,-9 6,-17 7,-26 2,-13 8,-49 6,-61z"/>
   <path class="fil1" d="M445 489c-1,-4 -1,-12 1,-17 0,3 1,6 1,9 0,8 0,5 2,6l3 -8c1,-3 0,-6 2,-8 1,9 -1,8 -2,11 0,2 0,3 0,5 5,-2 4,-7 6,-11 2,6 -1,3 -2,12 1,3 1,1 2,2 2,-2 4,-9 6,-12 4,-7 9,-30 15,-40 2,-3 7,-24 8,-28 3,-25 -19,-37 -32,-12 -5,8 -7,18 -9,28 -3,10 -4,20 -4,32 0,6 -1,12 -1,17 0,2 2,14 3,15 3,0 2,-1 4,-2z"/>
   <path class="fil1" d="M453 624l5 38c1,5 2,8 1,13l-5 -24c-1,-6 -3,-20 -3,-27 -1,0 -9,-7 -10,2 -2,23 -2,28 2,52 2,12 6,33 15,41 3,2 9,6 14,5 17,-4 7,-48 5,-62l-13 -43c-2,-3 -3,-2 -12,4z"/>
   <path class="fil1" d="M379 521c-4,-4 -13,-4 -16,-10 7,1 15,7 22,6l-1 -2c-1,-3 3,-4 -4,-11 -2,-2 -4,-3 -5,-4 -2,-2 -4,-3 -6,-5l-35 -27c-11,-6 -36,-23 -44,-11 -6,10 6,24 10,29 4,4 7,6 11,9 3,3 8,6 13,9 9,5 18,8 29,12 5,2 9,4 14,6 6,3 12,5 13,-3z"/>
   <path class="fil1" d="M499 650l1 4c0,0 -1,-2 -1,-4zm-21 -39c0,5 1,4 5,10 2,3 4,6 5,9l10 19c-1,-1 -1,-1 -1,-2l-20 -34c-2,-2 0,-1 -3,-2 0,1 -1,3 0,4l2 5c0,0 0,0 0,1l1 1c1,1 1,0 1,2 0,2 1,1 -1,3 -1,-4 -1,-3 -3,-6 -1,-3 -1,-5 -4,-5 0,3 8,25 9,29 6,12 22,36 32,46 4,4 19,15 27,6 14,-17 -19,-53 -27,-63 -5,-7 -13,-14 -19,-20 -6,-6 -5,-6 -12,-3z"/>
   <path class="fil1" d="M368 547c1,-2 1,-2 1,-4l0 -3c0,-4 -9,-4 -15,-5 -6,-1 -12,-1 -16,-2 -2,-1 -1,0 -2,-1 18,-1 33,4 39,2 -1,-3 -1,-3 -4,-5 -2,-1 -4,-2 -6,-3 -9,-3 -2,-2 -13,-5 -4,-1 -14,-6 -26,-8 -16,-3 -46,-14 -56,-1 -7,10 1,19 7,23 7,4 16,7 26,9 34,4 35,2 66,2z"/>
   <path class="fil3" d="M491 512c7,7 -1,3 7,8 -2,1 -1,1 -2,2 2,-1 2,-1 3,-2 3,-3 3,-4 7,-6 3,-2 7,-4 9,-7l18 -13c-5,1 -17,11 -19,12 -3,1 -5,2 -7,5 -5,6 -2,2 -6,5 -4,3 -3,2 -5,1 -1,-1 -1,2 0,-2 0,-3 4,-3 8,-8 2,-3 8,-5 10,-7 5,-6 -2,1 9,-8l9 -8c0,0 0,0 0,-1 -1,0 0,-1 -2,-1 -2,0 -1,0 -2,1l-7 6c0,0 -1,1 -1,1 0,0 0,0 0,0 -5,4 -3,2 -8,7l-16 14c-1,1 -1,2 -1,3l-3 -1z"/>
   <path class="fil1" d="M390 520c3,1 6,5 11,3 3,-1 6,-5 4,-9 -2,-3 -5,-6 -10,-5 -5,1 -5,6 -5,12z"/>
   <path class="fil1" d="M427 558c-11,5 -4,18 5,14 3,-1 6,-5 4,-10 -1,-3 -6,-6 -9,-5z"/>
   <path class="fil1" d="M407 549c-1,1 -3,1 -4,4 -2,8 5,12 11,9 8,-5 0,-19 -8,-13z"/>
   <path class="fil1" d="M453 523c-4,1 -8,3 -6,9 1,3 5,7 10,5 9,-3 5,-17 -4,-14z"/>
   <path class="fil1" d="M476 559c-3,2 -6,4 -4,10 1,3 6,6 11,3 8,-4 2,-18 -7,-14z"/>
   <path class="fil3" d="M497 591c-1,-1 -1,-1 -1,1 -2,1 -1,2 0,4l1 2c-1,0 -2,0 -3,0 -2,1 -1,0 -2,1 3,-1 3,-1 5,1l3 3c0,0 1,1 1,1l13 8c2,1 6,4 7,3l-25 -19 0 -4 1 -1c3,0 4,2 6,3 2,1 4,2 7,3 3,2 11,6 14,7 0,0 0,-1 0,-1l-16 -10c-2,-2 -3,-2 -6,-3l2 -2c0,0 0,0 1,0 0,0 0,0 1,0 -3,-2 -2,0 -4,-3 -1,3 -1,1 -3,3l2 2c0,0 0,0 0,1 -1,0 -1,0 -2,0 -2,0 0,0 -2,1z"/>
   <path class="fil1" d="M413 503c3,3 4,4 10,4 0,-1 7,-8 -1,-12 -5,-3 -9,3 -9,8z"/>
   <path class="fil1" d="M491 529c-8,5 0,15 6,11 7,-5 0,-14 -6,-11z"/>
   <path class="fil1" d="M472 505c-2,1 -2,0 -4,3 -2,5 3,10 9,7 8,-3 2,-15 -6,-11z"/>
   <path class="fil1" d="M385 525c-1,1 -3,1 -4,3 -1,2 -1,4 1,5 1,2 5,4 9,2 7,-3 1,-15 -6,-11z"/>
   <path class="fil1" d="M381 571c-9,4 -2,14 5,11 7,-2 3,-15 -5,-11z"/>
   <path class="fil1" d="M379 540c-4,2 -5,4 -3,8 1,2 5,4 8,2 6,-3 2,-13 -5,-10z"/>
   <path class="fil1" d="M388 586c-8,3 -4,12 4,10 6,-2 3,-13 -4,-10z"/>
   <path class="fil1" d="M377 556c-7,6 0,12 6,9 5,-3 0,-14 -6,-9z"/>
   <path class="fil1" d="M412 511c-6,3 -3,11 4,9 7,-1 3,-13 -4,-9z"/>
   <path class="fil1" d="M462 588c-1,1 -1,0 -2,1 0,0 -1,1 -1,1 -2,3 2,9 7,6 7,-3 0,-12 -5,-9z"/>
   <path class="fil1" d="M399 577c-7,3 -2,11 4,9 6,-2 3,-12 -4,-9z"/>
   <path class="fil1" d="M396 599c0,0 -4,3 -1,7 1,2 5,2 7,1 5,-4 -1,-12 -6,-7z"/>
   <path class="fil1" d="M397 537c-6,4 0,11 6,8 5,-3 1,-12 -6,-8z"/>
   <path class="fil1" d="M441 507c-1,2 -4,4 -2,7 1,2 3,5 6,3 7,-2 5,-10 -3,-10z"/>
   <path class="fil1" d="M420 580c-1,2 -3,4 -1,7 1,2 4,3 7,2 4,-2 3,-10 -6,-8z"/>
   <path class="fil3" d="M445 489c2,-2 0,-1 2,-1 0,0 2,0 2,0 2,0 3,0 6,1 1,-9 4,-7 2,-12 -2,4 0,9 -6,11 0,-2 0,-3 0,-5 1,-3 3,-2 2,-11 -2,2 -1,5 -2,8l-3 8c-2,0 -2,2 -2,-6 0,-3 0,-6 -1,-9 -2,4 -1,13 -1,17z"/>
   <path class="fil1" d="M424 512l0 5c7,5 13,1 8,-7 -4,-1 -5,1 -7,2z"/>
   <path class="fil1" d="M406 525c-2,1 -2,-1 -3,2 -1,2 -1,3 0,4 3,6 12,1 8,-5 -1,-1 -2,-2 -3,-2 -4,-1 -3,0 -3,1z"/>
   <path class="fil1" d="M412 568c0,0 -5,1 -3,6 1,2 4,4 7,3 6,-2 1,-11 -4,-9z"/>
   <path class="fil1" d="M430 504c4,3 5,3 10,0 1,-10 -12,-10 -10,0z"/>
   <path class="fil1" d="M473 537c-2,-1 -4,-3 -7,-1 -2,1 -3,4 -2,6 2,4 11,5 9,-5z"/>
   <path class="fil1" d="M447 494c-7,3 -2,11 4,10 5,-2 3,-12 -4,-10z"/>
   <path class="fil1" d="M448 559c2,-7 -5,-11 -9,-6 -3,5 3,10 9,6z"/>
   <path class="fil1" d="M457 583c-2,-9 -10,-5 -10,0 0,5 8,8 10,0z"/>
   <path class="fil1" d="M398 558c1,-8 -6,-10 -9,-6 -2,3 -1,6 1,7 3,2 6,0 7,-1z"/>
   <path class="fil1" d="M431 592c-1,10 8,8 9,4 1,-3 -1,-5 -3,-6 -3,-1 -5,1 -6,2z"/>
   <path class="fil1" d="M491 520c-12,-11 -14,7 -4,6 3,-1 3,-3 4,-6z"/>
   <path class="fil1" d="M439 537c-2,1 -4,3 -3,6 1,2 4,4 7,2 5,-2 2,-11 -4,-9z"/>
   <path class="fil1" d="M442 584c2,-8 -4,-11 -8,-7 -4,5 0,9 8,7z"/>
   <path class="fil1" d="M478 544c-1,1 -2,1 -2,3 -1,4 4,7 8,5 5,-3 0,-12 -6,-8z"/>
   <path class="fil1" d="M408 588c-7,5 0,11 5,8 2,-1 3,-4 2,-7 0,-1 -2,-2 -3,-2 -4,-1 -3,0 -4,1z"/>
   <path class="fil1" d="M420 524c-6,5 1,10 6,7 5,-3 0,-12 -6,-7z"/>
   <path class="fil1" d="M451 544c-1,8 7,10 9,5 3,-5 -3,-9 -9,-5z"/>
   <path class="fil1" d="M399 498c-1,6 3,11 10,6 1,-7 -3,-10 -10,-6z"/>
   <path class="fil1" d="M436 522c-2,1 -4,2 -3,6 1,3 4,4 7,3 5,-3 1,-11 -4,-9z"/>
   <path class="fil1" d="M425 544c-6,6 -1,11 4,9 5,-2 4,-10 -4,-9z"/>
   <path class="fil1" d="M468 613c4,-5 3,-10 -5,-9 -2,2 -3,3 -2,7 1,3 4,3 7,3z"/>
   <path class="fil1" d="M454 565c3,3 4,2 8,1 3,-12 -12,-10 -8,-1z"/>
   <path class="fil1" d="M474 597c-6,3 -1,11 5,8 5,-3 1,-11 -5,-8z"/>
   <path class="fil1" d="M492 546c-1,2 -3,4 -1,7 1,2 5,3 7,2 5,-3 2,-10 -6,-8z"/>
   <path class="fil1" d="M490 574c-4,3 -1,12 5,8 5,-3 0,-12 -5,-8z"/>
   <path class="fil1" d="M449 608c-5,3 0,11 6,8 5,-3 0,-12 -6,-8z"/>
   <path class="fil1" d="M447 594c-6,5 1,10 5,8 5,-3 0,-13 -5,-8z"/>
   <path class="fil1" d="M442 611c-6,-3 -11,2 -8,6 2,3 12,4 8,-6z"/>
   <path class="fil1" d="M484 586c-8,3 -1,11 3,9 2,-1 4,-3 3,-6 -1,-2 -3,-4 -6,-3z"/>
   <path class="fil1" d="M458 503c2,1 3,3 5,4 3,-1 7,-5 3,-9 -4,-4 -8,-1 -7,5z"/>
   <path class="fil1" d="M420 611l2 5c5,1 5,0 8,-2 0,-8 -7,-10 -10,-3z"/>
   <path class="fil1" d="M501 562c-5,-4 -11,-2 -9,5 2,4 10,5 9,-5z"/>
   <path class="fil1" d="M466 579l2 -4c-5,-12 -16,6 -2,4z"/>
   <path class="fil1" d="M459 518c2,-4 4,-9 -3,-8 -5,1 -4,9 3,8z"/>
   <path class="fil1" d="M478 526c-2,-2 -2,-3 -6,-3 -1,1 -1,2 -2,3 0,2 1,3 2,4 4,2 6,-1 6,-5z"/>
   <path class="fil1" d="M442 567l0 6 6 0c1,-3 2,-5 -1,-7 -2,-2 -4,-1 -6,1z"/>
   <path class="fil1" d="M472 556c2,-4 1,-6 -3,-7 -7,2 -4,9 3,7z"/>
   <path class="fil1" d="M413 611c2,-1 2,-2 3,-4 -5,-10 -13,3 -3,4z"/>
   <path class="fil1" d="M400 571c1,-6 -4,-8 -7,-5 -1,2 -1,4 1,5 2,1 4,0 6,-1z"/>
   <path class="fil1" d="M419 537c-2,0 -4,-1 -6,0 -1,1 -1,4 0,5 3,3 7,0 6,-6z"/>
   <path class="fil1" d="M419 599l3 3c3,0 3,-1 5,-2l0 -4c-4,-2 -6,-3 -7,3z"/>
   <path class="fil1" d="M472 581c0,4 1,5 4,5 3,-2 3,-1 2,-6 -3,-1 -4,-1 -6,0z"/>
   <path class="fil1" d="M433 539c0,-3 -1,-3 -3,-3 -1,4 1,4 3,3z"/>
   <path class="fil1" d="M479 538l3 0 0 -3c-1,0 -1,-1 -3,0l0 3z"/>
   <path class="fil0" d="M452 375c-10,-1 -16,4 -26,6 -9,2 -18,1 -27,1 -13,1 -26,0 -38,3 -25,5 -31,14 -47,31 -6,6 -13,13 -18,20 -8,11 -14,23 -21,34 -5,10 -12,20 -14,31 -2,11 1,23 0,35 -1,10 -6,20 -7,30 0,12 2,24 4,35 2,10 6,19 10,28 5,12 11,23 18,34 6,9 14,16 22,22 10,9 21,16 32,24 11,7 21,15 33,20 12,5 26,7 39,8 11,1 21,0 32,-1 16,-1 32,1 47,-2 14,-3 27,-8 39,-14 9,-4 17,-11 24,-17 9,-8 19,-16 26,-25 10,-13 19,-26 25,-40 5,-12 6,-25 8,-38 2,-13 4,-27 4,-40 0,-13 -3,-26 -5,-39 -2,-12 -4,-25 -8,-36 -3,-9 -9,-17 -14,-25 -5,-8 -10,-17 -16,-24 -7,-7 -15,-13 -22,-19 -8,-6 -16,-12 -25,-16 -13,-6 -28,-7 -41,-13 -12,-5 -23,-11 -35,-12z"/>
   <path class="fil1" d="M451 387c-9,-1 -15,3 -24,5 -8,2 -17,1 -25,1 -12,1 -24,0 -36,3 -9,2 -17,5 -24,10 -8,5 -13,13 -20,19 -6,6 -12,12 -17,19 -7,10 -13,21 -19,32 -5,9 -11,19 -13,29 -2,11 1,22 0,33 -1,10 -6,19 -6,28 0,11 1,22 4,33 2,9 6,18 10,26 5,11 10,22 17,32 6,8 13,15 21,21 9,8 20,15 30,22 10,7 19,14 31,19 11,5 24,7 36,8 10,1 20,0 30,-1 15,-1 30,0 44,-2 13,-2 25,-7 37,-13 8,-4 16,-10 23,-16 9,-7 17,-15 24,-24 9,-12 18,-24 23,-38 5,-11 6,-24 7,-36 2,-13 4,-25 4,-38 0,-12 -3,-24 -5,-36 -2,-11 -3,-23 -7,-34 -3,-8 -8,-16 -13,-23 -5,-8 -9,-16 -15,-23 -6,-7 -14,-12 -21,-18 -7,-6 -15,-12 -23,-15 -12,-5 -26,-7 -38,-12 -11,-4 -21,-10 -33,-12z"/>
   <g style="clip-path:url(#id0)">
    <g>
     <g>
      <g>
       <path id="1" class="fil4 str0" d="M123 271c-64,240 -170,447 -341,600"/>
       <g>
        <path class="fil4 str0" d="M149 271c-64,240 -170,447 -341,600"/>
        <path class="fil4 str0" d="M176 271c-64,240 -170,447 -341,600"/>
        <path class="fil4 str0" d="M202 271c-64,240 -170,447 -341,600"/>
        <path class="fil4 str0" d="M229 271c-64,240 -170,447 -341,600"/>
        <path class="fil4 str0" d="M255 271c-64,240 -170,447 -341,600"/>
        <path class="fil4 str0" d="M282 271c-64,240 -170,447 -341,600"/>
        <path class="fil4 str0" d="M308 271c-64,240 -170,447 -341,600"/>
        <path class="fil4 str0" d="M335 271c-64,240 -170,447 -341,600"/>
        <path class="fil4 str0" d="M361 271c-64,240 -170,447 -341,600"/>
        <path class="fil4 str0" d="M388 271c-64,240 -170,447 -341,600"/>
        <path class="fil4 str0" d="M414 271c-64,240 -170,447 -341,600"/>
        <path class="fil4 str0" d="M441 271c-64,240 -170,447 -341,600"/>
        <path class="fil4 str0" d="M468 271c-64,240 -170,447 -341,600"/>
        <path class="fil4 str0" d="M494 271c-64,240 -170,447 -341,600"/>
        <path class="fil4 str0" d="M521 271c-64,240 -170,447 -341,600"/>
        <path class="fil4 str0" d="M547 271c-64,240 -170,447 -341,600"/>
        <path class="fil4 str0" d="M574 271c-64,240 -170,447 -341,600"/>
        <path class="fil4 str0" d="M600 271c-64,240 -170,447 -341,600"/>
        <path class="fil4 str0" d="M627 271c-64,240 -170,447 -341,600"/>
        <path class="fil4 str0" d="M653 271c-64,240 -170,447 -341,600"/>
        <path class="fil4 str0" d="M680 271c-64,240 -170,447 -341,600"/>
        <path class="fil4 str0" d="M706 271c-64,240 -170,447 -341,600"/>
        <path class="fil4 str0" d="M733 271c-64,240 -170,447 -341,600"/>
        <path class="fil4 str0" d="M760 271c-64,240 -170,447 -341,600"/>
        <path class="fil4 str0" d="M786 271c-64,240 -170,447 -341,600"/>
        <path class="fil4 str0" d="M813 271c-64,240 -170,447 -341,600"/>
        <path class="fil4 str0" d="M839 271c-64,240 -170,447 -341,600"/>
        <path class="fil4 str0" d="M866 271c-64,240 -170,447 -341,600"/>
        <path class="fil4 str0" d="M892 271c-64,240 -170,447 -341,600"/>
        <path class="fil4 str0" d="M919 271c-64,240 -170,447 -341,600"/>
       </g>
       <path class="fil4 str0" d="M945 271c-64,240 -170,447 -341,600"/>
      </g>
      <g>
       <path class="fil4 str0" d="M706 261c-248,0 -475,-48 -668,-174"/>
       <g>
        <path class="fil4 str0" d="M713 287c-248,0 -475,-48 -668,-174"/>
        <path class="fil4 str0" d="M719 312c-248,0 -475,-48 -668,-174"/>
        <path class="fil4 str0" d="M726 338c-248,0 -475,-48 -668,-174"/>
        <path class="fil4 str0" d="M733 364c-248,0 -475,-48 -668,-174"/>
        <path class="fil4 str0" d="M740 389c-248,0 -475,-48 -668,-174"/>
        <path class="fil4 str0" d="M747 415c-248,0 -475,-48 -668,-174"/>
        <path class="fil4 str0" d="M754 440c-248,0 -475,-48 -668,-174"/>
        <path class="fil4 str0" d="M761 466c-248,0 -475,-48 -668,-174"/>
        <path class="fil4 str0" d="M768 492c-248,0 -475,-48 -668,-174"/>
        <path class="fil4 str0" d="M774 517c-248,0 -475,-48 -668,-174"/>
        <path class="fil4 str0" d="M781 543c-248,0 -475,-48 -668,-174"/>
        <path class="fil4 str0" d="M788 569c-248,0 -475,-48 -668,-174"/>
        <path class="fil4 str0" d="M795 594c-248,0 -475,-48 -668,-174"/>
        <path class="fil4 str0" d="M802 620c-248,0 -475,-48 -668,-174"/>
        <path class="fil4 str0" d="M809 646c-248,0 -475,-48 -668,-174"/>
        <path class="fil4 str0" d="M816 671c-248,0 -475,-48 -668,-174"/>
        <path class="fil4 str0" d="M822 697c-248,0 -475,-48 -668,-174"/>
        <path class="fil4 str0" d="M829 722c-248,0 -475,-48 -668,-174"/>
        <path class="fil4 str0" d="M836 748c-248,0 -475,-48 -668,-174"/>
        <path class="fil4 str0" d="M843 774c-248,0 -475,-48 -668,-174"/>
        <path class="fil4 str0" d="M850 799c-248,0 -475,-48 -668,-174"/>
        <path class="fil4 str0" d="M857 825c-248,0 -475,-48 -668,-174"/>
        <path class="fil4 str0" d="M864 851c-248,0 -475,-48 -668,-174"/>
        <path class="fil4 str0" d="M871 876c-248,0 -475,-48 -668,-174"/>
        <path class="fil4 str0" d="M877 902c-248,0 -475,-48 -668,-174"/>
        <path class="fil4 str0" d="M884 928c-248,0 -475,-48 -668,-174"/>
        <path class="fil4 str0" d="M891 953c-248,0 -475,-48 -668,-174"/>
        <path class="fil4 str0" d="M898 979c-248,0 -475,-48 -668,-174"/>
        <path class="fil4 str0" d="M905 1004c-248,0 -475,-48 -668,-174"/>
        <path class="fil4 str0" d="M912 1030c-248,0 -475,-48 -668,-174"/>
       </g>
       <path class="fil4 str0" d="M919 1056c-248,0 -475,-48 -668,-174"/>
      </g>
     </g>
    </g>
   </g>
   <path class="fil4" d="M451 387c-9,-1 -15,3 -24,5 -8,2 -17,1 -25,1 -12,1 -24,0 -36,3 -9,2 -17,5 -24,10 -8,5 -13,13 -20,19 -6,6 -12,12 -17,19 -7,10 -13,21 -19,32 -5,9 -11,19 -13,29 -2,11 1,22 0,33 -1,10 -6,19 -6,28 0,11 1,22 4,33 2,9 6,18 10,26 5,11 10,22 17,32 6,8 13,15 21,21 9,8 20,15 30,22 10,7 19,14 31,19 11,5 24,7 36,8 10,1 20,0 30,-1 15,-1 30,0 44,-2 13,-2 25,-7 37,-13 8,-4 16,-10 23,-16 9,-7 17,-15 24,-24 9,-12 18,-24 23,-38 5,-11 6,-24 7,-36 2,-13 4,-25 4,-38 0,-12 -3,-24 -5,-36 -2,-11 -3,-23 -7,-34 -3,-8 -8,-16 -13,-23 -5,-8 -9,-16 -15,-23 -6,-7 -14,-12 -21,-18 -7,-6 -15,-12 -23,-15 -12,-5 -26,-7 -38,-12 -11,-4 -21,-10 -33,-12z"/>
   <g>
    <path class="fil5 str2" d="M543 461c0,1 -1,2 -3,2l-2 0c-3,0 -6,-1 -8,-1 -16,0 -34,7 -55,20 -10,7 -19,13 -26,20 -7,7 -20,21 -38,42 -22,25 -39,42 -50,50 -6,4 -9,7 -10,7 0,0 -1,0 -1,0 0,0 1,-1 2,-3 11,-14 20,-30 27,-49 8,-19 11,-35 11,-47 0,-20 -8,-31 -25,-31 -6,0 -14,2 -22,7 -8,4 -16,10 -23,17 -8,8 -14,16 -18,26 -5,10 -7,18 -7,27 0,7 2,13 6,18 4,4 9,7 16,7 13,0 26,-9 39,-26 9,-12 14,-23 14,-33 0,-4 -1,-8 -3,-10 -2,-3 -5,-4 -9,-4 -2,0 -4,0 -6,1 -2,1 -3,2 -3,3 0,0 0,1 1,1l1 0c2,0 3,0 3,0 3,0 4,1 4,4 0,2 -1,3 -2,5 -1,1 -3,2 -5,2 -4,0 -6,-2 -6,-6 0,-3 1,-6 4,-8 3,-2 6,-3 10,-3 4,0 7,1 10,4 2,3 4,7 4,11 0,12 -6,25 -18,39 -12,14 -24,21 -37,21 -8,0 -14,-3 -19,-8 -5,-6 -8,-13 -8,-21 0,-17 8,-33 25,-50 17,-16 34,-25 51,-25 10,0 18,4 25,11 6,7 9,16 9,28 0,12 -3,25 -10,39 -7,14 -18,29 -34,47 -1,1 -1,1 -1,1l0 0c1,0 5,-3 11,-8 5,-4 10,-9 16,-15 5,-5 18,-20 38,-43 12,-14 23,-25 32,-33 9,-8 20,-15 31,-22 19,-11 35,-16 50,-16 5,0 7,1 7,3z"/>
    <path class="fil5 str2" d="M580 563c0,3 0,7 -1,10 -1,4 -2,6 -2,6 -1,0 -1,0 -1,-1 0,0 0,0 0,-1 2,-4 2,-9 2,-14 0,-8 -2,-14 -7,-18 -5,-5 -10,-7 -18,-7 -10,0 -20,3 -31,10 9,7 13,15 13,23 0,7 -3,13 -8,18 -6,5 -13,8 -22,9 6,4 9,9 9,16 0,5 -2,12 -5,21 -2,6 -3,11 -3,14 0,4 1,7 4,9 3,2 6,4 10,4 4,0 8,-1 11,-4 1,0 1,-1 2,-1 0,0 1,0 1,1 0,1 -2,2 -5,4 -3,1 -6,2 -9,2 -6,0 -11,-2 -15,-7 -4,-5 -6,-10 -6,-17 0,-5 2,-14 7,-26 1,-3 2,-6 2,-8 0,-3 -1,-5 -4,-7 -4,0 -6,1 -7,1 -6,0 -9,-1 -9,-2 0,-1 2,-1 5,-1 4,0 7,1 11,2 7,-1 13,-4 18,-10 5,-6 7,-12 7,-19 0,-6 -2,-12 -7,-17l-1 -1c-13,10 -26,27 -37,52 -7,15 -14,26 -20,32 -6,7 -14,12 -25,18 -13,6 -24,9 -34,9 -8,0 -15,-2 -20,-6 -5,-4 -8,-8 -8,-14 0,-3 1,-6 3,-8 2,-2 4,-3 7,-3 4,0 6,2 6,6 0,2 -1,4 -2,5 -1,1 -3,2 -5,2 -3,0 -5,-2 -5,-5 0,-1 0,-2 0,-2 -1,0 -1,2 -1,5 0,5 2,9 7,12 5,3 11,5 19,5 13,0 25,-5 36,-15 5,-4 9,-9 12,-13 4,-5 11,-16 24,-35 6,-9 13,-18 21,-28 8,-9 15,-16 21,-20 -9,-8 -23,-12 -41,-12 -25,0 -47,9 -66,28 -15,15 -23,29 -23,43 0,7 2,12 7,16 4,4 10,6 18,6 12,0 25,-6 38,-17 13,-12 19,-23 19,-34 0,-9 -4,-13 -13,-13 -9,0 -19,5 -29,15 -10,10 -15,19 -15,28 0,2 1,4 2,6 1,2 3,2 5,2 1,0 2,0 2,1 0,0 -1,1 -2,1 -3,0 -5,-1 -7,-4 -2,-3 -3,-6 -3,-10 0,-9 5,-19 15,-28 10,-9 21,-13 32,-13 10,0 16,5 16,14 0,12 -7,23 -20,35 -13,12 -26,18 -39,18 -8,0 -15,-3 -20,-8 -5,-5 -8,-12 -8,-20 0,-17 10,-33 29,-47 19,-14 40,-21 64,-21 18,0 33,4 45,12 11,-7 22,-10 32,-10 8,0 15,2 19,7 5,5 7,11 7,19z"/>
   </g>
   <g>
    <path class="fil6 str3" d="M543 461c0,1 -1,2 -3,2l-2 0c-3,0 -6,-1 -8,-1 -16,0 -34,7 -55,20 -10,7 -19,13 -26,20 -7,7 -20,21 -38,42 -22,25 -39,42 -50,50 -6,4 -9,7 -10,7 0,0 -1,0 -1,0 0,0 1,-1 2,-3 11,-14 20,-30 27,-49 8,-19 11,-35 11,-47 0,-20 -8,-31 -25,-31 -6,0 -14,2 -22,7 -8,4 -16,10 -23,17 -8,8 -14,16 -18,26 -5,10 -7,18 -7,27 0,7 2,13 6,18 4,4 9,7 16,7 13,0 26,-9 39,-26 9,-12 14,-23 14,-33 0,-4 -1,-8 -3,-10 -2,-3 -5,-4 -9,-4 -2,0 -4,0 -6,1 -2,1 -3,2 -3,3 0,0 0,1 1,1l1 0c2,0 3,0 3,0 3,0 4,1 4,4 0,2 -1,3 -2,5 -1,1 -3,2 -5,2 -4,0 -6,-2 -6,-6 0,-3 1,-6 4,-8 3,-2 6,-3 10,-3 4,0 7,1 10,4 2,3 4,7 4,11 0,12 -6,25 -18,39 -12,14 -24,21 -37,21 -8,0 -14,-3 -19,-8 -5,-6 -8,-13 -8,-21 0,-17 8,-33 25,-50 17,-16 34,-25 51,-25 10,0 18,4 25,11 6,7 9,16 9,28 0,12 -3,25 -10,39 -7,14 -18,29 -34,47 -1,1 -1,1 -1,1l0 0c1,0 5,-3 11,-8 5,-4 10,-9 16,-15 5,-5 18,-20 38,-43 12,-14 23,-25 32,-33 9,-8 20,-15 31,-22 19,-11 35,-16 50,-16 5,0 7,1 7,3z"/>
    <path class="fil6 str3" d="M580 563c0,3 0,7 -1,10 -1,4 -2,6 -2,6 -1,0 -1,0 -1,-1 0,0 0,0 0,-1 2,-4 2,-9 2,-14 0,-8 -2,-14 -7,-18 -5,-5 -10,-7 -18,-7 -10,0 -20,3 -31,10 9,7 13,15 13,23 0,7 -3,13 -8,18 -6,5 -13,8 -22,9 6,4 9,9 9,16 0,5 -2,12 -5,21 -2,6 -3,11 -3,14 0,4 1,7 4,9 3,2 6,4 10,4 4,0 8,-1 11,-4 1,0 1,-1 2,-1 0,0 1,0 1,1 0,1 -2,2 -5,4 -3,1 -6,2 -9,2 -6,0 -11,-2 -15,-7 -4,-5 -6,-10 -6,-17 0,-5 2,-14 7,-26 1,-3 2,-6 2,-8 0,-3 -1,-5 -4,-7 -4,0 -6,1 -7,1 -6,0 -9,-1 -9,-2 0,-1 2,-1 5,-1 4,0 7,1 11,2 7,-1 13,-4 18,-10 5,-6 7,-12 7,-19 0,-6 -2,-12 -7,-17l-1 -1c-13,10 -26,27 -37,52 -7,15 -14,26 -20,32 -6,7 -14,12 -25,18 -13,6 -24,9 -34,9 -8,0 -15,-2 -20,-6 -5,-4 -8,-8 -8,-14 0,-3 1,-6 3,-8 2,-2 4,-3 7,-3 4,0 6,2 6,6 0,2 -1,4 -2,5 -1,1 -3,2 -5,2 -3,0 -5,-2 -5,-5 0,-1 0,-2 0,-2 -1,0 -1,2 -1,5 0,5 2,9 7,12 5,3 11,5 19,5 13,0 25,-5 36,-15 5,-4 9,-9 12,-13 4,-5 11,-16 24,-35 6,-9 13,-18 21,-28 8,-9 15,-16 21,-20 -9,-8 -23,-12 -41,-12 -25,0 -47,9 -66,28 -15,15 -23,29 -23,43 0,7 2,12 7,16 4,4 10,6 18,6 12,0 25,-6 38,-17 13,-12 19,-23 19,-34 0,-9 -4,-13 -13,-13 -9,0 -19,5 -29,15 -10,10 -15,19 -15,28 0,2 1,4 2,6 1,2 3,2 5,2 1,0 2,0 2,1 0,0 -1,1 -2,1 -3,0 -5,-1 -7,-4 -2,-3 -3,-6 -3,-10 0,-9 5,-19 15,-28 10,-9 21,-13 32,-13 10,0 16,5 16,14 0,12 -7,23 -20,35 -13,12 -26,18 -39,18 -8,0 -15,-3 -20,-8 -5,-5 -8,-12 -8,-20 0,-17 10,-33 29,-47 19,-14 40,-21 64,-21 18,0 33,4 45,12 11,-7 22,-10 32,-10 8,0 15,2 19,7 5,5 7,11 7,19z"/>
   </g>
   <path class="fil4 str0" d="M205 1182c17,-30 42,-59 66,-83m3 143c2,-16 7,-36 16,-52m-100 -33c18,-30 46,-62 78,-88m-135 -92c19,-18 39,-35 67,-49m-42 185c29,-43 69,-74 107,-100m-42 185c14,-27 31,-49 49,-66m21 131c3,-9 7,-24 10,-33m-157 -321c8,-2 17,-3 25,-5m73 321c6,-21 19,-44 36,-62m-148 -146c47,-42 98,-70 151,-87m-108 206c21,-37 56,-70 93,-94m-131 -102c15,-7 29,-15 44,-22m-44 128c43,-33 93,-64 143,-88m-134 121c33,-39 81,-67 127,-88"/>
   <path class="fil4 str0" d="M413 1146c-51,-32 -94,-72 -131,-117m84 198c-29,-19 -58,-42 -79,-64m138 -36c-53,-38 -99,-82 -142,-128m148 105c-51,-40 -100,-87 -142,-134m107 198c-44,-35 -83,-72 -117,-109m73 191c-23,-10 -38,-23 -54,-35m154 -195c-31,-9 -50,-28 -68,-49m64 77c-62,-30 -103,-75 -148,-122m141 143c-52,-32 -100,-74 -146,-118m158 36c-16,-5 -26,-12 -32,-20m-46 233c-35,-22 -65,-47 -94,-73m109 56c-40,-27 -78,-59 -111,-91"/>
   <path class="fil0 str4" d="M1091 196c-91,90 -183,166 -283,186 1,-7 3,-14 8,-15 95,-21 186,-90 275,-171z"/>
   <path class="fil4 str5" d="M810 302c-6,-35 -36,-58 -22,-94m39 162c22,-47 22,-111 2,-177m32 161c33,-44 45,-99 30,-171m26 148c26,-36 37,-91 26,-143m30 113c18,-30 29,-64 35,-102m17 56c9,-19 17,-38 19,-56m-298 42c7,14 30,15 41,56"/>
   <path class="fil4 str5" d="M1078 246c-19,5 -39,10 -58,16m50 19c-29,13 -59,-1 -88,12m80 21c-46,10 -73,-10 -115,2m97 42c-39,1 -87,-26 -126,-21m102 66c-48,-10 -90,-53 -146,-46m91 84c-40,-13 -80,-62 -126,-71m89 94c-41,-27 -68,-76 -122,-80m97 91c-20,-7 -27,-27 -37,-25"/>
   <path class="fil4 str0" d="M751 148c-13,-41 -5,-86 1,-127m-18 167c-7,-51 -17,-96 -9,-150m-2 176c-10,-50 -25,-107 -21,-157m2 149c-12,-33 -21,-86 -27,-124m-20 89c-8,-7 -12,-18 -15,-25m38 35c-14,-15 -14,-60 -20,-71"/>
   <path class="fil0 str4" d="M778 2c-6,83 -23,167 -56,236 -2,4 -9,-6 -8,-8 35,-66 55,-149 65,-229z"/>
   <path class="fil4 str0" d="M766 85c15,-9 28,-31 39,-47m-51 95c27,-20 49,-40 67,-74m-82 117c35,-24 65,-54 93,-86m-99 121c46,-29 80,-63 112,-98m-125 125c45,-23 89,-54 133,-83"/>
   <path class="fil4 str6" d="M373 299l18 89m266 165l-45 0m54 45l-56 -12m-348 138l48 -44m-98 -51l56 -22m117 168l11 -45m-195 -151l58 -5m32 186l45 -58m270 -348l-57 71m77 -26l-53 46m37 282l-43 -41m-48 88l-19 -49m-26 -391l-7 51m117 73l63 -35m-10 216l-35 -16m-388 -131l51 10m56 284l40 -72m72 68l-2 -49m-176 -323l39 33m182 339l-6 -50m167 -48l-50 -29m-344 39l45 -32m267 -295l-24 41m-252 -35l41 50m-2 -75l26 48m169 -45l-17 46m-273 268l50 -30m396 -119l-61 9m-411 8l63 3m304 210l-26 -42m-324 -259l67 28m140 -156l3 67m252 86l-79 22m-331 -10l-22 -8m16 44l-26 -4m24 39l-27 2m26 33l-33 7m55 51l-25 19m44 5l-19 17m42 6l-20 21m47 -3l-16 25m50 -7l-8 25m39 -21l-1 35m38 -35l5 31m31 -33l9 40m32 -52l13 25m16 -45l19 23m4 -48l24 23m-5 -54l29 13m-19 -52l28 5m-27 -40l30 4m-32 -30l26 -2m-28 -31l34 -5m-45 -23l29 -14m-60 -34l24 -24m-71 -8l8 -24m-41 9l6 -22m-41 16l0 -30m-39 33l-5 -27m-35 33l-8 -26m-30 39l-17 -21m-10 51l-22 -21m4 49l-24 -16"/>
  </g>
 </g>
</svg>
