<?xml version="1.0" encoding="UTF-8"?>
<!DOCTYPE svg PUBLIC "-//W3C//DTD SVG 1.1//EN" "http://www.w3.org/Graphics/SVG/1.1/DTD/svg11.dtd">
<!-- Creator: CorelDRAW X6 -->
<svg xmlns="http://www.w3.org/2000/svg" xml:space="preserve" width="32.6936mm" height="27.8622mm" version="1.1" style="shape-rendering:geometricPrecision; text-rendering:geometricPrecision; image-rendering:optimizeQuality; fill-rule:evenodd; clip-rule:evenodd"
viewBox="0 0 971 827"
 xmlns:xlink="http://www.w3.org/1999/xlink">
 <defs>
  <style type="text/css">
   <![CDATA[
    .str1 {stroke:#676F74;stroke-width:10.391;stroke-linecap:round;stroke-linejoin:round}
    .str0 {stroke:#E3C6C6;stroke-width:22.2665}
    .fil0 {fill:none}
    .fil3 {fill:black}
    .fil2 {fill:#676F74}
    .fil1 {fill:#E3C6C6}
   ]]>
  </style>
 </defs>
 <g id="Layer_x0020_1">
  <metadata id="CorelCorpID_0Corel-Layer"/>
  <g>
   <path class="fil0 str0" d="M43 443l309 0c17,0 32,14 32,32l0 309c0,17 -14,32 -32,32l-309 0c-17,0 -32,-14 -32,-32l0 -309c0,-17 14,-32 32,-32z"/>
   <path id="1" class="fil1" d="M43 443l309 0c17,0 32,14 32,32l0 309c0,17 -14,32 -32,32l-309 0c-17,0 -32,-14 -32,-32l0 -309c0,-17 14,-32 32,-32z"/>
  </g>
  <g>
   <path class="fil0 str0" d="M469 443l459 0c17,0 32,14 32,32l0 309c0,17 -14,32 -32,32l-459 0c-17,0 -32,-14 -32,-32l0 -309c0,-17 14,-32 32,-32z"/>
   <path id="1" class="fil1" d="M469 443l459 0c17,0 32,14 32,32l0 309c0,17 -14,32 -32,32l-459 0c-17,0 -32,-14 -32,-32l0 -309c0,-17 14,-32 32,-32z"/>
  </g>
  <g>
   <path class="fil2" d="M535 472c17,0 32,14 32,32 0,17 -14,32 -32,32 -17,0 -32,-14 -32,-32 0,-17 14,-32 32,-32zm0 191l-12 103c-3,28 -33,27 -30,-1l11 -105 1 -60 -18 39c-7,15 -30,2 -23,-14l29 -65c7,-15 22,-19 42,-19 20,0 35,4 42,19l29 65c7,16 -15,29 -23,14l-18 -39 1 60 11 105c3,28 -27,29 -30,1l-12 -103z"/>
   <path class="fil2" d="M861 472c17,0 32,14 32,32 0,17 -14,32 -32,32 -17,0 -32,-14 -32,-32 0,-17 14,-32 32,-32zm-5 231l-7 64c-3,28 -33,27 -30,-1l7 -67 -11 -1c-11,-1 -16,-10 -12,-19l28 -63 0 -16 -18 39c-7,15 -30,2 -23,-14l29 -65c7,-15 22,-19 42,-19 20,0 35,4 42,19l29 65c7,16 -15,29 -23,14l-18 -39 0 16 28 63c4,9 -1,18 -12,19l-11 1 7 67c3,28 -27,29 -30,1l-7 -64 -9 0z"/>
   <g>
    <polygon class="fil2" points="628,591 772,591 772,610 628,610 "/>
    <g id="_429521872">
     <g>
      <path class="fil2" d="M618 593l34 -34c4,-4 10,-4 14,0l0 0c4,4 4,10 0,14l-34 34c-4,4 -10,4 -14,0l0 0c-4,-4 -4,-10 0,-14z"/>
      <path class="fil2" d="M618 607l34 34c4,4 10,4 14,0l0 0c4,-4 4,-10 0,-14l-34 -34c-4,-4 -10,-4 -14,0l0 0c-4,4 -4,10 0,14z"/>
     </g>
     <g>
      <path class="fil2" d="M782 593l-34 -34c-4,-4 -10,-4 -14,0l0 0c-4,4 -4,10 0,14l34 34c4,4 10,4 14,0l0 0c4,-4 4,-10 0,-14z"/>
      <path class="fil2" d="M782 607l-34 34c-4,4 -10,4 -14,0l0 0c-4,-4 -4,-10 0,-14l34 -34c4,-4 10,-4 14,0l0 0c4,4 4,10 0,14z"/>
     </g>
    </g>
   </g>
  </g>
  <g>
   <path class="fil0 str0" d="M118 11l309 0c17,0 32,14 32,32l0 309c0,17 -14,32 -32,32l-309 0c-17,0 -32,-14 -32,-32l0 -309c0,-17 14,-32 32,-32z"/>
   <path id="1" class="fil1" d="M118 11l309 0c17,0 32,14 32,32l0 309c0,17 -14,32 -32,32l-309 0c-17,0 -32,-14 -32,-32l0 -309c0,-17 14,-32 32,-32z"/>
  </g>
  <path class="fil2" d="M160 194c-11,2 -20,17 -19,31 1,7 4,14 8,18 7,7 7,5 16,9l9 22c9,19 27,39 45,49 12,7 17,18 40,23 24,5 48,-3 63,-19 9,-9 3,-3 13,-11l9 -7c27,-24 35,-56 37,-57 3,-2 11,-2 18,-13 10,-17 1,-37 -11,-43 1,-22 2,-40 -3,-61 -8,-33 -23,-59 -55,-75 -36,-18 -97,-14 -121,21 -4,6 -8,-1 -23,9 -13,9 -19,27 -22,43 -5,21 -5,40 -4,62z"/>
  <path class="fil1" d="M208 255c5,-1 12,-7 30,-12 12,-3 24,-5 37,-5 13,0 26,2 37,5 6,2 11,3 16,5 5,2 10,5 15,7l27 -59c-6,-2 -15,-12 -32,-16 -45,-10 -64,1 -107,-37 -15,-13 -16,-5 -22,12 -4,13 -9,22 -15,33 -10,18 -11,3 7,49 2,6 5,12 7,18z"/>
  <path class="fil1" d="M210 260l0 49c2,3 11,8 15,10 6,3 5,5 14,11 10,7 24,12 40,11 30,-2 38,-19 49,-26 5,-4 10,-7 14,-11l0 -43c-5,-4 -22,-10 -29,-12 -24,-7 -49,-7 -74,0 -7,2 -25,9 -30,13z"/>
  <path class="fil1" d="M169 247c5,10 4,17 14,32 6,10 13,19 21,26l0 -44c0,-3 -19,-49 -21,-54 -2,-5 -2,-6 -7,-8 -4,-1 -9,-2 -13,-1 -21,5 -23,35 -6,46 5,3 6,2 11,4z"/>
  <path class="fil1" d="M347 298c8,-4 26,-37 30,-52 31,-4 28,-49 -1,-50 -1,3 -3,8 -5,11l-20 45c-3,6 -3,6 -3,13 0,11 0,22 0,33z"/>
  <path class="fil3" d="M225 273c0,3 1,2 10,4 28,6 59,6 87,-1 7,-2 4,-1 5,-3 -2,-2 -4,0 -10,1 -26,6 -54,6 -80,0 -3,-1 -9,-3 -12,-2z"/>
  <path class="fil3" d="M225 297c0,3 0,2 10,4 13,3 27,4 41,4 9,0 19,-1 27,-2l22 -4c3,-1 1,0 2,-2 -1,-1 0,-1 -5,0 -2,1 -4,1 -6,1 -4,1 -8,2 -12,2 -9,1 -18,2 -28,2 -9,0 -18,-1 -27,-2 -4,-1 -23,-5 -24,-4z"/>
  <path class="fil2" d="M222 224c0,6 1,14 8,13l-3 -1c0,-4 2,-9 6,-8 1,3 0,5 -2,7 4,-4 4,-15 1,-21 -5,-10 -11,1 -11,9z"/>
  <path class="fil2" d="M320 234c-1,-3 -1,-2 0,-5 5,0 6,4 7,8l-3 0c11,1 9,-21 5,-25 -7,-8 -12,13 -7,21z"/>
  <path class="fil2" d="M319 191c3,3 10,5 16,11 2,2 3,3 5,4 -1,-11 -15,-18 -20,-15z"/>
  <path class="fil2" d="M213 206c5,-4 6,-6 14,-11 1,-1 2,-1 3,-2l3 -2c-6,-3 -19,5 -20,15z"/>
  <g>
   <path class="fil0 str0" d="M544 11l309 0c17,0 32,14 32,32l0 309c0,17 -14,32 -32,32l-309 0c-17,0 -32,-14 -32,-32l0 -309c0,-17 14,-32 32,-32z"/>
   <path id="1" class="fil1" d="M544 11l309 0c17,0 32,14 32,32l0 309c0,17 -14,32 -32,32l-309 0c-17,0 -32,-14 -32,-32l0 -309c0,-17 14,-32 32,-32z"/>
  </g>
  <g>
   <path class="fil0 str1" d="M657 72c38,-10 79,-20 114,-9 19,6 38,11 49,27 12,18 3,43 5,65 4,31 13,61 14,92 1,22 0,45 -8,66 -5,14 -15,28 -30,31 -16,3 -41,11 -44,-5 -4,-22 12,-53 10,-79 -3,-31 -12,-53 -33,-76 -19,-21 -53,-30 -78,-41l0 -70z"/>
   <path class="fil0 str1" d="M839 274c-17,35 -40,57 -82,54"/>
   <line class="fil0 str1" x1="673" y1="67" x2="673" y2= "149" />
   <polyline class="fil0 str1" points="702,116 702,92 746,92 "/>
   <polyline class="fil0 str1" points="777,103 777,131 722,131 "/>
   <path class="fil0 str1" d="M726 175l0 28c0,7 8,17 15,17l18 0"/>
   <path class="fil0 str1" d="M618 80c-7,6 -12,16 -12,27 0,11 5,21 12,27m-17 -72c-12,11 -19,27 -19,45 0,18 7,34 19,45m-17 -106c-16,15 -26,37 -26,62 0,25 10,47 26,62"/>
  </g>
  <g>
   <path class="fil0 str1" d="M228 624l0 -30c0,-18 15,-34 34,-34l53 0c18,0 34,15 34,34l0 134c0,18 -15,34 -34,34l-53 0c-17,0 -31,-13 -33,-29"/>
   <path class="fil0 str1" d="M259 555l0 -7c0,-6 5,-10 10,-10l38 0c6,0 10,5 10,10l0 7"/>
   <path class="fil0 str1" d="M278 530c-2,-9 -10,-15 -18,-15l-47 0c-11,0 -10,-17 0,-17l99 0c3,0 5,4 4,6l-13 27"/>
   <path class="fil0 str1" d="M176 619c-13,0 -26,-17 -18,-31l18 -33 18 33c8,14 -5,31 -18,31z"/>
   <path class="fil0 str1" d="M47 702c18,-15 33,-33 54,-45 7,-4 16,-4 23,-4 8,0 21,7 29,10 14,5 17,4 19,4l20 3c16,2 12,23 -3,23l-47 0"/>
   <path class="fil0 str1" d="M202 681c6,-5 15,-12 23,-15 8,-8 13,-17 23,-22 9,-5 23,2 16,14l-18 30 -52 40 -74 0"/>
  </g>
 </g>
</svg>
